<svg width="27" height="15" viewBox="0 0 27 15" fill="none" xmlns="http://www.w3.org/2000/svg">
<path fill-rule="evenodd" clip-rule="evenodd" d="M0 14.1667C0 13.9457 0.129302 13.7337 0.35946 13.5774C0.589618 13.4211 0.90178 13.3333 1.22727 13.3333H25.7727C26.0982 13.3333 26.4104 13.4211 26.6405 13.5774C26.8707 13.7337 27 13.9457 27 14.1667C27 14.3877 26.8707 14.5996 26.6405 14.7559C26.4104 14.9122 26.0982 15 25.7727 15H1.22727C0.90178 15 0.589618 14.9122 0.35946 14.7559C0.129302 14.5996 0 14.3877 0 14.1667ZM0 7.5C0 7.27899 0.129302 7.06702 0.35946 6.91074C0.589618 6.75446 0.90178 6.66667 1.22727 6.66667H25.7727C26.0982 6.66667 26.4104 6.75446 26.6405 6.91074C26.8707 7.06702 27 7.27899 27 7.5C27 7.72101 26.8707 7.93298 26.6405 8.08926C26.4104 8.24554 26.0982 8.33333 25.7727 8.33333H1.22727C0.90178 8.33333 0.589618 8.24554 0.35946 8.08926C0.129302 7.93298 0 7.72101 0 7.5ZM0 0.833333C0 0.61232 0.129302 0.400358 0.35946 0.244078C0.589618 0.0877975 0.90178 0 1.22727 0H25.7727C26.0982 0 26.4104 0.0877975 26.6405 0.244078C26.8707 0.400358 27 0.61232 27 0.833333C27 1.05435 26.8707 1.26631 26.6405 1.42259C26.4104 1.57887 26.0982 1.66667 25.7727 1.66667H1.22727C0.90178 1.66667 0.589618 1.57887 0.35946 1.42259C0.129302 1.26631 0 1.05435 0 0.833333Z" fill="black"/>
</svg>
