<svg width="137" height="29" viewBox="0 0 137 29" fill="none" xmlns="http://www.w3.org/2000/svg">
<g filter="url(#filter0_d_1159_1250)">
<path d="M6.0567 0.298828C9.38483 0.416016 11.0489 0.943359 11.0489 1.88086C11.0489 2.53711 10.8965 3.14062 10.5919 3.69141C10.5919 3.84375 10.668 3.91992 10.8204 3.91992L10.5919 6.1875V13.8867C11.0958 15.0938 11.4766 15.6973 11.7344 15.6973H13.7735C14.1133 15.6973 14.4122 15.6211 14.67 15.4688C15.2442 15.4688 15.8477 15.9258 16.4805 16.8398V17.0684C15.8829 17.8184 15.2032 18.1934 14.4415 18.1934H12.8594C11.8868 18.1934 10.9024 18.1172 9.90631 17.9648L8.5528 18.1934C8.24811 18.1934 8.09576 18.1172 8.09576 17.9648L6.51373 18.1934H4.24615C3.43756 18.1934 2.91022 17.8887 2.66412 17.2793V16.8398C3.05084 16.0781 3.65436 15.6973 4.47467 15.6973H6.51373L8.09576 15.4688V12.5332C8.40045 10.3184 8.5528 9.11133 8.5528 8.91211V7.76953C8.5528 6.9375 8.47662 5.88281 8.32428 4.60547C8.47662 4.34766 8.5528 3.9668 8.5528 3.46289C5.63483 2.71289 3.97662 2.33789 3.57819 2.33789L3.12115 1.65234V1.19531C3.12115 0.902344 4.09967 0.603516 6.0567 0.298828Z" fill="black"/>
<path d="M30.7694 8.87695L30.8222 8.40234C30.7987 8.26172 30.787 8.12695 30.787 7.99805C30.787 6.48633 32.0702 5.39062 34.6366 4.71094C35.3163 4.75781 35.8905 4.78125 36.3593 4.78125C36.5116 4.78125 36.787 4.75781 37.1855 4.71094C40.2558 4.91016 41.7909 5.91211 41.7909 7.7168C41.9433 7.98633 42.0194 8.29102 42.0194 8.63086C42.0194 8.7832 41.9433 8.85938 41.7909 8.85938L42.0194 10.4414V14.5195C42.0194 14.7305 42.2421 14.9531 42.6874 15.1875C43.0858 14.4492 43.3905 14.0742 43.6015 14.0625H44.287C44.5917 14.1328 44.8905 14.5078 45.1835 15.1875L44.955 16.5586V16.7871C44.369 17.3145 43.6132 17.6895 42.6874 17.9121H41.5624C41.5624 17.6426 40.8827 17.4141 39.5233 17.2266L36.0077 18.1758L35.0937 17.9473L33.9511 18.2285C31.4433 17.4785 30.1894 16.3535 30.1894 14.8535C30.1894 14.7715 30.1952 14.6953 30.2069 14.625C30.1952 14.4961 30.1894 14.3672 30.1894 14.2383C30.1894 13.0195 30.7343 11.9062 31.8241 10.8984L33.0194 10.459L34.7597 10.2656C36.119 10.2305 36.9511 10.2129 37.2558 10.2129C37.4081 10.2363 37.5487 10.248 37.6776 10.248C38.744 10.248 39.3593 9.63281 39.5233 8.40234C39.4999 7.67578 38.58 7.0957 36.7636 6.66211C36.2714 6.95508 35.8964 7.10156 35.6386 7.10156L34.2851 6.87305C34.2851 7.17773 34.1444 7.38281 33.8632 7.48828C33.8632 7.96875 34.0565 8.37305 34.4433 8.70117C34.6073 8.7832 34.6894 8.87695 34.6894 8.98242C34.6894 9.36914 33.7108 9.86133 31.7538 10.459L30.7694 8.87695ZM34.9882 12.4277H34.2675C34.1034 12.4277 33.9511 12.3926 33.8105 12.3223C33.0722 13.0723 32.703 13.6055 32.703 13.9219V15.2051C33.0194 15.6387 33.33 15.8555 33.6347 15.8555C33.8222 15.8555 34.0097 15.7734 34.1972 15.6094C35.5917 15.7617 36.4706 15.8379 36.8339 15.8379H37.5722C38.5097 15.1582 39.1601 14.4082 39.5233 13.5879V13.2715C39.4648 12.6621 38.9784 12.2402 38.0644 12.0059C36.4003 12.2168 35.3749 12.3574 34.9882 12.4277Z" fill="black"/>
<path d="M56.6269 4.72852C60.037 4.72852 61.9999 7.21875 62.5155 12.1992C61.7538 15.8203 60.6171 17.6309 59.1054 17.6309C59.1054 17.877 58.4257 18.1816 57.0663 18.5449C57.0663 18.3809 56.0878 18.0059 54.1308 17.4199L53.9023 17.8594V18.5449C54.1718 20.209 54.6991 21.041 55.4843 21.041L56.8554 20.8125L57.0663 21.9375V22.166C57.0663 22.3887 56.8437 22.6172 56.3983 22.8516H48.9101C48.6171 22.8516 48.4706 22.6992 48.4706 22.3945V21.498C48.4706 21.2051 49.373 20.8242 51.1776 20.3555C51.1776 20.2031 51.2538 20.127 51.4062 20.127C51.2538 19.0723 51.0312 18.5449 50.7382 18.5449L51.4062 14.2383C51.4062 13.3711 51.33 12.1641 51.1776 10.6172C51.33 9.79688 51.4062 9.11719 51.4062 8.57812C51.3007 7.88672 50.246 7.2832 48.2421 6.76758V5.85352L48.6991 5.18555C51.8632 5.39648 53.4452 5.69531 53.4452 6.08203C53.9023 5.77734 54.9628 5.32617 56.6269 4.72852ZM53.2167 11.5137C54.4003 14.3848 55.7597 15.8203 57.2948 15.8203C58.9237 15.8203 59.9843 14.5371 60.4765 11.9707V10.1602C59.6327 8.20312 58.7245 7.22461 57.7519 7.22461H56.8554C55.1327 7.22461 53.9198 8.6543 53.2167 11.5137Z" fill="black"/>
<path d="M72.7987 4.72852H74.8378C76.373 4.72852 77.8085 6.24023 79.1444 9.26367C79.1444 9.94336 79.2206 10.3945 79.373 10.6172C79.373 11.6719 77.5624 12.1992 73.9413 12.1992C73.6835 12.3516 73.3026 12.4277 72.7987 12.4277C72.7987 12.123 72.6464 11.9707 72.3417 11.9707L69.6347 12.6562V13.4648C70.3964 14.8828 71.6034 15.709 73.2558 15.9434H73.4843C74.9726 15.0527 76.1034 14.2266 76.8769 13.4648C77.0409 13.4531 77.1991 13.4473 77.3515 13.4473C78.6991 13.4473 79.373 13.7871 79.373 14.4668C79.373 15.9785 77.6386 17.1855 74.1698 18.0879H71.2167C68.0409 16.9043 66.453 14.4141 66.453 10.6172L68.0526 6.99609C69.33 5.48438 70.912 4.72852 72.7987 4.72852ZM69.9159 8.12109C70.0917 9.50391 70.3554 10.1953 70.7069 10.1953H72.0077C74.9491 10.0898 76.4198 9.57422 76.4198 8.64844C76.4198 7.42969 75.2948 6.65039 73.0448 6.31055C71.6503 6.94336 70.6073 7.54688 69.9159 8.12109Z" fill="black"/>
<path d="M93.4179 4.72852H95.6855C96.7401 5.52539 97.496 6.42773 97.953 7.43555C97.953 9.4043 97.1972 10.3887 95.6855 10.3887C94.9823 10.3887 94.455 9.48047 94.1034 7.66406C94.244 7.66406 94.3144 7.58789 94.3144 7.43555L93.4179 6.99609C90.5468 8.0625 89.1112 9.94922 89.1112 12.6562C89.2636 14.5312 89.3398 15.5098 89.3398 15.5918C91.9062 15.5918 93.1894 15.8965 93.1894 16.5059V17.1914C93.1894 17.4258 92.8847 17.7246 92.2753 18.0879H90.0253C89.5097 18.0879 89.1288 18.1641 88.8827 18.3164L87.5292 18.0879H84.119C83.8847 18.0879 83.5858 17.7891 83.2226 17.1914V16.5059C83.2226 16.2363 83.6737 15.8613 84.5761 15.3809L85.7187 15.5918H86.1581L86.6151 15.3809C86.6151 15.0762 86.539 14.9238 86.3866 14.9238C86.539 13.4121 86.6151 12.2754 86.6151 11.5137V9.03516C86.6151 7.82812 86.0878 7.22461 85.0331 7.22461C83.8261 7.22461 83.2226 6.76758 83.2226 5.85352L84.3476 4.95703H86.6151C87.7636 4.95703 88.6718 5.48438 89.3398 6.53906C91.5077 5.33203 92.8671 4.72852 93.4179 4.72852Z" fill="black"/>
<path d="M107.551 17.7715C105.476 17.2559 103.941 16.2422 102.945 14.7305C102.945 14.4727 102.494 13.4941 101.592 11.7949C102.389 6.66211 104.275 4.0957 107.252 4.0957C107.416 4.0957 107.644 4.01953 107.937 3.86719C110.738 3.86719 112.853 5.44922 114.283 8.61328C113.767 9.97266 113.012 10.6523 112.016 10.6523C110.809 10.125 110.205 9.07031 110.205 7.48828C110.205 7.04297 109.9 6.5918 109.291 6.13477C106.291 6.13477 104.557 8.02148 104.088 11.7949C105.025 13.5762 106.309 14.7832 107.937 15.416C110.199 14.9707 111.33 14.1387 111.33 12.9199L112.016 12.4629C112.906 12.4629 113.662 12.9199 114.283 13.834V14.0625C114.283 15.5508 112.976 16.6699 110.363 17.4199C110.152 18.0645 109.918 18.7734 109.66 19.5469C109.074 22.5703 107.867 24.082 106.039 24.082C106.039 24.3867 105.658 24.5391 104.896 24.5391C104.896 24.2461 103.988 23.8652 102.172 23.3965C101.527 22.9395 101.076 21.9609 100.818 20.4609V19.5469C100.842 19.2539 101.598 18.8027 103.086 18.1934C104.445 18.4277 105.125 19.1074 105.125 20.2324L104.668 21.1289L105.125 21.3574H105.582C106.402 19.8457 106.93 19.0898 107.164 19.0898L107.621 17.9648L107.551 17.7715Z" fill="black"/>
<path d="M118.185 4.92188C118.373 4.94531 118.613 4.95703 118.906 4.95703L119.82 4.72852C121.484 4.72852 122.316 5.56055 122.316 7.22461V13.5527C122.316 14.3145 122.691 14.9941 123.441 15.5918H124.355C127.074 13.998 128.434 12.1113 128.434 9.93164C128.434 8.81836 128.504 7.98633 128.644 7.43555L127.976 6.99609H127.519L126.394 7.22461C126.09 6.7207 125.937 6.26367 125.937 5.85352V5.39648C125.937 4.95117 126.617 4.65234 127.976 4.5C129.781 4.5 130.684 5.25586 130.684 6.76758C130.836 6.91992 130.912 7.52344 130.912 8.57812L130.684 9.03516C130.684 9.1875 130.76 9.26367 130.912 9.26367L130.684 11.9707V14.2383C130.684 15.1406 131.439 15.5918 132.951 15.5918C133.713 15.709 134.094 15.9375 134.094 16.2773V16.9629C134.094 17.209 133.566 17.5078 132.512 17.8594C131.469 17.707 130.637 17.6309 130.016 17.6309H129.33L127.976 16.5059C125.773 17.7129 124.262 18.3164 123.441 18.3164C121.332 17.5078 120.277 16.4531 120.277 15.1523C119.973 15.1523 119.82 14.6953 119.82 13.7812C119.82 12.6094 119.896 10.4941 120.049 7.43555L119.592 7.22461H118.906C118.566 7.22461 118.285 7.21289 118.062 7.18945C117.887 7.16602 117.799 6.91992 117.799 6.45117C117.799 6.32227 117.805 6.17578 117.816 6.01172C117.875 5.28516 117.992 4.92188 118.168 4.92188H118.185Z" fill="black"/>
</g>
<defs>
<filter id="filter0_d_1159_1250" x="0.664124" y="0.298828" width="135.43" height="28.2402" filterUnits="userSpaceOnUse" color-interpolation-filters="sRGB">
<feFlood flood-opacity="0" result="BackgroundImageFix"/>
<feColorMatrix in="SourceAlpha" type="matrix" values="0 0 0 0 0 0 0 0 0 0 0 0 0 0 0 0 0 0 127 0" result="hardAlpha"/>
<feOffset dy="2"/>
<feGaussianBlur stdDeviation="1"/>
<feComposite in2="hardAlpha" operator="out"/>
<feColorMatrix type="matrix" values="0 0 0 0 0 0 0 0 0 0 0 0 0 0 0 0 0 0 0.25 0"/>
<feBlend mode="normal" in2="BackgroundImageFix" result="effect1_dropShadow_1159_1250"/>
<feBlend mode="normal" in="SourceGraphic" in2="effect1_dropShadow_1159_1250" result="shape"/>
</filter>
</defs>
</svg>
