<svg width="998" height="48" viewBox="0 0 998 48" fill="none" xmlns="http://www.w3.org/2000/svg">
<path d="M0.952148 2.44434C1.29395 1.73796 2.43327 1.38477 4.37012 1.38477H21.5283C25.6527 3.11654 27.7148 6.2041 27.7148 10.6475C27.7148 11.9235 26.9743 14.2705 25.4932 17.6885C28.1364 19.3975 29.458 21.8926 29.458 25.1738C29.458 30.3919 27.2591 33.7757 22.8613 35.3252C21.7448 35.3252 20.2751 35.6214 18.4521 36.2139C15.9684 35.6214 14.4987 35.3252 14.043 35.3252C13.1771 35.6214 12.7441 35.9176 12.7441 36.2139L10.9668 35.7695L7.89062 36.2139L3.92578 35.7695L1.25977 36.2139L0.405273 34.8809V34.4365C0.587565 32.682 1.02051 31.8047 1.7041 31.8047H5.22461C6.88802 31.8047 7.9248 31.0641 8.33496 29.583C8.33496 29.3779 8.18685 28.5007 7.89062 26.9512L8.33496 25.1738C8.03874 24.3079 7.74251 23.875 7.44629 23.875L8.33496 15.501C8.03874 13.9515 7.89062 12.4818 7.89062 11.0918C8.18685 7.44596 8.33496 5.5319 8.33496 5.34961L7.44629 4.90527H1.7041C1.49902 4.92806 1.29395 4.96224 1.08887 5.00781L0.952148 2.44434ZM10.9668 5.34961L11.4111 6.23828V6.68262C11.4111 7.8903 11.263 9.0638 10.9668 10.2031C10.9668 13.735 11.8441 15.501 13.5986 15.501C20.9587 15.501 24.6387 14.1794 24.6387 11.5361C23.9095 6.84212 21.9954 4.49512 18.8965 4.49512H12.2998L10.9668 5.34961ZM12.2998 18.5771C11.7074 22.3141 11.4111 24.513 11.4111 25.1738C11.6162 29.5944 12.0605 31.8047 12.7441 31.8047H17.5635C22.8499 31.8047 25.4932 29.8906 25.4932 26.0625C25.7894 26.0625 25.9375 25.6182 25.9375 24.7295C24.7298 20.9242 22.8271 19.0215 20.2295 19.0215L19.3408 19.4658H15.376L14.043 18.5771H12.2998Z" fill="white"/>
<path d="M55.0928 9.79297H59.502C61.5527 11.3424 63.0225 13.097 63.9111 15.0566C63.9111 18.8848 62.4414 20.7988 59.502 20.7988C58.1348 20.7988 57.1094 19.0329 56.4258 15.501C56.6992 15.501 56.8359 15.3529 56.8359 15.0566L55.0928 14.2021C49.5101 16.2757 46.7188 19.9443 46.7188 25.208C47.015 28.8538 47.1631 30.7565 47.1631 30.916C52.1533 30.916 54.6484 31.5085 54.6484 32.6934V34.0264C54.6484 34.4821 54.056 35.0632 52.8711 35.7695H48.4961C47.4935 35.7695 46.7529 35.9176 46.2744 36.2139L43.6426 35.7695H37.0117C36.556 35.7695 35.9749 35.1885 35.2686 34.0264V32.6934C35.2686 32.1693 36.1458 31.4401 37.9004 30.5059L40.1221 30.916H40.9766L41.8652 30.5059C41.8652 29.9134 41.7171 29.6172 41.4209 29.6172C41.7171 26.6777 41.8652 24.4674 41.8652 22.9863V18.167C41.8652 15.82 40.8398 14.6465 38.7891 14.6465C36.4421 14.6465 35.2686 13.7578 35.2686 11.9805L37.4561 10.2373H41.8652C44.0983 10.2373 45.8643 11.2627 47.1631 13.3135C51.3786 10.9665 54.0218 9.79297 55.0928 9.79297Z" fill="white"/>
<path d="M83.3594 9.79297H87.3242C90.3092 9.79297 93.1006 12.7324 95.6982 18.6113C95.6982 19.9329 95.8464 20.8102 96.1426 21.2432C96.1426 23.2939 92.6221 24.3193 85.5811 24.3193C85.0798 24.6156 84.3392 24.7637 83.3594 24.7637C83.3594 24.1712 83.0632 23.875 82.4707 23.875L77.207 25.208V26.7803C78.6882 29.5374 81.0352 31.1439 84.248 31.5996H84.6924C87.5863 29.8678 89.7852 28.2614 91.2891 26.7803C91.6081 26.7575 91.9157 26.7461 92.2119 26.7461C94.8324 26.7461 96.1426 27.4069 96.1426 28.7285C96.1426 31.668 92.7702 34.015 86.0254 35.7695H80.2832C74.1081 33.4681 71.0205 28.626 71.0205 21.2432L74.1309 14.2021C76.6146 11.2627 79.6908 9.79297 83.3594 9.79297ZM77.7539 16.3896C78.0957 19.0785 78.6084 20.4229 79.292 20.4229H81.8213C87.5407 20.2178 90.4004 19.2152 90.4004 17.415C90.4004 15.0452 88.2129 13.5299 83.8379 12.8691C81.1263 14.0996 79.0983 15.2731 77.7539 16.3896Z" fill="white"/>
<path d="M120.205 0.632812H125.059C129.16 1.86328 131.211 3.76595 131.211 6.34082V7.67383C130.459 9.15495 129.285 9.89551 127.69 9.89551L125.469 7.22949L125.913 6.34082C125.343 5.01921 124.762 4.29004 124.17 4.15332H121.094C119.316 5.04199 117.995 6.65983 117.129 9.00684L117.983 10.75L122.393 10.3057H123.726C124.386 10.3057 124.831 11.0462 125.059 12.5273C124.603 13.6895 124.159 14.2705 123.726 14.2705H118.428C117.721 14.2705 117.14 15.4554 116.685 17.8252L117.129 20.0127V27.498C117.129 29.8451 118.154 31.0186 120.205 31.0186C124.01 31.2236 125.913 31.8161 125.913 32.7959V33.6846C125.913 34.2542 124.159 34.9834 120.649 35.8721C120.33 35.8721 119.886 35.724 119.316 35.4277C115.488 35.724 112.401 35.8721 110.054 35.8721H108.311C105.667 35.8721 104.346 34.8467 104.346 32.7959C109.928 31.5654 112.72 30.54 112.72 29.7197C113.016 29.1956 113.164 28.6032 113.164 27.9424V27.0537C113.164 26.2562 112.868 25.3789 112.275 24.4219C112.617 21.4824 113.05 20.0127 113.574 20.0127L112.72 18.2354L113.164 16.0479C112.868 14.863 111.979 14.2705 110.498 14.2705H106.089C105.679 14.2705 105.246 13.8376 104.79 12.9717V12.083C104.79 11.3311 107.718 10.4538 113.574 9.45117V6.78516C113.574 4.71159 115.785 2.66081 120.205 0.632812Z" fill="white"/>
<path d="M152.642 27.0537C153.713 27.0537 155.034 27.7829 156.606 29.2412C156.606 39.0166 154.111 44.8955 149.121 46.8779L148.232 47.3223H147.378C146.785 47.3223 146.489 47.026 146.489 46.4336V45.9893C146.489 44.0296 147.515 42.127 149.565 40.2812V38.5039C146.626 36.9772 145.156 35.2113 145.156 33.2061V31.0186C146.136 28.3753 148.631 27.0537 152.642 27.0537Z" fill="white"/>
<path d="M235.938 35.5645C234.753 35.3366 233.112 35.1429 231.016 34.9834C230.514 34.9834 229.637 35.2796 228.384 35.8721L225.273 34.9834L224.419 35.4277C222.938 35.0404 222.197 34.596 222.197 34.0947V32.7617C222.812 31.5996 223.553 31.0186 224.419 31.0186L225.273 31.4629C226.618 30.8932 227.358 30.3008 227.495 29.6855C227.495 28.7057 227.051 27.6803 226.162 26.6094C226.595 26.6094 227.039 26.165 227.495 25.2764C227.495 24.3877 227.347 23.3623 227.051 22.2002C227.347 20.2633 227.495 18.3607 227.495 16.4922V16.0479C227.495 15.5238 226.174 14.9313 223.53 14.2705C218.244 17.21 215.601 19.2721 215.601 20.457C215.008 22.3255 214.712 23.499 214.712 23.9775C215.304 25.9144 215.749 28.4095 216.045 31.4629H217.344C219.121 31.6452 220.01 32.0781 220.01 32.7617V33.6504C220.01 34.0833 219.565 34.5277 218.677 34.9834H216.934C214.837 34.9834 213.219 35.2796 212.08 35.8721C211.533 35.8721 210.36 35.5758 208.56 34.9834L207.671 35.4277C205.62 34.9036 204.595 34.3112 204.595 33.6504V32.7617C204.777 31.8958 205.951 31.4629 208.115 31.4629H210.303C210.895 29.2526 211.191 27.1904 211.191 25.2764V14.7148C210.827 14.3275 209.505 13.5983 207.227 12.5273L206.782 11.6387V11.1943C206.965 10.3057 208.138 9.86133 210.303 9.86133C213.835 10.1576 215.601 11.1829 215.601 12.9375C220.181 10.8867 222.972 9.86133 223.975 9.86133C228.965 10.0892 231.46 12.1514 231.46 16.0479C231.164 19.557 231.016 22.2002 231.016 23.9775C231.016 25.4359 231.312 26.165 231.904 26.165L231.46 28.3867V30.1299C233.67 30.4261 235.288 31.0186 236.313 31.9072H236.382L235.938 35.5645Z" fill="white"/>
<path d="M254.873 9.79297H256.65C259.544 9.79297 262.62 12.4362 265.879 17.7227C265.879 19.3405 266.323 21.0951 267.212 22.9863C267.212 28.9564 264.717 33.2174 259.727 35.7695C258.018 35.9518 256.696 36.3962 255.762 37.1025H253.54C246.203 34.8923 242.534 31.0755 242.534 25.6523V21.2432C244.813 13.6097 248.926 9.79297 254.873 9.79297ZM247.388 21.6875C247.388 27.2702 248.709 30.0615 251.353 30.0615C251.421 30.5173 252.594 31.0983 254.873 31.8047C258.268 30.5742 260.615 28.8197 261.914 26.541C261.618 24.9232 261.47 23.7383 261.47 22.9863L261.914 21.2432C261.185 18.8734 259.567 16.6745 257.061 14.6465H253.096C249.29 16.7201 247.388 19.0671 247.388 21.6875Z" fill="white"/>
<path d="M274.15 10.1689C274.515 10.2145 274.982 10.2373 275.552 10.2373L277.329 9.79297C280.565 9.79297 282.183 11.4108 282.183 14.6465V26.9512C282.183 28.4323 282.912 29.7539 284.37 30.916H286.147C291.434 27.8171 294.077 24.1484 294.077 19.9102C294.077 17.7454 294.214 16.1276 294.487 15.0566L293.188 14.2021H292.3L290.112 14.6465C289.52 13.6667 289.224 12.778 289.224 11.9805V11.0918C289.224 10.2259 290.545 9.64486 293.188 9.34863C296.698 9.34863 298.452 10.8184 298.452 13.7578C298.748 14.054 298.896 15.2275 298.896 17.2783L298.452 18.167C298.452 18.4632 298.6 18.6113 298.896 18.6113L298.452 23.875V28.2842C298.452 30.0387 299.922 30.916 302.861 30.916C304.342 31.1439 305.083 31.5882 305.083 32.249V33.582C305.083 34.0605 304.058 34.6416 302.007 35.3252C299.979 35.029 298.361 34.8809 297.153 34.8809H295.82L293.188 32.6934C288.905 35.0404 285.965 36.2139 284.37 36.2139C280.269 34.6416 278.218 32.5908 278.218 30.0615C277.625 30.0615 277.329 29.1729 277.329 27.3955C277.329 25.1169 277.477 21.0039 277.773 15.0566L276.885 14.6465H275.552C274.891 14.6465 274.344 14.6237 273.911 14.5781C273.569 14.5326 273.398 14.054 273.398 13.1426C273.398 12.8919 273.41 12.6071 273.433 12.2881C273.547 10.8753 273.774 10.1689 274.116 10.1689H274.15Z" fill="white"/>
<path d="M322.959 9.79297C324.964 9.79297 327.459 10.5221 330.444 11.9805C330.535 11.388 330.832 11.0918 331.333 11.0918H331.777C332.939 11.0918 333.521 13.4502 333.521 18.167L331.777 19.4658H330.889C328.018 15.3643 325.522 13.3135 323.403 13.3135C318.413 13.3135 315.918 14.7832 315.918 17.7227V18.167C315.918 19.124 317.673 19.7051 321.182 19.9102L325.146 19.4658C326.126 20.0583 327.015 20.3545 327.812 20.3545H330.889C333.236 22.4736 334.409 24.6725 334.409 26.9512L333.965 27.8398C333.965 28.1361 334.113 28.2842 334.409 28.2842C334.409 31.3831 332.643 33.582 329.111 34.8809C327.585 35.1771 326.126 35.3252 324.736 35.3252H322.515C321.147 35.3252 318.949 34.596 315.918 33.1377C315.439 34.2998 314.414 34.8809 312.842 34.8809H311.953C311.452 34.8809 310.859 34.0036 310.176 32.249L311.509 29.1729L311.064 26.5068V25.6523C311.156 25.0599 311.452 24.7637 311.953 24.7637H314.585C316.841 29.1615 319.78 31.3604 323.403 31.3604H326.924C329.567 29.4919 330.889 28.1702 330.889 27.3955C330.501 25.8232 329.772 24.6497 328.701 23.875C328.405 23.875 328.257 24.0231 328.257 24.3193L322.959 23.875H319.438C314.152 22.485 311.509 20.5824 311.509 18.167C311.509 13.2679 314.733 10.4766 321.182 9.79297H322.959Z" fill="white"/>
<path d="M391.318 9.79297C393.324 9.79297 395.819 10.5221 398.804 11.9805C398.895 11.388 399.191 11.0918 399.692 11.0918H400.137C401.299 11.0918 401.88 13.4502 401.88 18.167L400.137 19.4658H399.248C396.377 15.3643 393.882 13.3135 391.763 13.3135C386.772 13.3135 384.277 14.7832 384.277 17.7227V18.167C384.277 19.124 386.032 19.7051 389.541 19.9102L393.506 19.4658C394.486 20.0583 395.374 20.3545 396.172 20.3545H399.248C401.595 22.4736 402.769 24.6725 402.769 26.9512L402.324 27.8398C402.324 28.1361 402.472 28.2842 402.769 28.2842C402.769 31.3831 401.003 33.582 397.471 34.8809C395.944 35.1771 394.486 35.3252 393.096 35.3252H390.874C389.507 35.3252 387.308 34.596 384.277 33.1377C383.799 34.2998 382.773 34.8809 381.201 34.8809H380.312C379.811 34.8809 379.219 34.0036 378.535 32.249L379.868 29.1729L379.424 26.5068V25.6523C379.515 25.0599 379.811 24.7637 380.312 24.7637H382.944C385.2 29.1615 388.14 31.3604 391.763 31.3604H395.283C397.926 29.4919 399.248 28.1702 399.248 27.3955C398.861 25.8232 398.132 24.6497 397.061 23.875C396.764 23.875 396.616 24.0231 396.616 24.3193L391.318 23.875H387.798C382.511 22.485 379.868 20.5824 379.868 18.167C379.868 13.2679 383.092 10.4766 389.541 9.79297H391.318Z" fill="white"/>
<path d="M425.771 9.79297H427.549C430.443 9.79297 433.519 12.4362 436.777 17.7227C436.777 19.3405 437.222 21.0951 438.11 22.9863C438.11 28.9564 435.615 33.2174 430.625 35.7695C428.916 35.9518 427.594 36.3962 426.66 37.1025H424.438C417.101 34.8923 413.433 31.0755 413.433 25.6523V21.2432C415.711 13.6097 419.824 9.79297 425.771 9.79297ZM418.286 21.6875C418.286 27.2702 419.608 30.0615 422.251 30.0615C422.319 30.5173 423.493 31.0983 425.771 31.8047C429.167 30.5742 431.514 28.8197 432.812 26.541C432.516 24.9232 432.368 23.7383 432.368 22.9863L432.812 21.2432C432.083 18.8734 430.465 16.6745 427.959 14.6465H423.994C420.189 16.7201 418.286 19.0671 418.286 21.6875Z" fill="white"/>
<path d="M444.399 31.9072C446.177 31.9072 447.065 31.1667 447.065 29.6855C447.065 29.0247 446.917 28.4437 446.621 27.9424L447.51 17.3467C447.51 16.6403 446.188 15.1706 443.545 12.9375C444.137 11.1829 444.718 10.3057 445.288 10.3057C445.584 10.3057 445.732 10.4538 445.732 10.75L447.954 10.3057C450.005 10.7158 451.03 11.3083 451.03 12.083C452.83 10.8981 454.3 10.3057 455.439 10.3057C456.647 10.3057 458.254 11.0462 460.259 12.5273H461.147L463.813 10.3057H466.445C469.157 10.3057 470.775 12.2197 471.299 16.0479V21.3115C471.299 27.7829 472.028 31.0186 473.486 31.0186C474.967 31.5199 475.708 32.249 475.708 33.2061C475.252 34.391 474.808 34.9834 474.375 34.9834H473.042C471.356 34.9834 469.009 35.1315 466.001 35.4277C465.431 35.1315 464.987 34.9834 464.668 34.9834C463.506 35.2113 462.925 35.5075 462.925 35.8721L458.516 35.4277H454.995C454.699 35.4277 454.551 35.2796 454.551 34.9834C454.027 35.2796 452.705 35.5758 450.586 35.8721L447.51 35.4277L445.288 36.3164C445.06 36.1113 444.627 35.929 443.989 35.7695L443.818 31.9072H444.399ZM451.03 20.457C451.44 21.7331 452.021 22.9066 452.773 23.9775C452.272 23.9775 451.839 24.7067 451.475 26.165C451.475 28.8083 452.352 30.4261 454.106 31.0186L456.841 29.6855L456.738 23.9775C456.738 22.9066 456.886 21.585 457.183 20.0127C456.886 19.443 456.738 18.9987 456.738 18.6797L457.183 16.0479L455.439 15.1592C454.551 15.3415 453.081 17.1074 451.03 20.457ZM461.592 20.457L462.036 22.6445C461.444 24.7409 461.147 25.9144 461.147 26.165C461.649 27.4867 462.617 29.1273 464.053 31.0869H465.352C467.243 29.0817 468.188 27.5892 468.188 26.6094C467.778 26.6094 467.345 26.165 466.89 25.2764V21.7559C466.89 21.0951 467.038 20.514 467.334 20.0127C467.038 19.2835 466.742 17.8138 466.445 15.6035H465.112C463.722 15.9453 462.549 17.5632 461.592 20.457Z" fill="white"/>
<path d="M478.579 31.9072C480.356 31.9072 481.245 31.1667 481.245 29.6855C481.245 29.0247 481.097 28.4437 480.801 27.9424L481.689 17.3467C481.689 16.6403 480.368 15.1706 477.725 12.9375C478.317 11.1829 478.898 10.3057 479.468 10.3057C479.764 10.3057 479.912 10.4538 479.912 10.75L482.134 10.3057C484.185 10.7158 485.21 11.3083 485.21 12.083C487.01 10.8981 488.48 10.3057 489.619 10.3057C490.827 10.3057 492.433 11.0462 494.438 12.5273H495.327L497.993 10.3057H500.625C503.337 10.3057 504.954 12.2197 505.479 16.0479V21.3115C505.479 27.7829 506.208 31.0186 507.666 31.0186C509.147 31.5199 509.888 32.249 509.888 33.2061C509.432 34.391 508.988 34.9834 508.555 34.9834H507.222C505.535 34.9834 503.188 35.1315 500.181 35.4277C499.611 35.1315 499.167 34.9834 498.848 34.9834C497.686 35.2113 497.104 35.5075 497.104 35.8721L492.695 35.4277H489.175C488.879 35.4277 488.73 35.2796 488.73 34.9834C488.206 35.2796 486.885 35.5758 484.766 35.8721L481.689 35.4277L479.468 36.3164C479.24 36.1113 478.807 35.929 478.169 35.7695L477.998 31.9072H478.579ZM485.21 20.457C485.62 21.7331 486.201 22.9066 486.953 23.9775C486.452 23.9775 486.019 24.7067 485.654 26.165C485.654 28.8083 486.532 30.4261 488.286 31.0186L491.021 29.6855L490.918 23.9775C490.918 22.9066 491.066 21.585 491.362 20.0127C491.066 19.443 490.918 18.9987 490.918 18.6797L491.362 16.0479L489.619 15.1592C488.73 15.3415 487.261 17.1074 485.21 20.457ZM495.771 20.457L496.216 22.6445C495.623 24.7409 495.327 25.9144 495.327 26.165C495.828 27.4867 496.797 29.1273 498.232 31.0869H499.531C501.423 29.0817 502.368 27.5892 502.368 26.6094C501.958 26.6094 501.525 26.165 501.069 25.2764V21.7559C501.069 21.0951 501.217 20.514 501.514 20.0127C501.217 19.2835 500.921 17.8138 500.625 15.6035H499.292C497.902 15.9453 496.729 17.5632 495.771 20.457Z" fill="white"/>
<path d="M527.695 9.79297H531.66C534.645 9.79297 537.437 12.7324 540.034 18.6113C540.034 19.9329 540.182 20.8102 540.479 21.2432C540.479 23.2939 536.958 24.3193 529.917 24.3193C529.416 24.6156 528.675 24.7637 527.695 24.7637C527.695 24.1712 527.399 23.875 526.807 23.875L521.543 25.208V26.7803C523.024 29.5374 525.371 31.1439 528.584 31.5996H529.028C531.922 29.8678 534.121 28.2614 535.625 26.7803C535.944 26.7575 536.252 26.7461 536.548 26.7461C539.168 26.7461 540.479 27.4069 540.479 28.7285C540.479 31.668 537.106 34.015 530.361 35.7695H524.619C518.444 33.4681 515.356 28.626 515.356 21.2432L518.467 14.2021C520.951 11.2627 524.027 9.79297 527.695 9.79297ZM522.09 16.3896C522.432 19.0785 522.944 20.4229 523.628 20.4229H526.157C531.877 20.2178 534.736 19.2152 534.736 17.415C534.736 15.0452 532.549 13.5299 528.174 12.8691C525.462 14.0996 523.434 15.2731 522.09 16.3896Z" fill="white"/>
<path d="M562.217 9.79297C564.222 9.79297 566.717 10.5221 569.702 11.9805C569.793 11.388 570.09 11.0918 570.591 11.0918H571.035C572.197 11.0918 572.778 13.4502 572.778 18.167L571.035 19.4658H570.146C567.275 15.3643 564.78 13.3135 562.661 13.3135C557.671 13.3135 555.176 14.7832 555.176 17.7227V18.167C555.176 19.124 556.93 19.7051 560.439 19.9102L564.404 19.4658C565.384 20.0583 566.273 20.3545 567.07 20.3545H570.146C572.493 22.4736 573.667 24.6725 573.667 26.9512L573.223 27.8398C573.223 28.1361 573.371 28.2842 573.667 28.2842C573.667 31.3831 571.901 33.582 568.369 34.8809C566.842 35.1771 565.384 35.3252 563.994 35.3252H561.772C560.405 35.3252 558.206 34.596 555.176 33.1377C554.697 34.2998 553.672 34.8809 552.1 34.8809H551.211C550.71 34.8809 550.117 34.0036 549.434 32.249L550.767 29.1729L550.322 26.5068V25.6523C550.413 25.0599 550.71 24.7637 551.211 24.7637H553.843C556.099 29.1615 559.038 31.3604 562.661 31.3604H566.182C568.825 29.4919 570.146 28.1702 570.146 27.3955C569.759 25.8232 569.03 24.6497 567.959 23.875C567.663 23.875 567.515 24.0231 567.515 24.3193L562.217 23.875H558.696C553.41 22.485 550.767 20.5824 550.767 18.167C550.767 13.2679 553.991 10.4766 560.439 9.79297H562.217Z" fill="white"/>
<path d="M628.115 1.41895H629.004C629.893 1.71517 630.337 2.59245 630.337 4.05078V9.79297L630.781 10.6816C633.698 10.3854 635.897 10.2373 637.378 10.2373H639.565C640.044 10.2373 640.636 10.8184 641.343 11.9805V12.8691C640.431 12.8919 638.962 13.4844 636.934 14.6465L634.746 14.2021H633.413C631.886 14.2021 630.861 14.9313 630.337 16.3896C630.907 17.3467 631.191 18.224 631.191 19.0215L630.781 19.9102C631.055 20.4342 631.191 21.0267 631.191 21.6875C630.622 21.7786 630.337 22.0749 630.337 22.5762V23.4307C630.907 28.7171 631.636 31.3604 632.524 31.3604H633.413C636.353 29.5602 637.822 26.7689 637.822 22.9863L640.01 22.5762C640.898 23.7155 641.343 24.5928 641.343 25.208C641.343 32.249 638.996 35.7695 634.302 35.7695H631.636C627.534 34.5618 625.483 31.7705 625.483 27.3955L626.372 25.6523C626.372 25.3561 626.224 25.208 625.928 25.208L626.372 22.1318V15.0566C626.076 14.1908 625.187 13.7578 623.706 13.7578C623.228 13.7578 621.473 13.9059 618.442 14.2021L617.109 11.9805C617.542 10.8184 617.987 10.2373 618.442 10.2373H622.852C623.581 10.2373 624.902 9.94108 626.816 9.34863V4.05078C626.999 2.29622 627.432 1.41895 628.115 1.41895Z" fill="white"/>
<path d="M651.05 17.8594L651.152 16.9365C651.107 16.6631 651.084 16.401 651.084 16.1504C651.084 13.2109 653.579 11.0804 658.569 9.75879C659.891 9.84993 661.007 9.89551 661.919 9.89551C662.215 9.89551 662.751 9.84993 663.525 9.75879C669.495 10.1462 672.48 12.0944 672.48 15.6035C672.777 16.1276 672.925 16.7201 672.925 17.3809C672.925 17.6771 672.777 17.8252 672.48 17.8252L672.925 20.9014V28.8311C672.925 29.2412 673.358 29.6742 674.224 30.1299C674.998 28.6943 675.591 27.9652 676.001 27.9424H677.334C677.926 28.0791 678.507 28.8083 679.077 30.1299L678.633 32.7959V33.2402C677.493 34.2656 676.024 34.9948 674.224 35.4277H672.036C672.036 34.9036 670.715 34.4593 668.071 34.0947L661.235 35.9404L659.458 35.4961L657.236 36.043C652.36 34.5846 649.922 32.3971 649.922 29.4805C649.922 29.321 649.933 29.1729 649.956 29.0361C649.933 28.7855 649.922 28.5348 649.922 28.2842C649.922 25.9144 650.981 23.7497 653.101 21.79L655.425 20.9355L658.809 20.5596C661.452 20.4912 663.07 20.457 663.662 20.457C663.958 20.5026 664.232 20.5254 664.482 20.5254C666.556 20.5254 667.752 19.3291 668.071 16.9365C668.026 15.5238 666.237 14.3958 662.705 13.5527C661.748 14.1224 661.019 14.4072 660.518 14.4072L657.886 13.9629C657.886 14.5553 657.612 14.9541 657.065 15.1592C657.065 16.0934 657.441 16.8796 658.193 17.5176C658.512 17.6771 658.672 17.8594 658.672 18.0645C658.672 18.8164 656.769 19.7734 652.964 20.9355L651.05 17.8594ZM659.253 24.7637H657.852C657.533 24.7637 657.236 24.6953 656.963 24.5586C655.527 26.0169 654.81 27.0537 654.81 27.6689V30.1641C655.425 31.0072 656.029 31.4287 656.621 31.4287C656.986 31.4287 657.35 31.2692 657.715 30.9502C660.426 31.2464 662.135 31.3945 662.842 31.3945H664.277C666.1 30.0729 667.365 28.6146 668.071 27.0195V26.4043C667.957 25.2194 667.012 24.3991 665.234 23.9434C661.999 24.3535 660.005 24.627 659.253 24.7637Z" fill="white"/>
<path d="M696.475 1.41895H697.363C698.252 1.71517 698.696 2.59245 698.696 4.05078V9.79297L699.141 10.6816C702.057 10.3854 704.256 10.2373 705.737 10.2373H707.925C708.403 10.2373 708.996 10.8184 709.702 11.9805V12.8691C708.791 12.8919 707.321 13.4844 705.293 14.6465L703.105 14.2021H701.772C700.246 14.2021 699.22 14.9313 698.696 16.3896C699.266 17.3467 699.551 18.224 699.551 19.0215L699.141 19.9102C699.414 20.4342 699.551 21.0267 699.551 21.6875C698.981 21.7786 698.696 22.0749 698.696 22.5762V23.4307C699.266 28.7171 699.995 31.3604 700.884 31.3604H701.772C704.712 29.5602 706.182 26.7689 706.182 22.9863L708.369 22.5762C709.258 23.7155 709.702 24.5928 709.702 25.208C709.702 32.249 707.355 35.7695 702.661 35.7695H699.995C695.894 34.5618 693.843 31.7705 693.843 27.3955L694.731 25.6523C694.731 25.3561 694.583 25.208 694.287 25.208L694.731 22.1318V15.0566C694.435 14.1908 693.547 13.7578 692.065 13.7578C691.587 13.7578 689.832 13.9059 686.802 14.2021L685.469 11.9805C685.902 10.8184 686.346 10.2373 686.802 10.2373H691.211C691.94 10.2373 693.262 9.94108 695.176 9.34863V4.05078C695.358 2.29622 695.791 1.41895 696.475 1.41895Z" fill="white"/>
<path d="M733.389 9.79297H735.166C738.06 9.79297 741.136 12.4362 744.395 17.7227C744.395 19.3405 744.839 21.0951 745.728 22.9863C745.728 28.9564 743.232 33.2174 738.242 35.7695C736.533 35.9518 735.212 36.3962 734.277 37.1025H732.056C724.718 34.8923 721.05 31.0755 721.05 25.6523V21.2432C723.328 13.6097 727.441 9.79297 733.389 9.79297ZM725.903 21.6875C725.903 27.2702 727.225 30.0615 729.868 30.0615C729.937 30.5173 731.11 31.0983 733.389 31.8047C736.784 30.5742 739.131 28.8197 740.43 26.541C740.133 24.9232 739.985 23.7383 739.985 22.9863L740.43 21.2432C739.701 18.8734 738.083 16.6745 735.576 14.6465H731.611C727.806 16.7201 725.903 19.0671 725.903 21.6875Z" fill="white"/>
<path d="M752.666 10.1689C753.031 10.2145 753.498 10.2373 754.067 10.2373L755.845 9.79297C759.08 9.79297 760.698 11.4108 760.698 14.6465V26.9512C760.698 28.4323 761.427 29.7539 762.886 30.916H764.663C769.95 27.8171 772.593 24.1484 772.593 19.9102C772.593 17.7454 772.729 16.1276 773.003 15.0566L771.704 14.2021H770.815L768.628 14.6465C768.035 13.6667 767.739 12.778 767.739 11.9805V11.0918C767.739 10.2259 769.061 9.64486 771.704 9.34863C775.213 9.34863 776.968 10.8184 776.968 13.7578C777.264 14.054 777.412 15.2275 777.412 17.2783L776.968 18.167C776.968 18.4632 777.116 18.6113 777.412 18.6113L776.968 23.875V28.2842C776.968 30.0387 778.438 30.916 781.377 30.916C782.858 31.1439 783.599 31.5882 783.599 32.249V33.582C783.599 34.0605 782.573 34.6416 780.522 35.3252C778.494 35.029 776.877 34.8809 775.669 34.8809H774.336L771.704 32.6934C767.42 35.0404 764.481 36.2139 762.886 36.2139C758.784 34.6416 756.733 32.5908 756.733 30.0615C756.141 30.0615 755.845 29.1729 755.845 27.3955C755.845 25.1169 755.993 21.0039 756.289 15.0566L755.4 14.6465H754.067C753.407 14.6465 752.86 14.6237 752.427 14.5781C752.085 14.5326 751.914 14.054 751.914 13.1426C751.914 12.8919 751.925 12.6071 751.948 12.2881C752.062 10.8753 752.29 10.1689 752.632 10.1689H752.666Z" fill="white"/>
<path d="M801.133 9.79297H805.098C808.083 9.79297 810.874 12.7324 813.472 18.6113C813.472 19.9329 813.62 20.8102 813.916 21.2432C813.916 23.2939 810.396 24.3193 803.354 24.3193C802.853 24.6156 802.113 24.7637 801.133 24.7637C801.133 24.1712 800.837 23.875 800.244 23.875L794.98 25.208V26.7803C796.462 29.5374 798.809 31.1439 802.021 31.5996H802.466C805.36 29.8678 807.559 28.2614 809.062 26.7803C809.382 26.7575 809.689 26.7461 809.985 26.7461C812.606 26.7461 813.916 27.4069 813.916 28.7285C813.916 31.668 810.544 34.015 803.799 35.7695H798.057C791.882 33.4681 788.794 28.626 788.794 21.2432L791.904 14.2021C794.388 11.2627 797.464 9.79297 801.133 9.79297ZM795.527 16.3896C795.869 19.0785 796.382 20.4229 797.065 20.4229H799.595C805.314 20.2178 808.174 19.2152 808.174 17.415C808.174 15.0452 805.986 13.5299 801.611 12.8691C798.9 14.0996 796.872 15.2731 795.527 16.3896Z" fill="white"/>
<path d="M821.025 10.1689C821.39 10.2145 821.857 10.2373 822.427 10.2373L824.204 9.79297C827.44 9.79297 829.058 11.4108 829.058 14.6465V26.9512C829.058 28.4323 829.787 29.7539 831.245 30.916H833.022C838.309 27.8171 840.952 24.1484 840.952 19.9102C840.952 17.7454 841.089 16.1276 841.362 15.0566L840.063 14.2021H839.175L836.987 14.6465C836.395 13.6667 836.099 12.778 836.099 11.9805V11.0918C836.099 10.2259 837.42 9.64486 840.063 9.34863C843.573 9.34863 845.327 10.8184 845.327 13.7578C845.623 14.054 845.771 15.2275 845.771 17.2783L845.327 18.167C845.327 18.4632 845.475 18.6113 845.771 18.6113L845.327 23.875V28.2842C845.327 30.0387 846.797 30.916 849.736 30.916C851.217 31.1439 851.958 31.5882 851.958 32.249V33.582C851.958 34.0605 850.933 34.6416 848.882 35.3252C846.854 35.029 845.236 34.8809 844.028 34.8809H842.695L840.063 32.6934C835.78 35.0404 832.84 36.2139 831.245 36.2139C827.144 34.6416 825.093 32.5908 825.093 30.0615C824.5 30.0615 824.204 29.1729 824.204 27.3955C824.204 25.1169 824.352 21.0039 824.648 15.0566L823.76 14.6465H822.427C821.766 14.6465 821.219 14.6237 820.786 14.5781C820.444 14.5326 820.273 14.054 820.273 13.1426C820.273 12.8919 820.285 12.6071 820.308 12.2881C820.422 10.8753 820.649 10.1689 820.991 10.1689H821.025Z" fill="white"/>
<path d="M869.834 9.79297C871.839 9.79297 874.334 10.5221 877.319 11.9805C877.41 11.388 877.707 11.0918 878.208 11.0918H878.652C879.814 11.0918 880.396 13.4502 880.396 18.167L878.652 19.4658H877.764C874.893 15.3643 872.397 13.3135 870.278 13.3135C865.288 13.3135 862.793 14.7832 862.793 17.7227V18.167C862.793 19.124 864.548 19.7051 868.057 19.9102L872.021 19.4658C873.001 20.0583 873.89 20.3545 874.688 20.3545H877.764C880.111 22.4736 881.284 24.6725 881.284 26.9512L880.84 27.8398C880.84 28.1361 880.988 28.2842 881.284 28.2842C881.284 31.3831 879.518 33.582 875.986 34.8809C874.46 35.1771 873.001 35.3252 871.611 35.3252H869.39C868.022 35.3252 865.824 34.596 862.793 33.1377C862.314 34.2998 861.289 34.8809 859.717 34.8809H858.828C858.327 34.8809 857.734 34.0036 857.051 32.249L858.384 29.1729L857.939 26.5068V25.6523C858.031 25.0599 858.327 24.7637 858.828 24.7637H861.46C863.716 29.1615 866.655 31.3604 870.278 31.3604H873.799C876.442 29.4919 877.764 28.1702 877.764 27.3955C877.376 25.8232 876.647 24.6497 875.576 23.875C875.28 23.875 875.132 24.0231 875.132 24.3193L869.834 23.875H866.313C861.027 22.485 858.384 20.5824 858.384 18.167C858.384 13.2679 861.608 10.4766 868.057 9.79297H869.834Z" fill="white"/>
<path d="M903.672 9.79297H907.637C910.622 9.79297 913.413 12.7324 916.011 18.6113C916.011 19.9329 916.159 20.8102 916.455 21.2432C916.455 23.2939 912.935 24.3193 905.894 24.3193C905.392 24.6156 904.652 24.7637 903.672 24.7637C903.672 24.1712 903.376 23.875 902.783 23.875L897.52 25.208V26.7803C899.001 29.5374 901.348 31.1439 904.561 31.5996H905.005C907.899 29.8678 910.098 28.2614 911.602 26.7803C911.921 26.7575 912.228 26.7461 912.524 26.7461C915.145 26.7461 916.455 27.4069 916.455 28.7285C916.455 31.668 913.083 34.015 906.338 35.7695H900.596C894.421 33.4681 891.333 28.626 891.333 21.2432L894.443 14.2021C896.927 11.2627 900.003 9.79297 903.672 9.79297ZM898.066 16.3896C898.408 19.0785 898.921 20.4229 899.604 20.4229H902.134C907.853 20.2178 910.713 19.2152 910.713 17.415C910.713 15.0452 908.525 13.5299 904.15 12.8691C901.439 14.0996 899.411 15.2731 898.066 16.3896Z" fill="white"/>
<path d="M938.193 9.79297C940.199 9.79297 942.694 10.5221 945.679 11.9805C945.77 11.388 946.066 11.0918 946.567 11.0918H947.012C948.174 11.0918 948.755 13.4502 948.755 18.167L947.012 19.4658H946.123C943.252 15.3643 940.757 13.3135 938.638 13.3135C933.647 13.3135 931.152 14.7832 931.152 17.7227V18.167C931.152 19.124 932.907 19.7051 936.416 19.9102L940.381 19.4658C941.361 20.0583 942.249 20.3545 943.047 20.3545H946.123C948.47 22.4736 949.644 24.6725 949.644 26.9512L949.199 27.8398C949.199 28.1361 949.347 28.2842 949.644 28.2842C949.644 31.3831 947.878 33.582 944.346 34.8809C942.819 35.1771 941.361 35.3252 939.971 35.3252H937.749C936.382 35.3252 934.183 34.596 931.152 33.1377C930.674 34.2998 929.648 34.8809 928.076 34.8809H927.188C926.686 34.8809 926.094 34.0036 925.41 32.249L926.743 29.1729L926.299 26.5068V25.6523C926.39 25.0599 926.686 24.7637 927.188 24.7637H929.819C932.075 29.1615 935.015 31.3604 938.638 31.3604H942.158C944.801 29.4919 946.123 28.1702 946.123 27.3955C945.736 25.8232 945.007 24.6497 943.936 23.875C943.639 23.875 943.491 24.0231 943.491 24.3193L938.193 23.875H934.673C929.386 22.485 926.743 20.5824 926.743 18.167C926.743 13.2679 929.967 10.4766 936.416 9.79297H938.193Z" fill="white"/>
<path d="M962.625 31.8955C963.719 31.8955 964.797 32.5674 965.859 33.9111V35.1143C965.547 36.7288 964.875 37.5361 963.844 37.5361H961.625C960.552 36.984 960.016 35.9059 960.016 34.3018C960.016 33.2601 960.885 32.458 962.625 31.8955Z" fill="white"/>
<path d="M978.25 31.8955C979.344 31.8955 980.422 32.5674 981.484 33.9111V35.1143C981.172 36.7288 980.5 37.5361 979.469 37.5361H977.25C976.177 36.984 975.641 35.9059 975.641 34.3018C975.641 33.2601 976.51 32.458 978.25 31.8955Z" fill="white"/>
<path d="M993.875 31.8955C994.969 31.8955 996.047 32.5674 997.109 33.9111V35.1143C996.797 36.7288 996.125 37.5361 995.094 37.5361H992.875C991.802 36.984 991.266 35.9059 991.266 34.3018C991.266 33.2601 992.135 32.458 993.875 31.8955Z" fill="white"/>
</svg>
