<svg width="247" height="44" viewBox="0 0 247 44" fill="none" xmlns="http://www.w3.org/2000/svg">
<path d="M0.733398 0.791016C0.879883 0.488281 1.36816 0.336914 2.19824 0.336914H9.55176C11.3193 1.0791 12.2031 2.40234 12.2031 4.30664C12.2031 4.85352 11.8857 5.85938 11.251 7.32422C12.3838 8.05664 12.9502 9.12598 12.9502 10.5322C12.9502 12.7686 12.0078 14.2188 10.123 14.8828C9.64453 14.8828 9.01465 15.0098 8.2334 15.2637C7.16895 15.0098 6.53906 14.8828 6.34375 14.8828C5.97266 15.0098 5.78711 15.1367 5.78711 15.2637L5.02539 15.0732L3.70703 15.2637L2.00781 15.0732L0.865234 15.2637L0.499023 14.6924V14.502C0.577148 13.75 0.762695 13.374 1.05566 13.374H2.56445C3.27734 13.374 3.72168 13.0566 3.89746 12.4219C3.89746 12.334 3.83398 11.958 3.70703 11.2939L3.89746 10.5322C3.77051 10.1611 3.64355 9.97559 3.5166 9.97559L3.89746 6.38672C3.77051 5.72266 3.70703 5.09277 3.70703 4.49707C3.83398 2.93457 3.89746 2.11426 3.89746 2.03613L3.5166 1.8457H1.05566C0.967773 1.85547 0.879883 1.87012 0.791992 1.88965L0.733398 0.791016ZM5.02539 2.03613L5.21582 2.41699V2.60742C5.21582 3.125 5.15234 3.62793 5.02539 4.11621C5.02539 5.62988 5.40137 6.38672 6.15332 6.38672C9.30762 6.38672 10.8848 5.82031 10.8848 4.6875C10.5723 2.67578 9.75195 1.66992 8.42383 1.66992H5.59668L5.02539 2.03613ZM5.59668 7.70508C5.34277 9.30664 5.21582 10.249 5.21582 10.5322C5.30371 12.4268 5.49414 13.374 5.78711 13.374H7.85254C10.1182 13.374 11.251 12.5537 11.251 10.9131C11.3779 10.9131 11.4414 10.7227 11.4414 10.3418C10.9238 8.71094 10.1084 7.89551 8.99512 7.89551L8.61426 8.08594H6.91504L6.34375 7.70508H5.59668Z" fill="black"/>
<path d="M23.9365 3.94043H25.8262C26.7051 4.60449 27.335 5.35645 27.7158 6.19629C27.7158 7.83691 27.0859 8.65723 25.8262 8.65723C25.2402 8.65723 24.8008 7.90039 24.5078 6.38672C24.625 6.38672 24.6836 6.32324 24.6836 6.19629L23.9365 5.83008C21.5439 6.71875 20.3477 8.29102 20.3477 10.5469C20.4746 12.1094 20.5381 12.9248 20.5381 12.9932C22.6768 12.9932 23.7461 13.2471 23.7461 13.7549V14.3262C23.7461 14.5215 23.4922 14.7705 22.9844 15.0732H21.1094C20.6797 15.0732 20.3623 15.1367 20.1572 15.2637L19.0293 15.0732H16.1875C15.9922 15.0732 15.7432 14.8242 15.4404 14.3262V13.7549C15.4404 13.5303 15.8164 13.2178 16.5684 12.8174L17.5205 12.9932H17.8867L18.2676 12.8174C18.2676 12.5635 18.2041 12.4365 18.0771 12.4365C18.2041 11.1768 18.2676 10.2295 18.2676 9.59473V7.5293C18.2676 6.52344 17.8281 6.02051 16.9492 6.02051C15.9434 6.02051 15.4404 5.63965 15.4404 4.87793L16.3779 4.13086H18.2676C19.2246 4.13086 19.9814 4.57031 20.5381 5.44922C22.3447 4.44336 23.4775 3.94043 23.9365 3.94043Z" fill="black"/>
<path d="M36.0508 3.94043H37.75C39.0293 3.94043 40.2256 5.2002 41.3389 7.71973C41.3389 8.28613 41.4023 8.66211 41.5293 8.84766C41.5293 9.72656 40.0205 10.166 37.0029 10.166C36.7881 10.293 36.4707 10.3564 36.0508 10.3564C36.0508 10.1025 35.9238 9.97559 35.6699 9.97559L33.4141 10.5469V11.2207C34.0488 12.4023 35.0547 13.0908 36.4316 13.2861H36.6221C37.8623 12.5439 38.8047 11.8555 39.4492 11.2207C39.5859 11.2109 39.7178 11.2061 39.8447 11.2061C40.9678 11.2061 41.5293 11.4893 41.5293 12.0557C41.5293 13.3154 40.084 14.3213 37.1934 15.0732H34.7324C32.0859 14.0869 30.7627 12.0117 30.7627 8.84766L32.0957 5.83008C33.1602 4.57031 34.4785 3.94043 36.0508 3.94043ZM33.6484 6.76758C33.7949 7.91992 34.0146 8.49609 34.3076 8.49609H35.3916C37.8428 8.4082 39.0684 7.97852 39.0684 7.20703C39.0684 6.19141 38.1309 5.54199 36.2559 5.25879C35.0938 5.78613 34.2246 6.28906 33.6484 6.76758Z" fill="black"/>
<path d="M51.8418 0.0146484H53.9219C55.6797 0.541992 56.5586 1.35742 56.5586 2.46094V3.03223C56.2363 3.66699 55.7334 3.98438 55.0498 3.98438L54.0977 2.8418L54.2881 2.46094C54.0439 1.89453 53.7949 1.58203 53.541 1.52344H52.2227C51.4609 1.9043 50.8945 2.59766 50.5234 3.60352L50.8896 4.35059L52.7793 4.16016H53.3506C53.6338 4.16016 53.8242 4.47754 53.9219 5.1123C53.7266 5.61035 53.5361 5.85938 53.3506 5.85938H51.0801C50.7773 5.85938 50.5283 6.36719 50.333 7.38281L50.5234 8.32031V11.5283C50.5234 12.5342 50.9629 13.0371 51.8418 13.0371C53.4727 13.125 54.2881 13.3789 54.2881 13.7988V14.1797C54.2881 14.4238 53.5361 14.7363 52.0322 15.1172C51.8955 15.1172 51.7051 15.0537 51.4609 14.9268C49.8203 15.0537 48.4971 15.1172 47.4912 15.1172H46.7441C45.6113 15.1172 45.0449 14.6777 45.0449 13.7988C47.4375 13.2715 48.6338 12.832 48.6338 12.4805C48.7607 12.2559 48.8242 12.002 48.8242 11.7188V11.3379C48.8242 10.9961 48.6973 10.6201 48.4434 10.21C48.5898 8.9502 48.7754 8.32031 49 8.32031L48.6338 7.55859L48.8242 6.62109C48.6973 6.11328 48.3164 5.85938 47.6816 5.85938H45.792C45.6162 5.85938 45.4307 5.67383 45.2354 5.30273V4.92188C45.2354 4.59961 46.4902 4.22363 49 3.79395V2.65137C49 1.7627 49.9473 0.883789 51.8418 0.0146484Z" fill="black"/>
<path d="M65.7432 11.3379C66.2021 11.3379 66.7686 11.6504 67.4424 12.2754C67.4424 16.4648 66.373 18.9844 64.2344 19.834L63.8535 20.0244H63.4873C63.2334 20.0244 63.1064 19.8975 63.1064 19.6436V19.4531C63.1064 18.6133 63.5459 17.7979 64.4248 17.0068V16.2451C63.165 15.5908 62.5352 14.834 62.5352 13.9746V13.0371C62.9551 11.9043 64.0244 11.3379 65.7432 11.3379Z" fill="black"/>
<path d="M101.441 14.9854C100.934 14.8877 100.23 14.8047 99.332 14.7363C99.1172 14.7363 98.7412 14.8633 98.2041 15.1172L96.8711 14.7363L96.5049 14.9268C95.8701 14.7607 95.5527 14.5703 95.5527 14.3555V13.7842C95.8164 13.2861 96.1338 13.0371 96.5049 13.0371L96.8711 13.2275C97.4473 12.9834 97.7646 12.7295 97.8232 12.4658C97.8232 12.0459 97.6328 11.6064 97.252 11.1475C97.4375 11.1475 97.6279 10.957 97.8232 10.5762C97.8232 10.1953 97.7598 9.75586 97.6328 9.25781C97.7598 8.42773 97.8232 7.6123 97.8232 6.81152V6.62109C97.8232 6.39648 97.2568 6.14258 96.124 5.85938C93.8584 7.11914 92.7256 8.00293 92.7256 8.51074C92.4717 9.31152 92.3447 9.81445 92.3447 10.0195C92.5986 10.8496 92.7891 11.9189 92.916 13.2275H93.4727C94.2344 13.3057 94.6152 13.4912 94.6152 13.7842V14.165C94.6152 14.3506 94.4248 14.541 94.0439 14.7363H93.2969C92.3984 14.7363 91.7051 14.8633 91.2168 15.1172C90.9824 15.1172 90.4795 14.9902 89.708 14.7363L89.3271 14.9268C88.4482 14.7021 88.0088 14.4482 88.0088 14.165V13.7842C88.0869 13.4131 88.5898 13.2275 89.5176 13.2275H90.4551C90.709 12.2803 90.8359 11.3965 90.8359 10.5762V6.0498C90.6797 5.88379 90.1133 5.57129 89.1367 5.1123L88.9463 4.73145V4.54102C89.0244 4.16016 89.5273 3.96973 90.4551 3.96973C91.9688 4.09668 92.7256 4.53613 92.7256 5.28809C94.6885 4.40918 95.8848 3.96973 96.3145 3.96973C98.4531 4.06738 99.5225 4.95117 99.5225 6.62109C99.3955 8.125 99.332 9.25781 99.332 10.0195C99.332 10.6445 99.459 10.957 99.7129 10.957L99.5225 11.9092V12.6562C100.47 12.7832 101.163 13.0371 101.603 13.418H101.632L101.441 14.9854Z" fill="black"/>
<path d="M109.557 3.94043H110.318C111.559 3.94043 112.877 5.07324 114.273 7.33887C114.273 8.03223 114.464 8.78418 114.845 9.59473C114.845 12.1533 113.775 13.9795 111.637 15.0732C110.904 15.1514 110.338 15.3418 109.938 15.6445H108.985C105.841 14.6973 104.269 13.0615 104.269 10.7373V8.84766C105.245 5.57617 107.008 3.94043 109.557 3.94043ZM106.349 9.03809C106.349 11.4307 106.915 12.627 108.048 12.627C108.077 12.8223 108.58 13.0713 109.557 13.374C111.012 12.8467 112.018 12.0947 112.574 11.1182C112.447 10.4248 112.384 9.91699 112.384 9.59473L112.574 8.84766C112.262 7.83203 111.568 6.88965 110.494 6.02051H108.795C107.164 6.90918 106.349 7.91504 106.349 9.03809Z" fill="black"/>
<path d="M117.818 4.10156C117.975 4.12109 118.175 4.13086 118.419 4.13086L119.181 3.94043C120.567 3.94043 121.261 4.63379 121.261 6.02051V11.2939C121.261 11.9287 121.573 12.4951 122.198 12.9932H122.96C125.226 11.665 126.358 10.0928 126.358 8.27637C126.358 7.34863 126.417 6.65527 126.534 6.19629L125.978 5.83008H125.597L124.659 6.02051C124.405 5.60059 124.278 5.21973 124.278 4.87793V4.49707C124.278 4.12598 124.845 3.87695 125.978 3.75C127.481 3.75 128.233 4.37988 128.233 5.63965C128.36 5.7666 128.424 6.26953 128.424 7.14844L128.233 7.5293C128.233 7.65625 128.297 7.71973 128.424 7.71973L128.233 9.97559V11.8652C128.233 12.6172 128.863 12.9932 130.123 12.9932C130.758 13.0908 131.075 13.2812 131.075 13.5645V14.1357C131.075 14.3408 130.636 14.5898 129.757 14.8828C128.888 14.7559 128.194 14.6924 127.677 14.6924H127.105L125.978 13.7549C124.142 14.7607 122.882 15.2637 122.198 15.2637C120.44 14.5898 119.562 13.7109 119.562 12.627C119.308 12.627 119.181 12.2461 119.181 11.4844C119.181 10.5078 119.244 8.74512 119.371 6.19629L118.99 6.02051H118.419C118.136 6.02051 117.901 6.01074 117.716 5.99121C117.569 5.97168 117.496 5.7666 117.496 5.37598C117.496 5.26855 117.501 5.14648 117.511 5.00977C117.56 4.4043 117.657 4.10156 117.804 4.10156H117.818Z" fill="black"/>
<path d="M138.736 3.94043C139.596 3.94043 140.665 4.25293 141.944 4.87793C141.983 4.62402 142.11 4.49707 142.325 4.49707H142.516C143.014 4.49707 143.263 5.50781 143.263 7.5293L142.516 8.08594H142.135C140.904 6.32812 139.835 5.44922 138.927 5.44922C136.788 5.44922 135.719 6.0791 135.719 7.33887V7.5293C135.719 7.93945 136.471 8.18848 137.975 8.27637L139.674 8.08594C140.094 8.33984 140.475 8.4668 140.816 8.4668H142.135C143.141 9.375 143.644 10.3174 143.644 11.2939L143.453 11.6748C143.453 11.8018 143.517 11.8652 143.644 11.8652C143.644 13.1934 142.887 14.1357 141.373 14.6924C140.719 14.8193 140.094 14.8828 139.498 14.8828H138.546C137.96 14.8828 137.018 14.5703 135.719 13.9453C135.514 14.4434 135.074 14.6924 134.4 14.6924H134.02C133.805 14.6924 133.551 14.3164 133.258 13.5645L133.829 12.2461L133.639 11.1035V10.7373C133.678 10.4834 133.805 10.3564 134.02 10.3564H135.147C136.114 12.2412 137.374 13.1836 138.927 13.1836H140.436C141.568 12.3828 142.135 11.8164 142.135 11.4844C141.969 10.8105 141.656 10.3076 141.197 9.97559C141.07 9.97559 141.007 10.0391 141.007 10.166L138.736 9.97559H137.228C134.962 9.37988 133.829 8.56445 133.829 7.5293C133.829 5.42969 135.211 4.2334 137.975 3.94043H138.736Z" fill="black"/>
<path d="M168.033 3.94043C168.893 3.94043 169.962 4.25293 171.241 4.87793C171.28 4.62402 171.407 4.49707 171.622 4.49707H171.812C172.311 4.49707 172.56 5.50781 172.56 7.5293L171.812 8.08594H171.432C170.201 6.32812 169.132 5.44922 168.224 5.44922C166.085 5.44922 165.016 6.0791 165.016 7.33887V7.5293C165.016 7.93945 165.768 8.18848 167.271 8.27637L168.971 8.08594C169.391 8.33984 169.771 8.4668 170.113 8.4668H171.432C172.438 9.375 172.94 10.3174 172.94 11.2939L172.75 11.6748C172.75 11.8018 172.813 11.8652 172.94 11.8652C172.94 13.1934 172.184 14.1357 170.67 14.6924C170.016 14.8193 169.391 14.8828 168.795 14.8828H167.843C167.257 14.8828 166.314 14.5703 165.016 13.9453C164.811 14.4434 164.371 14.6924 163.697 14.6924H163.316C163.102 14.6924 162.848 14.3164 162.555 13.5645L163.126 12.2461L162.936 11.1035V10.7373C162.975 10.4834 163.102 10.3564 163.316 10.3564H164.444C165.411 12.2412 166.671 13.1836 168.224 13.1836H169.732C170.865 12.3828 171.432 11.8164 171.432 11.4844C171.266 10.8105 170.953 10.3076 170.494 9.97559C170.367 9.97559 170.304 10.0391 170.304 10.166L168.033 9.97559H166.524C164.259 9.37988 163.126 8.56445 163.126 7.5293C163.126 5.42969 164.508 4.2334 167.271 3.94043H168.033Z" fill="black"/>
<path d="M182.799 3.94043H183.561C184.801 3.94043 186.119 5.07324 187.516 7.33887C187.516 8.03223 187.706 8.78418 188.087 9.59473C188.087 12.1533 187.018 13.9795 184.879 15.0732C184.146 15.1514 183.58 15.3418 183.18 15.6445H182.228C179.083 14.6973 177.511 13.0615 177.511 10.7373V8.84766C178.487 5.57617 180.25 3.94043 182.799 3.94043ZM179.591 9.03809C179.591 11.4307 180.157 12.627 181.29 12.627C181.319 12.8223 181.822 13.0713 182.799 13.374C184.254 12.8467 185.26 12.0947 185.816 11.1182C185.689 10.4248 185.626 9.91699 185.626 9.59473L185.816 8.84766C185.504 7.83203 184.811 6.88965 183.736 6.02051H182.037C180.406 6.90918 179.591 7.91504 179.591 9.03809Z" fill="black"/>
<path d="M190.782 13.418C191.544 13.418 191.925 13.1006 191.925 12.4658C191.925 12.1826 191.861 11.9336 191.734 11.7188L192.115 7.17773C192.115 6.875 191.549 6.24512 190.416 5.28809C190.67 4.53613 190.919 4.16016 191.163 4.16016C191.29 4.16016 191.354 4.22363 191.354 4.35059L192.306 4.16016C193.185 4.33594 193.624 4.58984 193.624 4.92188C194.396 4.41406 195.025 4.16016 195.514 4.16016C196.031 4.16016 196.72 4.47754 197.579 5.1123H197.96L199.103 4.16016H200.23C201.393 4.16016 202.086 4.98047 202.311 6.62109V8.87695C202.311 11.6504 202.623 13.0371 203.248 13.0371C203.883 13.252 204.2 13.5645 204.2 13.9746C204.005 14.4824 203.814 14.7363 203.629 14.7363H203.058C202.335 14.7363 201.329 14.7998 200.04 14.9268C199.796 14.7998 199.605 14.7363 199.469 14.7363C198.971 14.834 198.722 14.9609 198.722 15.1172L196.832 14.9268H195.323C195.196 14.9268 195.133 14.8633 195.133 14.7363C194.908 14.8633 194.342 14.9902 193.434 15.1172L192.115 14.9268L191.163 15.3076C191.065 15.2197 190.88 15.1416 190.606 15.0732L190.533 13.418H190.782ZM193.624 8.51074C193.8 9.05762 194.049 9.56055 194.371 10.0195C194.156 10.0195 193.971 10.332 193.814 10.957C193.814 12.0898 194.19 12.7832 194.942 13.0371L196.114 12.4658L196.07 10.0195C196.07 9.56055 196.134 8.99414 196.261 8.32031C196.134 8.07617 196.07 7.88574 196.07 7.74902L196.261 6.62109L195.514 6.24023C195.133 6.31836 194.503 7.0752 193.624 8.51074ZM198.15 8.51074L198.341 9.44824C198.087 10.3467 197.96 10.8496 197.96 10.957C198.175 11.5234 198.59 12.2266 199.205 13.0664H199.762C200.572 12.207 200.978 11.5674 200.978 11.1475C200.802 11.1475 200.616 10.957 200.421 10.5762V9.06738C200.421 8.78418 200.484 8.53516 200.611 8.32031C200.484 8.00781 200.357 7.37793 200.23 6.43066H199.659C199.063 6.57715 198.561 7.27051 198.15 8.51074Z" fill="black"/>
<path d="M205.431 13.418C206.192 13.418 206.573 13.1006 206.573 12.4658C206.573 12.1826 206.51 11.9336 206.383 11.7188L206.764 7.17773C206.764 6.875 206.197 6.24512 205.064 5.28809C205.318 4.53613 205.567 4.16016 205.812 4.16016C205.938 4.16016 206.002 4.22363 206.002 4.35059L206.954 4.16016C207.833 4.33594 208.272 4.58984 208.272 4.92188C209.044 4.41406 209.674 4.16016 210.162 4.16016C210.68 4.16016 211.368 4.47754 212.228 5.1123H212.608L213.751 4.16016H214.879C216.041 4.16016 216.734 4.98047 216.959 6.62109V8.87695C216.959 11.6504 217.271 13.0371 217.896 13.0371C218.531 13.252 218.849 13.5645 218.849 13.9746C218.653 14.4824 218.463 14.7363 218.277 14.7363H217.706C216.983 14.7363 215.978 14.7998 214.688 14.9268C214.444 14.7998 214.254 14.7363 214.117 14.7363C213.619 14.834 213.37 14.9609 213.37 15.1172L211.48 14.9268H209.972C209.845 14.9268 209.781 14.8633 209.781 14.7363C209.557 14.8633 208.99 14.9902 208.082 15.1172L206.764 14.9268L205.812 15.3076C205.714 15.2197 205.528 15.1416 205.255 15.0732L205.182 13.418H205.431ZM208.272 8.51074C208.448 9.05762 208.697 9.56055 209.02 10.0195C208.805 10.0195 208.619 10.332 208.463 10.957C208.463 12.0898 208.839 12.7832 209.591 13.0371L210.763 12.4658L210.719 10.0195C210.719 9.56055 210.782 8.99414 210.909 8.32031C210.782 8.07617 210.719 7.88574 210.719 7.74902L210.909 6.62109L210.162 6.24023C209.781 6.31836 209.151 7.0752 208.272 8.51074ZM212.799 8.51074L212.989 9.44824C212.735 10.3467 212.608 10.8496 212.608 10.957C212.823 11.5234 213.238 12.2266 213.854 13.0664H214.41C215.221 12.207 215.626 11.5674 215.626 11.1475C215.45 11.1475 215.265 10.957 215.069 10.5762V9.06738C215.069 8.78418 215.133 8.53516 215.26 8.32031C215.133 8.00781 215.006 7.37793 214.879 6.43066H214.308C213.712 6.57715 213.209 7.27051 212.799 8.51074Z" fill="black"/>
<path d="M226.48 3.94043H228.18C229.459 3.94043 230.655 5.2002 231.769 7.71973C231.769 8.28613 231.832 8.66211 231.959 8.84766C231.959 9.72656 230.45 10.166 227.433 10.166C227.218 10.293 226.9 10.3564 226.48 10.3564C226.48 10.1025 226.354 9.97559 226.1 9.97559L223.844 10.5469V11.2207C224.479 12.4023 225.484 13.0908 226.861 13.2861H227.052C228.292 12.5439 229.234 11.8555 229.879 11.2207C230.016 11.2109 230.147 11.2061 230.274 11.2061C231.397 11.2061 231.959 11.4893 231.959 12.0557C231.959 13.3154 230.514 14.3213 227.623 15.0732H225.162C222.516 14.0869 221.192 12.0117 221.192 8.84766L222.525 5.83008C223.59 4.57031 224.908 3.94043 226.48 3.94043ZM224.078 6.76758C224.225 7.91992 224.444 8.49609 224.737 8.49609H225.821C228.272 8.4082 229.498 7.97852 229.498 7.20703C229.498 6.19141 228.561 5.54199 226.686 5.25879C225.523 5.78613 224.654 6.28906 224.078 6.76758Z" fill="black"/>
<path d="M241.275 3.94043C242.135 3.94043 243.204 4.25293 244.483 4.87793C244.522 4.62402 244.649 4.49707 244.864 4.49707H245.055C245.553 4.49707 245.802 5.50781 245.802 7.5293L245.055 8.08594H244.674C243.443 6.32812 242.374 5.44922 241.466 5.44922C239.327 5.44922 238.258 6.0791 238.258 7.33887V7.5293C238.258 7.93945 239.01 8.18848 240.514 8.27637L242.213 8.08594C242.633 8.33984 243.014 8.4668 243.355 8.4668H244.674C245.68 9.375 246.183 10.3174 246.183 11.2939L245.992 11.6748C245.992 11.8018 246.056 11.8652 246.183 11.8652C246.183 13.1934 245.426 14.1357 243.912 14.6924C243.258 14.8193 242.633 14.8828 242.037 14.8828H241.085C240.499 14.8828 239.557 14.5703 238.258 13.9453C238.053 14.4434 237.613 14.6924 236.939 14.6924H236.559C236.344 14.6924 236.09 14.3164 235.797 13.5645L236.368 12.2461L236.178 11.1035V10.7373C236.217 10.4834 236.344 10.3564 236.559 10.3564H237.687C238.653 12.2412 239.913 13.1836 241.466 13.1836H242.975C244.107 12.3828 244.674 11.8164 244.674 11.4844C244.508 10.8105 244.195 10.3076 243.736 9.97559C243.609 9.97559 243.546 10.0391 243.546 10.166L241.275 9.97559H239.767C237.501 9.37988 236.368 8.56445 236.368 7.5293C236.368 5.42969 237.75 4.2334 240.514 3.94043H241.275Z" fill="black"/>
<path d="M49.791 28.3516H50.1719C50.5527 28.4785 50.7432 28.8545 50.7432 29.4795V31.9404L50.9336 32.3213C52.1836 32.1943 53.126 32.1309 53.7607 32.1309H54.6982C54.9033 32.1309 55.1572 32.3799 55.46 32.8779V33.2588C55.0693 33.2686 54.4395 33.5225 53.5703 34.0205L52.6328 33.8301H52.0615C51.4072 33.8301 50.9678 34.1426 50.7432 34.7676C50.9873 35.1777 51.1094 35.5537 51.1094 35.8955L50.9336 36.2764C51.0508 36.501 51.1094 36.7549 51.1094 37.0381C50.8652 37.0771 50.7432 37.2041 50.7432 37.4189V37.7852C50.9873 40.0508 51.2998 41.1836 51.6807 41.1836H52.0615C53.3213 40.4121 53.9512 39.2158 53.9512 37.5947L54.8887 37.4189C55.2695 37.9072 55.46 38.2832 55.46 38.5469C55.46 41.5645 54.4541 43.0732 52.4424 43.0732H51.2998C49.542 42.5557 48.6631 41.3594 48.6631 39.4844L49.0439 38.7373C49.0439 38.6104 48.9805 38.5469 48.8535 38.5469L49.0439 37.2285V34.1963C48.917 33.8252 48.5361 33.6396 47.9014 33.6396C47.6963 33.6396 46.9443 33.7031 45.6455 33.8301L45.0742 32.8779C45.2598 32.3799 45.4502 32.1309 45.6455 32.1309H47.5352C47.8477 32.1309 48.4141 32.0039 49.2344 31.75V29.4795C49.3125 28.7275 49.498 28.3516 49.791 28.3516Z" fill="black"/>
<path d="M59.6201 35.3975L59.6641 35.002C59.6445 34.8848 59.6348 34.7725 59.6348 34.665C59.6348 33.4053 60.7041 32.4922 62.8428 31.9258C63.4092 31.9648 63.8877 31.9844 64.2783 31.9844C64.4053 31.9844 64.6348 31.9648 64.9668 31.9258C67.5254 32.0918 68.8047 32.9268 68.8047 34.4307C68.9316 34.6553 68.9951 34.9092 68.9951 35.1924C68.9951 35.3193 68.9316 35.3828 68.8047 35.3828L68.9951 36.7012V40.0996C68.9951 40.2754 69.1807 40.4609 69.5518 40.6562C69.8838 40.041 70.1377 39.7285 70.3135 39.7188H70.8848C71.1387 39.7773 71.3877 40.0898 71.6318 40.6562L71.4414 41.7988V41.9893C70.9531 42.4287 70.3232 42.7412 69.5518 42.9268H68.6143C68.6143 42.7021 68.0479 42.5117 66.915 42.3555L63.9854 43.1465L63.2236 42.9561L62.2715 43.1904C60.1816 42.5654 59.1367 41.6279 59.1367 40.3779C59.1367 40.3096 59.1416 40.2461 59.1514 40.1875C59.1416 40.0801 59.1367 39.9727 59.1367 39.8652C59.1367 38.8496 59.5908 37.9219 60.499 37.082L61.4951 36.7158L62.9453 36.5547C64.0781 36.5254 64.7715 36.5107 65.0254 36.5107C65.1523 36.5303 65.2695 36.54 65.377 36.54C66.2656 36.54 66.7783 36.0273 66.915 35.002C66.8955 34.3965 66.1289 33.9131 64.6152 33.5518C64.2051 33.7959 63.8926 33.918 63.6777 33.918L62.5498 33.7275C62.5498 33.9814 62.4326 34.1523 62.1982 34.2402C62.1982 34.6406 62.3594 34.9775 62.6816 35.251C62.8184 35.3193 62.8867 35.3975 62.8867 35.4854C62.8867 35.8076 62.0713 36.2178 60.4404 36.7158L59.6201 35.3975ZM63.1357 38.3564H62.5352C62.3984 38.3564 62.2715 38.3271 62.1543 38.2686C61.5391 38.8936 61.2314 39.3379 61.2314 39.6016V40.6709C61.4951 41.0322 61.7539 41.2129 62.0078 41.2129C62.1641 41.2129 62.3203 41.1445 62.4766 41.0078C63.6387 41.1348 64.3711 41.1982 64.6738 41.1982H65.2891C66.0703 40.6318 66.6123 40.0068 66.915 39.3232V39.0596C66.8662 38.5518 66.4609 38.2002 65.6992 38.0049C64.3125 38.1807 63.458 38.2979 63.1357 38.3564Z" fill="black"/>
<path d="M79.0879 28.3516H79.4688C79.8496 28.4785 80.04 28.8545 80.04 29.4795V31.9404L80.2305 32.3213C81.4805 32.1943 82.4229 32.1309 83.0576 32.1309H83.9951C84.2002 32.1309 84.4541 32.3799 84.7568 32.8779V33.2588C84.3662 33.2686 83.7363 33.5225 82.8672 34.0205L81.9297 33.8301H81.3584C80.7041 33.8301 80.2646 34.1426 80.04 34.7676C80.2842 35.1777 80.4062 35.5537 80.4062 35.8955L80.2305 36.2764C80.3477 36.501 80.4062 36.7549 80.4062 37.0381C80.1621 37.0771 80.04 37.2041 80.04 37.4189V37.7852C80.2842 40.0508 80.5967 41.1836 80.9775 41.1836H81.3584C82.6182 40.4121 83.248 39.2158 83.248 37.5947L84.1855 37.4189C84.5664 37.9072 84.7568 38.2832 84.7568 38.5469C84.7568 41.5645 83.751 43.0732 81.7393 43.0732H80.5967C78.8389 42.5557 77.96 41.3594 77.96 39.4844L78.3408 38.7373C78.3408 38.6104 78.2773 38.5469 78.1504 38.5469L78.3408 37.2285V34.1963C78.2139 33.8252 77.833 33.6396 77.1982 33.6396C76.9932 33.6396 76.2412 33.7031 74.9424 33.8301L74.3711 32.8779C74.5566 32.3799 74.7471 32.1309 74.9424 32.1309H76.832C77.1445 32.1309 77.7109 32.0039 78.5312 31.75V29.4795C78.6094 28.7275 78.7949 28.3516 79.0879 28.3516Z" fill="black"/>
<path d="M94.9082 31.9404H95.6699C96.9102 31.9404 98.2285 33.0732 99.625 35.3389C99.625 36.0322 99.8154 36.7842 100.196 37.5947C100.196 40.1533 99.127 41.9795 96.9883 43.0732C96.2559 43.1514 95.6895 43.3418 95.2891 43.6445H94.3369C91.1924 42.6973 89.6201 41.0615 89.6201 38.7373V36.8477C90.5967 33.5762 92.3594 31.9404 94.9082 31.9404ZM91.7002 37.0381C91.7002 39.4307 92.2666 40.627 93.3994 40.627C93.4287 40.8223 93.9316 41.0713 94.9082 41.374C96.3633 40.8467 97.3691 40.0947 97.9258 39.1182C97.7988 38.4248 97.7354 37.917 97.7354 37.5947L97.9258 36.8477C97.6133 35.832 96.9199 34.8896 95.8457 34.0205H94.1465C92.5156 34.9092 91.7002 35.915 91.7002 37.0381Z" fill="black"/>
<path d="M103.17 32.1016C103.326 32.1211 103.526 32.1309 103.771 32.1309L104.532 31.9404C105.919 31.9404 106.612 32.6338 106.612 34.0205V39.2939C106.612 39.9287 106.925 40.4951 107.55 40.9932H108.312C110.577 39.665 111.71 38.0928 111.71 36.2764C111.71 35.3486 111.769 34.6553 111.886 34.1963L111.329 33.8301H110.948L110.011 34.0205C109.757 33.6006 109.63 33.2197 109.63 32.8779V32.4971C109.63 32.126 110.196 31.877 111.329 31.75C112.833 31.75 113.585 32.3799 113.585 33.6396C113.712 33.7666 113.775 34.2695 113.775 35.1484L113.585 35.5293C113.585 35.6562 113.648 35.7197 113.775 35.7197L113.585 37.9756V39.8652C113.585 40.6172 114.215 40.9932 115.475 40.9932C116.109 41.0908 116.427 41.2812 116.427 41.5645V42.1357C116.427 42.3408 115.987 42.5898 115.108 42.8828C114.239 42.7559 113.546 42.6924 113.028 42.6924H112.457L111.329 41.7549C109.493 42.7607 108.233 43.2637 107.55 43.2637C105.792 42.5898 104.913 41.7109 104.913 40.627C104.659 40.627 104.532 40.2461 104.532 39.4844C104.532 38.5078 104.596 36.7451 104.723 34.1963L104.342 34.0205H103.771C103.487 34.0205 103.253 34.0107 103.067 33.9912C102.921 33.9717 102.848 33.7666 102.848 33.376C102.848 33.2686 102.853 33.1465 102.862 33.0098C102.911 32.4043 103.009 32.1016 103.155 32.1016H103.17Z" fill="black"/>
<path d="M123.941 31.9404H125.641C126.92 31.9404 128.116 33.2002 129.229 35.7197C129.229 36.2861 129.293 36.6621 129.42 36.8477C129.42 37.7266 127.911 38.166 124.894 38.166C124.679 38.293 124.361 38.3564 123.941 38.3564C123.941 38.1025 123.814 37.9756 123.561 37.9756L121.305 38.5469V39.2207C121.939 40.4023 122.945 41.0908 124.322 41.2861H124.513C125.753 40.5439 126.695 39.8555 127.34 39.2207C127.477 39.2109 127.608 39.2061 127.735 39.2061C128.858 39.2061 129.42 39.4893 129.42 40.0557C129.42 41.3154 127.975 42.3213 125.084 43.0732H122.623C119.977 42.0869 118.653 40.0117 118.653 36.8477L119.986 33.8301C121.051 32.5703 122.369 31.9404 123.941 31.9404ZM121.539 34.7676C121.686 35.9199 121.905 36.4961 122.198 36.4961H123.282C125.733 36.4082 126.959 35.9785 126.959 35.207C126.959 34.1914 126.021 33.542 124.146 33.2588C122.984 33.7861 122.115 34.2891 121.539 34.7676Z" fill="black"/>
<path d="M132.467 32.1016C132.623 32.1211 132.823 32.1309 133.067 32.1309L133.829 31.9404C135.216 31.9404 135.909 32.6338 135.909 34.0205V39.2939C135.909 39.9287 136.222 40.4951 136.847 40.9932H137.608C139.874 39.665 141.007 38.0928 141.007 36.2764C141.007 35.3486 141.065 34.6553 141.183 34.1963L140.626 33.8301H140.245L139.308 34.0205C139.054 33.6006 138.927 33.2197 138.927 32.8779V32.4971C138.927 32.126 139.493 31.877 140.626 31.75C142.13 31.75 142.882 32.3799 142.882 33.6396C143.009 33.7666 143.072 34.2695 143.072 35.1484L142.882 35.5293C142.882 35.6562 142.945 35.7197 143.072 35.7197L142.882 37.9756V39.8652C142.882 40.6172 143.512 40.9932 144.771 40.9932C145.406 41.0908 145.724 41.2812 145.724 41.5645V42.1357C145.724 42.3408 145.284 42.5898 144.405 42.8828C143.536 42.7559 142.843 42.6924 142.325 42.6924H141.754L140.626 41.7549C138.79 42.7607 137.53 43.2637 136.847 43.2637C135.089 42.5898 134.21 41.7109 134.21 40.627C133.956 40.627 133.829 40.2461 133.829 39.4844C133.829 38.5078 133.893 36.7451 134.02 34.1963L133.639 34.0205H133.067C132.784 34.0205 132.55 34.0107 132.364 33.9912C132.218 33.9717 132.145 33.7666 132.145 33.376C132.145 33.2686 132.149 33.1465 132.159 33.0098C132.208 32.4043 132.306 32.1016 132.452 32.1016H132.467Z" fill="black"/>
<path d="M153.385 31.9404C154.244 31.9404 155.313 32.2529 156.593 32.8779C156.632 32.624 156.759 32.4971 156.974 32.4971H157.164C157.662 32.4971 157.911 33.5078 157.911 35.5293L157.164 36.0859H156.783C155.553 34.3281 154.483 33.4492 153.575 33.4492C151.437 33.4492 150.367 34.0791 150.367 35.3389V35.5293C150.367 35.9395 151.119 36.1885 152.623 36.2764L154.322 36.0859C154.742 36.3398 155.123 36.4668 155.465 36.4668H156.783C157.789 37.375 158.292 38.3174 158.292 39.2939L158.102 39.6748C158.102 39.8018 158.165 39.8652 158.292 39.8652C158.292 41.1934 157.535 42.1357 156.021 42.6924C155.367 42.8193 154.742 42.8828 154.146 42.8828H153.194C152.608 42.8828 151.666 42.5703 150.367 41.9453C150.162 42.4434 149.723 42.6924 149.049 42.6924H148.668C148.453 42.6924 148.199 42.3164 147.906 41.5645L148.478 40.2461L148.287 39.1035V38.7373C148.326 38.4834 148.453 38.3564 148.668 38.3564H149.796C150.763 40.2412 152.022 41.1836 153.575 41.1836H155.084C156.217 40.3828 156.783 39.8164 156.783 39.4844C156.617 38.8105 156.305 38.3076 155.846 37.9756C155.719 37.9756 155.655 38.0391 155.655 38.166L153.385 37.9756H151.876C149.61 37.3799 148.478 36.5645 148.478 35.5293C148.478 33.4297 149.859 32.2334 152.623 31.9404H153.385Z" fill="black"/>
<path d="M167.887 31.9404H169.586C170.865 31.9404 172.062 33.2002 173.175 35.7197C173.175 36.2861 173.238 36.6621 173.365 36.8477C173.365 37.7266 171.856 38.166 168.839 38.166C168.624 38.293 168.307 38.3564 167.887 38.3564C167.887 38.1025 167.76 37.9756 167.506 37.9756L165.25 38.5469V39.2207C165.885 40.4023 166.891 41.0908 168.268 41.2861H168.458C169.698 40.5439 170.641 39.8555 171.285 39.2207C171.422 39.2109 171.554 39.2061 171.681 39.2061C172.804 39.2061 173.365 39.4893 173.365 40.0557C173.365 41.3154 171.92 42.3213 169.029 43.0732H166.568C163.922 42.0869 162.599 40.0117 162.599 36.8477L163.932 33.8301C164.996 32.5703 166.314 31.9404 167.887 31.9404ZM165.484 34.7676C165.631 35.9199 165.851 36.4961 166.144 36.4961H167.228C169.679 36.4082 170.904 35.9785 170.904 35.207C170.904 34.1914 169.967 33.542 168.092 33.2588C166.93 33.7861 166.061 34.2891 165.484 34.7676Z" fill="black"/>
<path d="M182.682 31.9404C183.541 31.9404 184.61 32.2529 185.89 32.8779C185.929 32.624 186.056 32.4971 186.271 32.4971H186.461C186.959 32.4971 187.208 33.5078 187.208 35.5293L186.461 36.0859H186.08C184.85 34.3281 183.78 33.4492 182.872 33.4492C180.733 33.4492 179.664 34.0791 179.664 35.3389V35.5293C179.664 35.9395 180.416 36.1885 181.92 36.2764L183.619 36.0859C184.039 36.3398 184.42 36.4668 184.762 36.4668H186.08C187.086 37.375 187.589 38.3174 187.589 39.2939L187.398 39.6748C187.398 39.8018 187.462 39.8652 187.589 39.8652C187.589 41.1934 186.832 42.1357 185.318 42.6924C184.664 42.8193 184.039 42.8828 183.443 42.8828H182.491C181.905 42.8828 180.963 42.5703 179.664 41.9453C179.459 42.4434 179.02 42.6924 178.346 42.6924H177.965C177.75 42.6924 177.496 42.3164 177.203 41.5645L177.774 40.2461L177.584 39.1035V38.7373C177.623 38.4834 177.75 38.3564 177.965 38.3564H179.093C180.06 40.2412 181.319 41.1836 182.872 41.1836H184.381C185.514 40.3828 186.08 39.8164 186.08 39.4844C185.914 38.8105 185.602 38.3076 185.143 37.9756C185.016 37.9756 184.952 38.0391 184.952 38.166L182.682 37.9756H181.173C178.907 37.3799 177.774 36.5645 177.774 35.5293C177.774 33.4297 179.156 32.2334 181.92 31.9404H182.682Z" fill="black"/>
<path d="M192.276 41.8428C192.618 41.8428 192.955 42.0527 193.287 42.4727V42.8486C193.189 43.3532 192.979 43.6055 192.657 43.6055H191.964C191.629 43.4329 191.461 43.096 191.461 42.5947C191.461 42.2692 191.733 42.0186 192.276 41.8428Z" fill="black"/>
<path d="M197.159 41.8428C197.501 41.8428 197.838 42.0527 198.17 42.4727V42.8486C198.072 43.3532 197.862 43.6055 197.54 43.6055H196.847C196.511 43.4329 196.344 43.096 196.344 42.5947C196.344 42.2692 196.616 42.0186 197.159 41.8428Z" fill="black"/>
<path d="M202.042 41.8428C202.384 41.8428 202.721 42.0527 203.053 42.4727V42.8486C202.955 43.3532 202.745 43.6055 202.423 43.6055H201.729C201.394 43.4329 201.227 43.096 201.227 42.5947C201.227 42.2692 201.498 42.0186 202.042 41.8428Z" fill="black"/>
</svg>
