<svg width="144" height="16" viewBox="0 0 144 16" fill="none" xmlns="http://www.w3.org/2000/svg">
<path d="M4.88281 0.410156C5.57617 0.537109 6.0791 0.600586 6.3916 0.600586C6.64551 0.600586 8.03223 0.537109 10.5518 0.410156C11.3916 0.410156 12.0215 1.04004 12.4414 2.2998L12.251 2.66602C12.3779 3.34961 12.4414 3.91602 12.4414 4.36523V4.74609C12.4414 4.93164 12.251 5.12207 11.8701 5.31738H11.6797C11.2695 5.31738 10.957 4.43359 10.7422 2.66602C10.4883 2.16797 10.2979 1.91895 10.1709 1.91895C9.91699 1.91895 9.79004 1.98242 9.79004 2.10938L7.91504 1.91895H6.02539C5.14648 1.91895 4.70703 2.3584 4.70703 3.2373V3.61816C4.70703 4.06738 4.76562 4.63379 4.88281 5.31738C4.76562 5.53223 4.70703 5.78125 4.70703 6.06445C4.82422 6.30859 4.88281 6.49902 4.88281 6.63574H6.21582C7.34863 6.63574 7.91504 5.94238 7.91504 4.55566L8.28125 4.36523C8.91602 4.51172 9.2334 5.01953 9.2334 5.88867C9.2334 6.01562 9.16992 6.20117 9.04297 6.44531C9.16992 7.12891 9.2334 7.69531 9.2334 8.14453V9.65332C9.2334 9.8584 8.97949 10.1123 8.47168 10.415H8.28125C7.91016 10.3369 7.72461 9.83398 7.72461 8.90625V8.52539L6.3916 8.14453H5.64453C5.44922 8.14453 5.19531 8.39844 4.88281 8.90625V9.65332L5.07324 11.9238H4.88281C5.03906 12.627 5.29297 13.1299 5.64453 13.4326C5.77148 13.4326 5.83496 13.3691 5.83496 13.2422L7.15332 13.4326C7.57324 13.4326 7.88574 13.3691 8.09082 13.2422C8.59863 13.3691 9.04297 13.4326 9.42383 13.4326C10.5566 12.9541 11.123 11.8213 11.123 10.0342L11.6797 9.65332H12.0605C12.3535 9.65332 12.5439 10.0977 12.6318 10.9863C12.6318 13.4961 12.251 14.751 11.4893 14.751C11.2744 14.8779 11.0254 14.9414 10.7422 14.9414H5.83496C4.58496 14.9414 3.07617 15.0049 1.30859 15.1318C0.800781 14.9463 0.546875 14.7559 0.546875 14.5605V14.0039C0.546875 13.6914 1.30371 13.4375 2.81738 13.2422C3.18848 12.8027 3.37402 11.8604 3.37402 10.415C3.37402 10.1416 3.31055 9.44824 3.18359 8.33496C3.31055 8.09082 3.37402 7.90039 3.37402 7.76367C3.37402 7.64648 3.31055 7.58789 3.18359 7.58789L3.37402 6.63574V2.2998C3.2959 1.91895 2.79297 1.72852 1.86523 1.72852L0.927734 1.91895L0.737305 1.53809V0.966797L0.927734 0.600586C1.05469 0.600586 1.24023 0.664062 1.48438 0.791016C1.89453 0.791016 3.02734 0.664062 4.88281 0.410156Z" fill="white"/>
<path d="M14.7705 13.418C15.5322 13.418 15.9131 13.1006 15.9131 12.4658C15.9131 12.1826 15.8496 11.9336 15.7227 11.7188L16.1035 7.17773C16.1035 6.875 15.5371 6.24512 14.4043 5.28809C14.6582 4.53613 14.9072 4.16016 15.1514 4.16016C15.2783 4.16016 15.3418 4.22363 15.3418 4.35059L16.2939 4.16016C17.1729 4.33594 17.6123 4.58984 17.6123 4.92188C18.3838 4.41406 19.0137 4.16016 19.502 4.16016C20.0195 4.16016 20.708 4.47754 21.5674 5.1123H21.9482L23.0908 4.16016H24.2188C25.3809 4.16016 26.0742 4.98047 26.2988 6.62109V8.87695C26.2988 11.6504 26.6113 13.0371 27.2363 13.0371C27.8711 13.252 28.1885 13.5645 28.1885 13.9746C27.9932 14.4824 27.8027 14.7363 27.6172 14.7363H27.0459C26.3232 14.7363 25.3174 14.7998 24.0283 14.9268C23.7842 14.7998 23.5938 14.7363 23.457 14.7363C22.959 14.834 22.71 14.9609 22.71 15.1172L20.8203 14.9268H19.3115C19.1846 14.9268 19.1211 14.8633 19.1211 14.7363C18.8965 14.8633 18.3301 14.9902 17.4219 15.1172L16.1035 14.9268L15.1514 15.3076C15.0537 15.2197 14.8682 15.1416 14.5947 15.0732L14.5215 13.418H14.7705ZM17.6123 8.51074C17.7881 9.05762 18.0371 9.56055 18.3594 10.0195C18.1445 10.0195 17.959 10.332 17.8027 10.957C17.8027 12.0898 18.1787 12.7832 18.9307 13.0371L20.1025 12.4658L20.0586 10.0195C20.0586 9.56055 20.1221 8.99414 20.249 8.32031C20.1221 8.07617 20.0586 7.88574 20.0586 7.74902L20.249 6.62109L19.502 6.24023C19.1211 6.31836 18.4912 7.0752 17.6123 8.51074ZM22.1387 8.51074L22.3291 9.44824C22.0752 10.3467 21.9482 10.8496 21.9482 10.957C22.1631 11.5234 22.5781 12.2266 23.1934 13.0664H23.75C24.5605 12.207 24.9658 11.5674 24.9658 11.1475C24.79 11.1475 24.6045 10.957 24.4092 10.5762V9.06738C24.4092 8.78418 24.4727 8.53516 24.5996 8.32031C24.4727 8.00781 24.3457 7.37793 24.2188 6.43066H23.6475C23.0518 6.57715 22.5488 7.27051 22.1387 8.51074Z" fill="white"/>
<path d="M29.4189 13.418C30.1807 13.418 30.5615 13.1006 30.5615 12.4658C30.5615 12.1826 30.498 11.9336 30.3711 11.7188L30.752 7.17773C30.752 6.875 30.1855 6.24512 29.0527 5.28809C29.3066 4.53613 29.5557 4.16016 29.7998 4.16016C29.9268 4.16016 29.9902 4.22363 29.9902 4.35059L30.9424 4.16016C31.8213 4.33594 32.2607 4.58984 32.2607 4.92188C33.0322 4.41406 33.6621 4.16016 34.1504 4.16016C34.668 4.16016 35.3564 4.47754 36.2158 5.1123H36.5967L37.7393 4.16016H38.8672C40.0293 4.16016 40.7227 4.98047 40.9473 6.62109V8.87695C40.9473 11.6504 41.2598 13.0371 41.8848 13.0371C42.5195 13.252 42.8369 13.5645 42.8369 13.9746C42.6416 14.4824 42.4512 14.7363 42.2656 14.7363H41.6943C40.9717 14.7363 39.9658 14.7998 38.6768 14.9268C38.4326 14.7998 38.2422 14.7363 38.1055 14.7363C37.6074 14.834 37.3584 14.9609 37.3584 15.1172L35.4688 14.9268H33.96C33.833 14.9268 33.7695 14.8633 33.7695 14.7363C33.5449 14.8633 32.9785 14.9902 32.0703 15.1172L30.752 14.9268L29.7998 15.3076C29.7021 15.2197 29.5166 15.1416 29.2432 15.0732L29.1699 13.418H29.4189ZM32.2607 8.51074C32.4365 9.05762 32.6855 9.56055 33.0078 10.0195C32.793 10.0195 32.6074 10.332 32.4512 10.957C32.4512 12.0898 32.8271 12.7832 33.5791 13.0371L34.751 12.4658L34.707 10.0195C34.707 9.56055 34.7705 8.99414 34.8975 8.32031C34.7705 8.07617 34.707 7.88574 34.707 7.74902L34.8975 6.62109L34.1504 6.24023C33.7695 6.31836 33.1396 7.0752 32.2607 8.51074ZM36.7871 8.51074L36.9775 9.44824C36.7236 10.3467 36.5967 10.8496 36.5967 10.957C36.8115 11.5234 37.2266 12.2266 37.8418 13.0664H38.3984C39.209 12.207 39.6143 11.5674 39.6143 11.1475C39.4385 11.1475 39.2529 10.957 39.0576 10.5762V9.06738C39.0576 8.78418 39.1211 8.53516 39.248 8.32031C39.1211 8.00781 38.9941 7.37793 38.8672 6.43066H38.2959C37.7002 6.57715 37.1973 7.27051 36.7871 8.51074Z" fill="white"/>
<path d="M44.7412 7.39746L44.7852 7.00195C44.7656 6.88477 44.7559 6.77246 44.7559 6.66504C44.7559 5.40527 45.8252 4.49219 47.9639 3.92578C48.5303 3.96484 49.0088 3.98438 49.3994 3.98438C49.5264 3.98438 49.7559 3.96484 50.0879 3.92578C52.6465 4.0918 53.9258 4.92676 53.9258 6.43066C54.0527 6.65527 54.1162 6.90918 54.1162 7.19238C54.1162 7.31934 54.0527 7.38281 53.9258 7.38281L54.1162 8.70117V12.0996C54.1162 12.2754 54.3018 12.4609 54.6729 12.6562C55.0049 12.041 55.2588 11.7285 55.4346 11.7188H56.0059C56.2598 11.7773 56.5088 12.0898 56.7529 12.6562L56.5625 13.7988V13.9893C56.0742 14.4287 55.4443 14.7412 54.6729 14.9268H53.7354C53.7354 14.7021 53.1689 14.5117 52.0361 14.3555L49.1064 15.1465L48.3447 14.9561L47.3926 15.1904C45.3027 14.5654 44.2578 13.6279 44.2578 12.3779C44.2578 12.3096 44.2627 12.2461 44.2725 12.1875C44.2627 12.0801 44.2578 11.9727 44.2578 11.8652C44.2578 10.8496 44.7119 9.92188 45.6201 9.08203L46.6162 8.71582L48.0664 8.55469C49.1992 8.52539 49.8926 8.51074 50.1465 8.51074C50.2734 8.53027 50.3906 8.54004 50.498 8.54004C51.3867 8.54004 51.8994 8.02734 52.0361 7.00195C52.0166 6.39648 51.25 5.91309 49.7363 5.55176C49.3262 5.7959 49.0137 5.91797 48.7988 5.91797L47.6709 5.72754C47.6709 5.98145 47.5537 6.15234 47.3193 6.24023C47.3193 6.64062 47.4805 6.97754 47.8027 7.25098C47.9395 7.31934 48.0078 7.39746 48.0078 7.48535C48.0078 7.80762 47.1924 8.21777 45.5615 8.71582L44.7412 7.39746ZM48.2568 10.3564H47.6562C47.5195 10.3564 47.3926 10.3271 47.2754 10.2686C46.6602 10.8936 46.3525 11.3379 46.3525 11.6016V12.6709C46.6162 13.0322 46.875 13.2129 47.1289 13.2129C47.2852 13.2129 47.4414 13.1445 47.5977 13.0078C48.7598 13.1348 49.4922 13.1982 49.7949 13.1982H50.4102C51.1914 12.6318 51.7334 12.0068 52.0361 11.3232V11.0596C51.9873 10.5518 51.582 10.2002 50.8203 10.0049C49.4336 10.1807 48.5791 10.2979 48.2568 10.3564Z" fill="white"/>
<path d="M71.9141 14.9854C71.4062 14.8877 70.7031 14.8047 69.8047 14.7363C69.5898 14.7363 69.2139 14.8633 68.6768 15.1172L67.3438 14.7363L66.9775 14.9268C66.3428 14.7607 66.0254 14.5703 66.0254 14.3555V13.7842C66.2891 13.2861 66.6064 13.0371 66.9775 13.0371L67.3438 13.2275C67.9199 12.9834 68.2373 12.7295 68.2959 12.4658C68.2959 12.0459 68.1055 11.6064 67.7246 11.1475C67.9102 11.1475 68.1006 10.957 68.2959 10.5762C68.2959 10.1953 68.2324 9.75586 68.1055 9.25781C68.2324 8.42773 68.2959 7.6123 68.2959 6.81152V6.62109C68.2959 6.39648 67.7295 6.14258 66.5967 5.85938C64.3311 7.11914 63.1982 8.00293 63.1982 8.51074C62.9443 9.31152 62.8174 9.81445 62.8174 10.0195C63.0713 10.8496 63.2617 11.9189 63.3887 13.2275H63.9453C64.707 13.3057 65.0879 13.4912 65.0879 13.7842V14.165C65.0879 14.3506 64.8975 14.541 64.5166 14.7363H63.7695C62.8711 14.7363 62.1777 14.8633 61.6895 15.1172C61.4551 15.1172 60.9521 14.9902 60.1807 14.7363L59.7998 14.9268C58.9209 14.7021 58.4814 14.4482 58.4814 14.165V13.7842C58.5596 13.4131 59.0625 13.2275 59.9902 13.2275H60.9277C61.1816 12.2803 61.3086 11.3965 61.3086 10.5762V6.0498C61.1523 5.88379 60.5859 5.57129 59.6094 5.1123L59.4189 4.73145V4.54102C59.4971 4.16016 60 3.96973 60.9277 3.96973C62.4414 4.09668 63.1982 4.53613 63.1982 5.28809C65.1611 4.40918 66.3574 3.96973 66.7871 3.96973C68.9258 4.06738 69.9951 4.95117 69.9951 6.62109C69.8682 8.125 69.8047 9.25781 69.8047 10.0195C69.8047 10.6445 69.9316 10.957 70.1855 10.957L69.9951 11.9092V12.6562C70.9424 12.7832 71.6357 13.0371 72.0752 13.418H72.1045L71.9141 14.9854Z" fill="white"/>
<path d="M73.6426 4.10156C73.7988 4.12109 73.999 4.13086 74.2432 4.13086L75.0049 3.94043C76.3916 3.94043 77.085 4.63379 77.085 6.02051V11.2939C77.085 11.9287 77.3975 12.4951 78.0225 12.9932H78.7842C81.0498 11.665 82.1826 10.0928 82.1826 8.27637C82.1826 7.34863 82.2412 6.65527 82.3584 6.19629L81.8018 5.83008H81.4209L80.4834 6.02051C80.2295 5.60059 80.1025 5.21973 80.1025 4.87793V4.49707C80.1025 4.12598 80.6689 3.87695 81.8018 3.75C83.3057 3.75 84.0576 4.37988 84.0576 5.63965C84.1846 5.7666 84.248 6.26953 84.248 7.14844L84.0576 7.5293C84.0576 7.65625 84.1211 7.71973 84.248 7.71973L84.0576 9.97559V11.8652C84.0576 12.6172 84.6875 12.9932 85.9473 12.9932C86.582 13.0908 86.8994 13.2812 86.8994 13.5645V14.1357C86.8994 14.3408 86.46 14.5898 85.5811 14.8828C84.7119 14.7559 84.0186 14.6924 83.501 14.6924H82.9297L81.8018 13.7549C79.9658 14.7607 78.7061 15.2637 78.0225 15.2637C76.2646 14.5898 75.3857 13.7109 75.3857 12.627C75.1318 12.627 75.0049 12.2461 75.0049 11.4844C75.0049 10.5078 75.0684 8.74512 75.1953 6.19629L74.8145 6.02051H74.2432C73.96 6.02051 73.7256 6.01074 73.54 5.99121C73.3936 5.97168 73.3203 5.7666 73.3203 5.37598C73.3203 5.26855 73.3252 5.14648 73.335 5.00977C73.3838 4.4043 73.4814 4.10156 73.6279 4.10156H73.6426Z" fill="white"/>
<path d="M94.4141 3.94043H96.1133C97.3926 3.94043 98.5889 5.2002 99.7021 7.71973C99.7021 8.28613 99.7656 8.66211 99.8926 8.84766C99.8926 9.72656 98.3838 10.166 95.3662 10.166C95.1514 10.293 94.834 10.3564 94.4141 10.3564C94.4141 10.1025 94.2871 9.97559 94.0332 9.97559L91.7773 10.5469V11.2207C92.4121 12.4023 93.418 13.0908 94.7949 13.2861H94.9854C96.2256 12.5439 97.168 11.8555 97.8125 11.2207C97.9492 11.2109 98.0811 11.2061 98.208 11.2061C99.3311 11.2061 99.8926 11.4893 99.8926 12.0557C99.8926 13.3154 98.4473 14.3213 95.5566 15.0732H93.0957C90.4492 14.0869 89.126 12.0117 89.126 8.84766L90.459 5.83008C91.5234 4.57031 92.8418 3.94043 94.4141 3.94043ZM92.0117 6.76758C92.1582 7.91992 92.3779 8.49609 92.6709 8.49609H93.7549C96.2061 8.4082 97.4316 7.97852 97.4316 7.20703C97.4316 6.19141 96.4941 5.54199 94.6191 5.25879C93.457 5.78613 92.5879 6.28906 92.0117 6.76758Z" fill="white"/>
<path d="M106.294 0.205078C109.067 0.302734 110.454 0.742188 110.454 1.52344C110.454 2.07031 110.327 2.57324 110.073 3.03223C110.073 3.15918 110.137 3.22266 110.264 3.22266L110.073 5.1123V11.5283C110.493 12.5342 110.811 13.0371 111.025 13.0371H112.725C113.008 13.0371 113.257 12.9736 113.472 12.8467C113.95 12.8467 114.453 13.2275 114.98 13.9893V14.1797C114.482 14.8047 113.916 15.1172 113.281 15.1172H111.963C111.152 15.1172 110.332 15.0537 109.502 14.9268L108.374 15.1172C108.12 15.1172 107.993 15.0537 107.993 14.9268L106.675 15.1172H104.785C104.111 15.1172 103.672 14.8633 103.467 14.3555V13.9893C103.789 13.3545 104.292 13.0371 104.976 13.0371H106.675L107.993 12.8467V10.4004C108.247 8.55469 108.374 7.54883 108.374 7.38281V6.43066C108.374 5.7373 108.311 4.8584 108.184 3.79395C108.311 3.5791 108.374 3.26172 108.374 2.8418C105.942 2.2168 104.561 1.9043 104.229 1.9043L103.848 1.33301V0.952148C103.848 0.708008 104.663 0.458984 106.294 0.205078Z" fill="white"/>
<path d="M120.942 0.205078C123.716 0.302734 125.103 0.742188 125.103 1.52344C125.103 2.07031 124.976 2.57324 124.722 3.03223C124.722 3.15918 124.785 3.22266 124.912 3.22266L124.722 5.1123V11.5283C125.142 12.5342 125.459 13.0371 125.674 13.0371H127.373C127.656 13.0371 127.905 12.9736 128.12 12.8467C128.599 12.8467 129.102 13.2275 129.629 13.9893V14.1797C129.131 14.8047 128.564 15.1172 127.93 15.1172H126.611C125.801 15.1172 124.98 15.0537 124.15 14.9268L123.022 15.1172C122.769 15.1172 122.642 15.0537 122.642 14.9268L121.323 15.1172H119.434C118.76 15.1172 118.32 14.8633 118.115 14.3555V13.9893C118.438 13.3545 118.94 13.0371 119.624 13.0371H121.323L122.642 12.8467V10.4004C122.896 8.55469 123.022 7.54883 123.022 7.38281V6.43066C123.022 5.7373 122.959 4.8584 122.832 3.79395C122.959 3.5791 123.022 3.26172 123.022 2.8418C120.591 2.2168 119.209 1.9043 118.877 1.9043L118.496 1.33301V0.952148C118.496 0.708008 119.312 0.458984 120.942 0.205078Z" fill="white"/>
<path d="M138.359 3.94043H140.059C141.338 3.94043 142.534 5.2002 143.647 7.71973C143.647 8.28613 143.711 8.66211 143.838 8.84766C143.838 9.72656 142.329 10.166 139.312 10.166C139.097 10.293 138.779 10.3564 138.359 10.3564C138.359 10.1025 138.232 9.97559 137.979 9.97559L135.723 10.5469V11.2207C136.357 12.4023 137.363 13.0908 138.74 13.2861H138.931C140.171 12.5439 141.113 11.8555 141.758 11.2207C141.895 11.2109 142.026 11.2061 142.153 11.2061C143.276 11.2061 143.838 11.4893 143.838 12.0557C143.838 13.3154 142.393 14.3213 139.502 15.0732H137.041C134.395 14.0869 133.071 12.0117 133.071 8.84766L134.404 5.83008C135.469 4.57031 136.787 3.94043 138.359 3.94043ZM135.957 6.76758C136.104 7.91992 136.323 8.49609 136.616 8.49609H137.7C140.151 8.4082 141.377 7.97852 141.377 7.20703C141.377 6.19141 140.439 5.54199 138.564 5.25879C137.402 5.78613 136.533 6.28906 135.957 6.76758Z" fill="white"/>
</svg>
