<svg width="759" height="425" viewBox="0 0 759 425" fill="none" xmlns="http://www.w3.org/2000/svg">
<g filter="url(#filter0_d_1487_1237)">
<path d="M2 0H757V405C757 413.284 750.284 420 742 420H17C8.71572 420 2 413.284 2 405V0Z" fill="black" fill-opacity="0.2"/>
<path d="M2 0H757V405C757 413.284 750.284 420 742 420H17C8.71572 420 2 413.284 2 405V0Z" fill="white"/>
<path d="M264.187 201.426C269.222 201.124 274.156 200.167 278.99 198.555C283.824 197.044 288.506 195.13 293.038 192.812C297.569 190.495 301.95 187.926 306.179 185.106C310.509 182.386 314.588 179.565 318.414 176.643C314.689 179.867 310.812 182.889 306.783 185.71C302.755 188.632 298.526 191.251 294.095 193.568C289.765 195.885 285.284 197.85 280.652 199.462C276.019 201.073 271.236 202.232 266.302 202.937C259.857 203.743 253.563 203.491 247.42 202.182C241.378 200.973 236.092 198.101 231.56 193.568C228.74 194.576 225.468 195.533 221.742 196.439C218.117 197.346 214.391 197.799 210.564 197.799C206.838 197.9 203.263 197.346 199.839 196.137C196.416 195.029 193.596 192.913 191.38 189.79C189.669 187.574 188.511 185.156 187.906 182.537C187.302 179.917 187 177.298 187 174.679C187 169.843 187.755 165.058 189.266 160.323C190.776 155.487 192.74 150.853 195.157 146.421C197.775 141.686 200.897 137.303 204.522 133.274C208.147 129.244 212.074 125.567 216.304 122.242C220.533 118.918 225.015 115.996 229.747 113.478C234.48 110.858 239.364 108.541 244.399 106.526C243.594 106.023 242.788 105.368 241.983 104.562C241.278 103.756 240.774 102.799 240.472 101.691H239.566C237.149 101.892 234.279 101.792 230.956 101.389C227.633 100.986 224.511 100.18 221.591 98.9708C218.771 97.6611 216.405 95.8981 214.491 93.6818C212.679 91.3647 211.923 88.3928 212.226 84.7661C212.628 81.1393 213.887 77.9156 216.002 75.0948C218.117 72.1732 220.684 69.6547 223.705 67.5391C226.726 65.3227 230.05 63.5094 233.675 62.099C237.3 60.6886 240.774 59.6308 244.097 58.9256C247.32 58.2204 249.837 57.9181 251.65 58.0189C253.462 58.1196 254.671 58.3715 255.275 58.7745C256.081 59.2782 256.383 59.8826 256.181 60.5878C256.081 61.1923 255.678 61.7967 254.973 62.4012C254.268 62.9049 253.462 63.3583 252.556 63.7612C251.65 64.0634 250.895 64.2146 250.29 64.2146C250.794 64.2146 251.297 63.8116 251.801 63.0057C252.405 62.1997 252.657 61.5449 252.556 61.0412C252.355 59.933 251.297 59.3285 249.384 59.2278C247.571 59.1271 245.457 59.3789 243.04 59.9834C240.724 60.4871 238.357 61.1419 235.941 61.9479C233.624 62.7538 231.812 63.5094 230.503 64.2146C228.187 65.3227 226.022 66.7331 224.008 68.4457C221.993 70.0576 220.282 71.9214 218.872 74.037C217.361 76.354 216.254 78.6711 215.549 80.9882C214.944 83.2045 214.844 85.3705 215.247 87.4861C215.649 89.501 216.556 91.3647 217.965 93.0773C219.476 94.7899 221.691 96.2507 224.612 97.4596C227.029 98.4671 229.496 99.1722 232.013 99.5752C234.631 99.9782 237.25 100.18 239.868 100.18C239.364 98.1648 239.314 96.15 239.717 94.1351C240.22 92.0195 240.875 90.055 241.68 88.2417C242.687 86.2268 243.846 84.4135 245.155 82.8016C246.564 81.1897 248.125 79.6786 249.837 78.2682C252.455 76.0518 255.527 73.7851 259.051 71.468C262.677 69.151 266.453 67.1361 270.38 65.4235C274.408 63.6101 278.487 62.2501 282.615 61.3434C286.744 60.4367 290.621 60.2352 294.246 60.7389C297.167 61.1419 299.181 62.4012 300.288 64.5168C301.396 66.5316 301.446 68.9998 300.439 71.9214C299.634 74.3392 298.325 76.5555 296.512 78.5704C294.699 80.5852 292.786 82.3986 290.772 84.0105C284.327 89.1484 277.329 93.2284 269.776 96.2507C262.324 99.1722 253.765 100.885 244.097 101.389C244.198 101.59 244.399 101.943 244.702 102.446C245.104 102.849 245.507 103.252 245.91 103.655C246.313 104.058 246.716 104.411 247.118 104.713C247.622 105.015 248.025 105.116 248.327 105.015C250.039 104.31 251.751 103.706 253.462 103.202C255.275 102.698 257.088 102.144 258.9 101.54C261.821 100.734 264.791 100.079 267.812 99.5752C270.934 98.9708 274.005 98.6182 277.026 98.5174C277.329 98.5174 277.832 98.5174 278.537 98.5174C279.242 98.5174 279.947 98.5678 280.652 98.6685C281.357 98.7693 281.961 98.9708 282.464 99.273C283.068 99.4745 283.371 99.8774 283.371 100.482C283.371 101.993 282.464 103.303 280.652 104.411C278.94 105.519 276.926 106.476 274.61 107.282C272.294 107.987 269.977 108.541 267.661 108.944C265.345 109.347 263.633 109.599 262.526 109.7C259.907 109.901 257.188 109.901 254.369 109.7C251.549 109.498 248.931 108.844 246.514 107.735C246.313 107.635 246.162 107.584 246.061 107.584C245.96 107.484 245.809 107.484 245.608 107.584C243.292 108.39 241.026 109.448 238.811 110.758C236.696 111.967 234.531 113.276 232.315 114.687C227.784 117.407 223.504 120.53 219.476 124.056C215.448 127.481 211.772 131.259 208.449 135.389C205.126 139.419 202.206 143.801 199.688 148.536C197.171 153.17 195.257 158.107 193.948 163.345C193.344 165.662 192.841 168.131 192.438 170.75C192.035 173.369 191.934 175.938 192.136 178.457C192.337 181.076 192.891 183.494 193.797 185.71C194.804 188.027 196.416 189.992 198.631 191.604C200.846 193.316 203.263 194.475 205.881 195.079C208.5 195.684 211.219 195.936 214.038 195.835C216.858 195.835 219.677 195.482 222.497 194.777C225.417 194.173 228.187 193.467 230.805 192.661C227.985 189.639 225.921 186.163 224.612 182.235C223.403 178.406 222.799 174.427 222.799 170.297C222.799 165.159 223.554 160.122 225.065 155.185C226.575 150.249 228.69 145.615 231.409 141.283C234.128 136.951 237.401 133.072 241.227 129.647C245.054 126.121 249.334 123.35 254.067 121.336C256.282 120.328 258.749 119.472 261.468 118.767C264.187 118.061 266.856 117.709 269.474 117.709C272.193 117.608 274.761 118.011 277.177 118.918C279.594 119.824 281.659 121.386 283.371 123.602C284.881 125.516 285.787 127.632 286.089 129.949C286.492 132.165 286.492 134.483 286.089 136.9C285.787 139.217 285.183 141.585 284.277 144.003C283.471 146.32 282.615 148.536 281.709 150.652C279.393 155.487 276.573 159.92 273.25 163.95C269.927 167.979 266.302 171.707 262.374 175.132C258.246 178.658 253.865 181.832 249.233 184.652C244.701 187.574 239.969 190.092 235.034 192.208C238.861 196.036 243.342 198.605 248.478 199.915C253.714 201.325 258.951 201.829 264.187 201.426ZM262.072 71.7703C260.26 72.9792 258.145 74.6414 255.728 76.757C253.311 78.8726 251.096 81.2401 249.082 83.8594C247.169 86.3779 245.608 89.0476 244.399 91.8684C243.292 94.6892 243.04 97.4596 243.644 100.18C251.096 100.18 258.397 98.6182 265.547 95.4951C272.797 92.3721 279.544 88.3928 285.787 83.5571C287.801 81.9453 289.765 80.283 291.678 78.5704C293.692 76.757 295.404 74.7422 296.814 72.5258C298.224 70.2087 298.778 67.942 298.476 65.7257C298.174 63.5094 296.311 62.1493 292.887 61.6456C290.269 61.2427 287.6 61.293 284.881 61.7967C282.263 62.1997 279.594 62.9049 276.875 63.9123C274.257 64.9198 271.689 66.1287 269.172 67.5391C266.654 68.8487 264.288 70.2591 262.072 71.7703ZM278.537 99.1219C273.804 99.1219 269.071 99.7767 264.338 101.086C259.706 102.396 254.822 103.958 249.686 105.771C251.398 106.778 253.311 107.484 255.426 107.886C257.642 108.189 259.857 108.34 262.072 108.34C264.388 108.239 266.654 107.987 268.87 107.584C271.085 107.081 273.149 106.526 275.063 105.922C275.667 105.721 276.624 105.318 277.933 104.713C279.343 104.008 280.45 103.303 281.256 102.597C282.162 101.792 282.515 101.086 282.313 100.482C282.112 99.7767 280.853 99.3234 278.537 99.1219ZM234.279 191.452C239.616 189.538 244.802 186.768 249.837 183.141C254.973 179.615 259.656 175.485 263.885 170.75C268.215 165.914 271.891 160.726 274.912 155.185C278.033 149.544 280.198 143.751 281.407 137.807C281.91 135.591 282.011 133.374 281.709 131.158C281.508 128.841 280.702 126.776 279.292 124.962C277.58 122.948 275.415 121.537 272.797 120.731C270.279 119.925 267.762 119.573 265.244 119.673C260.109 119.875 255.225 121.336 250.592 124.056C245.96 126.776 241.983 130.05 238.659 133.878C235.336 137.807 232.718 142.139 230.805 146.874C228.891 151.508 227.582 156.394 226.877 161.532C226.173 166.67 226.324 171.908 227.331 177.248C228.338 182.688 230.654 187.423 234.279 191.452Z" fill="black"/>
<path d="M335.704 159.416C334.898 160.625 333.891 162.086 332.683 163.799C331.474 165.411 330.115 167.073 328.604 168.785C327.195 170.397 325.634 171.908 323.922 173.319C322.311 174.628 320.699 175.586 319.088 176.19C317.477 176.593 316.47 176.291 316.067 175.283C315.765 174.276 315.765 173.017 316.067 171.505C316.369 169.894 316.974 167.879 317.88 165.461C318.786 163.043 319.592 160.676 320.297 158.359C321.102 156.041 321.606 153.976 321.807 152.163C322.109 150.35 321.857 149.191 321.052 148.687C320.548 148.587 319.692 148.788 318.484 149.292C317.376 149.795 316.168 150.501 314.859 151.407C313.55 152.314 312.341 153.321 311.234 154.43C310.126 155.437 309.32 156.344 308.817 157.15C308.313 157.956 307.608 159.366 306.702 161.381C305.896 163.295 305.04 165.31 304.134 167.425C303.228 169.541 302.372 171.455 301.566 173.168C300.861 174.88 300.408 175.888 300.207 176.19C299.905 176.694 299.804 176.543 299.905 175.737C300.005 174.83 300.257 173.571 300.66 171.959C301.063 170.347 301.566 168.433 302.171 166.216C302.875 164 303.631 161.733 304.436 159.416C305.645 155.79 306.199 153.17 306.098 151.558C306.098 149.947 305.846 148.989 305.343 148.687C304.738 148.486 303.782 148.687 302.473 149.292C301.264 149.795 299.955 150.551 298.545 151.558C297.135 152.566 295.776 153.674 294.467 154.883C293.259 155.991 292.352 157.049 291.748 158.056C291.144 159.064 290.439 160.524 289.633 162.439C288.828 164.252 288.022 166.166 287.216 168.181C286.411 170.095 285.706 171.858 285.102 173.47C284.498 174.981 284.044 175.888 283.742 176.19C283.339 176.694 283.289 176.341 283.591 175.132C283.793 173.823 284.195 172.11 284.8 169.994C285.404 167.879 286.109 165.562 286.914 163.043C287.72 160.524 288.475 158.258 289.18 156.243C289.684 154.933 290.036 153.926 290.237 153.221C290.54 152.515 290.993 151.407 291.597 149.896C291.798 149.392 291.748 149.09 291.446 148.989C291.244 148.788 290.993 148.738 290.691 148.838C290.288 148.939 289.835 149.09 289.331 149.292C291.547 147.378 293.057 146.421 293.863 146.421C294.769 146.421 295.222 146.924 295.222 147.932C295.222 148.838 294.92 150.047 294.316 151.558C293.812 152.969 293.359 154.127 292.956 155.034C293.863 154.127 295.121 153.12 296.733 152.012C298.344 150.803 299.955 149.695 301.566 148.687C303.278 147.68 304.839 146.975 306.249 146.572C307.759 146.169 308.817 146.269 309.421 146.874C310.025 147.478 310.277 148.536 310.176 150.047C310.176 151.458 309.924 153.07 309.421 154.883C310.327 153.976 311.536 152.969 313.046 151.861C314.557 150.652 316.118 149.594 317.729 148.687C319.34 147.68 320.8 146.975 322.109 146.572C323.519 146.169 324.526 146.269 325.13 146.874C325.835 147.579 326.037 148.738 325.734 150.349C325.432 151.961 324.929 153.825 324.224 155.941C323.62 157.956 322.865 160.122 321.958 162.439C321.153 164.756 320.548 166.922 320.146 168.937C319.642 171.153 319.592 172.563 319.995 173.168C320.498 173.772 321.203 173.873 322.109 173.47C323.016 172.966 324.123 172.11 325.432 170.901C326.741 169.591 328.051 168.181 329.36 166.67C330.669 165.159 331.877 163.648 332.985 162.136C334.093 160.524 334.949 159.215 335.553 158.207L335.704 159.416Z" fill="black"/>
<path d="M381.432 159.416C380.627 160.625 379.62 162.086 378.411 163.799C377.203 165.411 375.843 167.073 374.333 168.785C372.923 170.397 371.362 171.908 369.65 173.319C368.039 174.628 366.428 175.586 364.817 176.19C363.205 176.593 362.198 176.291 361.796 175.283C361.493 174.276 361.493 173.017 361.796 171.505C362.098 169.894 362.702 167.879 363.608 165.461C364.514 163.043 365.32 160.676 366.025 158.359C366.831 156.041 367.334 153.976 367.535 152.163C367.838 150.35 367.586 149.191 366.78 148.687C366.277 148.587 365.421 148.788 364.212 149.292C363.105 149.795 361.896 150.501 360.587 151.407C359.278 152.314 358.07 153.321 356.962 154.43C355.854 155.437 355.049 156.344 354.545 157.15C354.042 157.956 353.337 159.366 352.43 161.381C351.625 163.295 350.769 165.31 349.863 167.425C348.956 169.541 348.1 171.455 347.295 173.168C346.59 174.88 346.137 175.888 345.935 176.19C345.633 176.694 345.532 176.543 345.633 175.737C345.734 174.83 345.986 173.571 346.388 171.959C346.791 170.347 347.295 168.433 347.899 166.216C348.604 164 349.359 161.733 350.165 159.416C351.373 155.79 351.927 153.17 351.826 151.558C351.826 149.947 351.574 148.989 351.071 148.687C350.467 148.486 349.51 148.687 348.201 149.292C346.993 149.795 345.683 150.551 344.274 151.558C342.864 152.566 341.504 153.674 340.195 154.883C338.987 155.991 338.081 157.049 337.476 158.056C336.872 159.064 336.167 160.524 335.362 162.439C334.556 164.252 333.75 166.166 332.945 168.181C332.139 170.095 331.434 171.858 330.83 173.47C330.226 174.981 329.773 175.888 329.471 176.19C329.068 176.694 329.017 176.341 329.32 175.132C329.521 173.823 329.924 172.11 330.528 169.994C331.132 167.879 331.837 165.562 332.643 163.043C333.448 160.524 334.204 158.258 334.908 156.243C335.412 154.933 335.764 153.926 335.966 153.221C336.268 152.515 336.721 151.407 337.325 149.896C337.527 149.392 337.476 149.09 337.174 148.989C336.973 148.788 336.721 148.738 336.419 148.838C336.016 148.939 335.563 149.09 335.06 149.292C337.275 147.378 338.785 146.421 339.591 146.421C340.497 146.421 340.951 146.924 340.951 147.932C340.951 148.838 340.648 150.047 340.044 151.558C339.541 152.969 339.088 154.127 338.685 155.034C339.591 154.127 340.85 153.12 342.461 152.012C344.072 150.803 345.683 149.695 347.295 148.687C349.007 147.68 350.567 146.975 351.977 146.572C353.488 146.169 354.545 146.269 355.149 146.874C355.753 147.478 356.005 148.536 355.905 150.047C355.905 151.458 355.653 153.07 355.149 154.883C356.056 153.976 357.264 152.969 358.775 151.861C360.285 150.652 361.846 149.594 363.457 148.687C365.068 147.68 366.528 146.975 367.838 146.572C369.247 146.169 370.254 146.269 370.859 146.874C371.564 147.579 371.765 148.738 371.463 150.349C371.161 151.961 370.657 153.825 369.952 155.941C369.348 157.956 368.593 160.122 367.687 162.439C366.881 164.756 366.277 166.922 365.874 168.937C365.37 171.153 365.32 172.563 365.723 173.168C366.226 173.772 366.931 173.873 367.838 173.47C368.744 172.966 369.852 172.11 371.161 170.901C372.47 169.591 373.779 168.181 375.088 166.67C376.397 165.159 377.606 163.648 378.713 162.136C379.821 160.524 380.677 159.215 381.281 158.207L381.432 159.416Z" fill="black"/>
<path d="M414.623 158.661C414.12 159.467 413.163 160.827 411.753 162.741C410.444 164.655 408.934 166.619 407.222 168.634C405.51 170.649 403.697 172.462 401.784 174.074C399.971 175.586 398.36 176.341 396.95 176.341C395.742 176.341 394.936 175.686 394.534 174.377C394.231 173.067 394.483 170.7 395.289 167.274L396.648 162.741C395.742 164.856 394.433 166.871 392.721 168.785C391.009 170.599 389.247 172.16 387.434 173.47C385.621 174.679 383.859 175.535 382.147 176.039C380.435 176.442 379.076 176.291 378.069 175.586C377.062 174.88 376.558 173.47 376.558 171.354C376.558 169.239 377.364 166.216 378.975 162.287C379.68 160.676 380.586 159.064 381.694 157.452C382.903 155.739 384.161 154.178 385.47 152.767C386.88 151.357 388.29 150.148 389.7 149.141C391.21 148.032 392.671 147.226 394.08 146.723C395.49 146.219 397.001 146.068 398.612 146.269C400.324 146.471 401.583 147.327 402.388 148.838C403.395 147.226 404.301 146.37 405.107 146.269C405.913 146.068 406.517 146.269 406.92 146.874C407.423 147.478 407.725 148.284 407.826 149.292C407.927 150.198 407.826 150.954 407.524 151.558C407.524 151.055 407.474 150.652 407.373 150.349C407.171 149.644 406.668 149.644 405.862 150.349C404.755 151.256 403.798 152.616 402.992 154.43C402.187 156.243 401.482 158.056 400.878 159.87C400.273 161.683 399.77 163.345 399.367 164.856C399.065 166.267 398.864 167.123 398.763 167.425C398.159 169.642 398.058 171.203 398.461 172.11C398.864 172.916 399.569 173.168 400.576 172.865C401.683 172.563 402.892 171.808 404.201 170.599C405.51 169.39 406.819 168.03 408.128 166.519C409.437 164.907 410.646 163.345 411.753 161.834C412.861 160.222 413.717 158.862 414.321 157.754L414.623 158.661ZM398.461 157.452C400.374 153.422 400.878 150.551 399.971 148.838C399.065 147.126 397.504 146.521 395.289 147.025C393.073 147.529 390.606 149.191 387.887 152.012C385.168 154.833 382.903 158.812 381.09 163.95C379.882 167.476 379.731 169.994 380.637 171.505C381.644 173.017 383.104 173.52 385.017 173.017C387.031 172.513 389.297 171.002 391.815 168.483C394.332 165.864 396.548 162.187 398.461 157.452Z" fill="black"/>
<path d="M444.364 159.416C443.659 160.524 442.702 161.985 441.494 163.799C440.285 165.511 438.926 167.274 437.415 169.088C435.905 170.8 434.344 172.362 432.733 173.772C431.122 175.082 429.611 175.888 428.201 176.19C426.691 176.492 425.684 176.19 425.18 175.283C424.677 174.276 424.526 173.017 424.727 171.505C425.029 169.894 425.583 167.879 426.389 165.461C427.295 162.942 428.151 160.524 428.957 158.207C429.762 155.89 430.316 153.825 430.618 152.012C430.92 150.198 430.618 149.09 429.712 148.687C429.108 148.587 428.101 148.939 426.691 149.745C425.382 150.45 423.972 151.357 422.461 152.465C421.052 153.573 419.743 154.681 418.534 155.79C417.326 156.898 416.57 157.653 416.268 158.056C415.664 159.064 414.959 160.524 414.154 162.439C413.348 164.252 412.542 166.166 411.737 168.181C411.032 170.095 410.327 171.858 409.622 173.47C409.018 174.981 408.565 175.888 408.263 176.19C407.86 176.694 407.809 176.341 408.112 175.132C408.313 173.823 408.665 172.11 409.169 169.994C409.773 167.879 410.478 165.562 411.284 163.043C412.089 160.524 412.895 158.258 413.7 156.243C413.902 155.638 414.154 154.984 414.456 154.278C414.859 153.473 415.161 152.767 415.362 152.163C415.664 151.458 415.916 150.702 416.117 149.896C416.319 149.392 416.268 149.04 415.966 148.838C415.765 148.637 415.513 148.587 415.211 148.687C414.808 148.788 414.355 148.989 413.852 149.292C416.168 147.378 417.729 146.471 418.534 146.572C419.34 146.672 419.692 147.226 419.591 148.234C419.591 149.241 419.289 150.501 418.685 152.012C418.182 153.422 417.728 154.581 417.326 155.487C417.728 154.883 418.685 153.976 420.196 152.767C421.706 151.558 423.368 150.4 425.18 149.292C426.993 148.184 428.705 147.327 430.316 146.723C432.028 146.118 433.186 146.118 433.79 146.723C434.495 147.428 434.747 148.536 434.546 150.047C434.445 151.558 434.143 153.271 433.639 155.185C433.136 157.099 432.481 159.164 431.676 161.381C430.971 163.496 430.316 165.612 429.712 167.728C429.108 170.145 429.007 171.707 429.41 172.412C429.813 173.117 430.467 173.268 431.373 172.865C432.28 172.462 433.387 171.606 434.697 170.297C436.006 168.987 437.264 167.576 438.473 166.065C439.782 164.554 440.99 163.043 442.098 161.532C443.206 159.92 444.011 158.661 444.515 157.754L444.364 159.416Z" fill="black"/>
<path d="M475.794 159.416C474.989 160.827 473.881 162.439 472.471 164.252C471.061 166.065 469.5 167.879 467.789 169.692C466.077 171.606 464.365 173.268 462.653 174.679C461.042 175.988 459.682 176.543 458.574 176.341C457.467 176.442 456.711 175.837 456.309 174.528C455.906 173.117 456.107 170.7 456.913 167.274L457.366 165.461C457.668 164.252 458.272 162.439 459.179 160.021C458.071 161.431 456.711 163.144 455.1 165.159C453.489 167.174 451.827 169.088 450.116 170.901C448.404 172.614 446.692 174.024 444.98 175.132C443.268 176.24 441.757 176.643 440.448 176.341C439.038 175.938 438.384 174.88 438.485 173.168C438.485 171.455 438.837 169.541 439.542 167.425C440.247 165.31 441.103 163.245 442.11 161.23C443.117 159.114 443.872 157.502 444.376 156.394C444.879 155.286 445.483 154.027 446.188 152.616C446.994 151.206 447.447 150.249 447.548 149.745C447.648 149.241 447.548 148.939 447.246 148.838C447.044 148.637 446.792 148.587 446.49 148.687C446.088 148.788 445.634 148.939 445.131 149.141C447.346 147.327 448.907 146.421 449.813 146.421C450.72 146.421 451.173 146.924 451.173 147.932C451.274 148.838 451.022 150.047 450.418 151.558C449.914 152.969 449.411 154.178 448.907 155.185C446.49 160.021 444.728 164.05 443.62 167.274C442.613 170.397 442.664 172.412 443.771 173.319C444.275 173.823 445.282 173.47 446.792 172.261C448.303 171.052 449.914 169.541 451.626 167.728C453.338 165.813 455 163.899 456.611 161.985C458.222 159.97 459.38 158.459 460.085 157.452C460.588 156.344 461.042 155.185 461.444 153.976C461.948 152.667 462.552 151.307 463.257 149.896C464.365 147.68 465.321 146.421 466.127 146.118C467.033 145.715 467.738 145.816 468.242 146.421C468.846 147.025 469.198 147.881 469.299 148.989C469.5 150.098 469.45 150.954 469.148 151.558C469.047 151.155 468.947 150.803 468.846 150.501C468.645 150.299 468.443 150.148 468.242 150.047C468.141 149.947 467.889 150.047 467.486 150.349C466.379 151.256 465.422 152.616 464.616 154.43C463.811 156.243 463.106 158.107 462.502 160.021C461.898 161.834 461.394 163.496 460.991 165.008C460.689 166.418 460.488 167.224 460.387 167.425C459.38 171.757 459.984 173.571 462.2 172.865C463.307 172.563 464.314 171.959 465.221 171.052C466.127 170.045 466.983 169.138 467.789 168.332C469.299 166.72 470.81 164.907 472.32 162.892C473.931 160.877 475.14 159.164 475.945 157.754L475.794 159.416Z" fill="black"/>
<path d="M498.306 159.416C498.003 159.719 497.299 160.776 496.191 162.59C495.083 164.403 493.623 166.317 491.81 168.332C489.998 170.347 487.933 172.16 485.617 173.772C483.301 175.384 480.834 176.19 478.216 176.19H477.461C476.554 176.089 475.648 175.737 474.742 175.132C473.835 174.427 473.08 173.369 472.476 171.959C471.972 170.548 471.771 168.785 471.872 166.67C472.073 164.453 472.879 161.784 474.288 158.661C475.396 156.142 477.108 153.724 479.424 151.407C481.74 149.09 484.308 147.529 487.128 146.723C489.242 146.118 491.206 146.118 493.019 146.723C494.932 147.327 495.838 148.536 495.738 150.349C495.637 152.062 494.126 154.278 491.206 156.999C488.286 159.719 483.1 162.892 475.648 166.519C475.547 168.735 475.849 170.347 476.554 171.354C477.36 172.261 478.165 172.865 478.971 173.168C479.978 173.571 481.086 173.671 482.294 173.47C483.805 173.168 485.315 172.462 486.826 171.354C488.437 170.145 489.947 168.785 491.357 167.274C492.767 165.763 494.076 164.202 495.285 162.59C496.493 160.877 497.55 159.265 498.457 157.754L498.306 159.416ZM487.279 147.327C484.661 148.435 482.546 149.997 480.935 152.012C479.424 153.926 478.266 155.89 477.461 157.905C476.756 159.92 476.252 161.683 475.95 163.194C475.749 164.605 475.648 165.31 475.648 165.31C480.784 163.093 484.61 160.776 487.128 158.359C489.645 155.941 491.206 153.825 491.81 152.012C492.415 150.098 492.264 148.687 491.357 147.781C490.451 146.773 489.091 146.622 487.279 147.327Z" fill="black"/>
<path d="M501.396 156.243C500.792 157.956 500.339 159.467 500.037 160.776C499.835 162.086 499.634 163.194 499.433 164.101C499.231 165.209 499.181 166.166 499.282 166.972C499.282 168.886 499.785 170.649 500.792 172.261C501.799 173.772 503.461 174.225 505.777 173.621C507.489 173.218 509.1 172.412 510.61 171.203C512.222 169.994 513.682 168.634 514.991 167.123C516.401 165.511 517.71 163.849 518.918 162.136C520.126 160.424 521.184 158.812 522.09 157.301V158.661C521.788 159.064 521.033 160.172 519.824 161.985C518.717 163.799 517.257 165.763 515.444 167.879C513.631 169.894 511.517 171.757 509.1 173.47C506.784 175.082 504.317 175.888 501.698 175.888C499.382 175.888 497.67 174.931 496.563 173.017C495.455 171.002 495.102 168.836 495.505 166.519C495.707 164.806 496.16 162.59 496.865 159.87C497.67 157.15 499.231 153.271 501.547 148.234C503.36 144.204 505.575 139.469 508.194 134.029C510.812 128.488 513.581 122.948 516.501 117.407C519.522 111.866 522.594 106.577 525.715 101.54C528.938 96.5026 531.959 92.3218 534.779 88.9972C537.195 86.2772 539.26 84.212 540.972 82.8016C542.684 81.3912 544.093 80.5852 545.201 80.3838C546.409 80.1823 547.265 80.4845 547.769 81.2904C548.272 81.9956 548.474 83.1038 548.373 84.6149C548.071 89.2491 547.114 93.8329 545.503 98.3663C543.892 102.9 541.878 107.332 539.461 111.664C537.044 115.896 534.376 119.925 531.455 123.753C528.636 127.582 525.866 131.057 523.148 134.18C520.529 137.303 518.112 139.973 515.897 142.189C513.682 144.406 512.02 146.068 510.912 147.176C509.301 148.687 507.74 150.198 506.23 151.71C504.719 153.221 503.108 154.732 501.396 156.243ZM527.679 100.482C527.075 101.389 526.219 102.9 525.111 105.015C524.004 107.03 522.795 109.398 521.486 112.118C520.177 114.838 518.767 117.759 517.257 120.882C515.746 124.005 514.286 127.128 512.876 130.251C509.553 137.606 505.928 145.615 502 154.278C507.136 149.443 511.919 144.658 516.35 139.923C520.882 135.087 524.91 130.151 528.434 125.113C531.959 119.976 534.98 114.687 537.497 109.247C540.015 103.706 541.928 97.8626 543.237 91.7173C543.842 89.1987 544.043 87.1839 543.842 85.6727C543.741 84.0609 543.137 83.406 542.029 83.7083C540.921 84.0105 539.209 85.4713 536.893 88.0906C534.577 90.6091 531.506 94.7396 527.679 100.482Z" fill="black"/>
<path d="M524.998 156.243C524.394 157.956 523.941 159.467 523.638 160.776C523.437 162.086 523.236 163.194 523.034 164.101C522.833 165.209 522.783 166.166 522.883 166.972C522.883 168.886 523.387 170.649 524.394 172.261C525.401 173.772 527.062 174.225 529.378 173.621C531.09 173.218 532.702 172.412 534.212 171.203C535.823 169.994 537.283 168.634 538.593 167.123C540.002 165.511 541.311 163.849 542.52 162.136C543.728 160.424 544.786 158.812 545.692 157.301V158.661C545.39 159.064 544.635 160.172 543.426 161.985C542.318 163.799 540.858 165.763 539.046 167.879C537.233 169.894 535.118 171.757 532.702 173.47C530.385 175.082 527.918 175.888 525.3 175.888C522.984 175.888 521.272 174.931 520.164 173.017C519.057 171.002 518.704 168.836 519.107 166.519C519.308 164.806 519.762 162.59 520.466 159.87C521.272 157.15 522.833 153.271 525.149 148.234C526.962 144.204 529.177 139.469 531.795 134.029C534.414 128.488 537.183 122.948 540.103 117.407C543.124 111.866 546.195 106.577 549.317 101.54C552.54 96.5026 555.561 92.3218 558.38 88.9972C560.797 86.2772 562.861 84.212 564.573 82.8016C566.285 81.3912 567.695 80.5852 568.803 80.3838C570.011 80.1823 570.867 80.4845 571.371 81.2904C571.874 81.9956 572.076 83.1038 571.975 84.6149C571.673 89.2491 570.716 93.8329 569.105 98.3663C567.494 102.9 565.48 107.332 563.063 111.664C560.646 115.896 557.977 119.925 555.057 123.753C552.237 127.582 549.468 131.057 546.749 134.18C544.131 137.303 541.714 139.973 539.499 142.189C537.283 144.406 535.622 146.068 534.514 147.176C532.903 148.687 531.342 150.198 529.832 151.71C528.321 153.221 526.71 154.732 524.998 156.243ZM551.281 100.482C550.677 101.389 549.821 102.9 548.713 105.015C547.605 107.03 546.397 109.398 545.088 112.118C543.779 114.838 542.369 117.759 540.858 120.882C539.348 124.005 537.888 127.128 536.478 130.251C533.155 137.606 529.53 145.615 525.602 154.278C530.738 149.443 535.521 144.658 539.952 139.923C544.484 135.087 548.512 130.151 552.036 125.113C555.561 119.976 558.582 114.687 561.099 109.247C563.617 103.706 565.53 97.8626 566.839 91.7173C567.443 89.1987 567.645 87.1839 567.443 85.6727C567.343 84.0609 566.738 83.406 565.631 83.7083C564.523 84.0105 562.811 85.4713 560.495 88.0906C558.179 90.6091 555.107 94.7396 551.281 100.482Z" fill="black"/>
<path d="M567.783 159.416C567.481 159.719 566.776 160.776 565.668 162.59C564.561 164.403 563.101 166.317 561.288 168.332C559.475 170.347 557.411 172.16 555.095 173.772C552.779 175.384 550.312 176.19 547.693 176.19H546.938C546.032 176.089 545.125 175.737 544.219 175.132C543.313 174.427 542.558 173.369 541.953 171.959C541.45 170.548 541.249 168.785 541.349 166.67C541.551 164.453 542.356 161.784 543.766 158.661C544.874 156.142 546.586 153.724 548.902 151.407C551.218 149.09 553.786 147.529 556.605 146.723C558.72 146.118 560.684 146.118 562.496 146.723C564.41 147.327 565.316 148.536 565.215 150.349C565.115 152.062 563.604 154.278 560.684 156.999C557.763 159.719 552.577 162.892 545.125 166.519C545.025 168.735 545.327 170.347 546.032 171.354C546.837 172.261 547.643 172.865 548.449 173.168C549.456 173.571 550.563 173.671 551.772 173.47C553.282 173.168 554.793 172.462 556.303 171.354C557.914 170.145 559.425 168.785 560.835 167.274C562.245 165.763 563.554 164.202 564.762 162.59C565.971 160.877 567.028 159.265 567.934 157.754L567.783 159.416ZM556.756 147.327C554.138 148.435 552.023 149.997 550.412 152.012C548.902 153.926 547.744 155.89 546.938 157.905C546.233 159.92 545.73 161.683 545.428 163.194C545.226 164.605 545.125 165.31 545.125 165.31C550.261 163.093 554.088 160.776 556.605 158.359C559.123 155.941 560.684 153.825 561.288 152.012C561.892 150.098 561.741 148.687 560.835 147.781C559.929 146.773 558.569 146.622 556.756 147.327Z" fill="black"/>
<path d="M377.582 353.692C382.516 357.621 387.903 359.686 393.744 359.888C399.685 360.089 405.727 359.031 411.87 356.714C418.114 354.397 424.307 351.022 430.449 346.59C436.693 342.258 442.634 337.523 448.273 332.385C444.749 335.81 441.023 339.084 437.096 342.207C433.269 345.431 429.241 348.353 425.012 350.972C420.883 353.591 416.502 355.858 411.87 357.772C407.238 359.686 402.455 360.744 397.52 360.946C392.183 361.248 387.148 360.291 382.415 358.074C377.682 355.959 373.654 352.534 370.331 347.799C367.209 343.366 364.893 338.53 363.383 333.292C361.872 328.154 360.865 322.966 360.362 317.727C359.556 306.545 360.865 295.564 364.289 284.784C367.814 273.904 372.798 263.93 379.243 254.864C378.236 255.972 377.229 257.08 376.222 258.188C375.316 259.196 374.41 260.253 373.503 261.362C368.871 266.902 364.591 272.695 360.664 278.74C356.737 284.784 353.061 290.98 349.637 297.327C346.213 303.673 342.991 310.171 339.97 316.82C336.949 323.469 333.978 330.169 331.058 336.919C331.058 336.818 330.856 336.717 330.454 336.616C330.152 336.516 330 336.415 330 336.314C330.403 334.904 330.756 333.544 331.058 332.234C331.461 331.025 331.863 329.715 332.266 328.305C333.676 323.268 334.935 318.281 336.043 313.345C337.15 308.408 338.157 303.371 339.064 298.233C339.768 294.607 340.423 290.98 341.027 287.353C341.732 283.726 342.487 280.15 343.293 276.624C344.501 271.184 345.861 265.794 347.371 260.455C348.983 255.015 350.997 249.776 353.413 244.739C348.378 252.798 343.746 261.16 339.517 269.824C335.388 278.387 330.806 287.454 325.771 297.024C323.153 301.961 320.484 306.847 317.765 311.682C315.046 316.417 312.076 321.102 308.853 325.736C306.839 328.658 304.473 331.73 301.754 334.954C299.136 338.178 296.215 341.049 292.993 343.568C289.771 346.187 286.296 348.151 282.57 349.461C278.845 350.871 274.867 351.123 270.637 350.217C268.019 349.612 265.804 348.403 263.991 346.59C262.179 344.877 260.819 342.812 259.913 340.394C257.999 335.458 257.446 330.27 258.251 324.829C259.158 319.389 260.718 314.151 262.934 309.114C265.149 304.379 267.818 299.946 270.94 295.816C274.162 291.584 277.838 287.857 281.966 284.633C283.477 283.424 285.088 282.316 286.8 281.309C288.613 280.2 290.526 279.243 292.54 278.437C296.669 276.826 300.646 275.818 304.473 275.415C308.299 274.911 311.673 274.76 314.593 274.962C317.212 275.163 319.125 275.667 320.333 276.473C321.542 277.178 322.095 277.984 321.995 278.891C321.995 279.697 321.34 280.503 320.031 281.309C318.722 282.014 316.859 282.467 314.442 282.669C314.845 282.669 315.298 282.518 315.802 282.215C316.305 281.812 316.708 281.359 317.01 280.855C317.312 280.352 317.413 279.848 317.312 279.344C317.312 278.74 316.96 278.236 316.255 277.833C314.845 277.027 313.284 276.574 311.572 276.473C309.86 276.372 308.098 276.372 306.285 276.473C301.049 276.674 296.064 277.883 291.331 280.1C286.598 282.215 282.369 285.086 278.643 288.713C274.716 292.541 271.493 296.873 268.976 301.709C266.458 306.545 264.545 311.632 263.236 316.971C262.632 319.188 262.128 321.706 261.725 324.527C261.323 327.348 261.222 330.169 261.423 332.99C261.625 335.911 262.229 338.581 263.236 340.999C264.344 343.517 266.156 345.482 268.674 346.892C270.587 348.101 272.651 348.756 274.867 348.857C277.183 348.957 279.449 348.655 281.664 347.95C283.98 347.245 286.196 346.288 288.31 345.079C290.425 343.87 292.338 342.56 294.05 341.15C298.28 337.624 301.955 333.644 305.077 329.212C308.3 324.678 311.27 320.044 313.989 315.309C318.118 308.156 321.894 300.853 325.318 293.398C328.842 285.943 332.719 278.135 336.949 269.975C339.466 264.938 342.034 260.002 344.652 255.166C347.371 250.229 350.342 245.495 353.564 240.961C354.571 239.551 356.032 237.687 357.945 235.37C359.959 232.952 362.124 230.585 364.44 228.268C366.756 225.85 369.123 223.785 371.54 222.072C374.057 220.259 376.323 219.251 378.337 219.05C379.243 218.949 379.747 219.1 379.847 219.503C380.049 219.906 380.049 220.41 379.847 221.014C379.646 221.619 379.293 222.223 378.79 222.828C378.387 223.432 378.035 223.835 377.733 224.036C378.337 223.13 378.589 222.475 378.488 222.072C378.488 221.568 378.236 221.266 377.733 221.165C377.229 221.065 376.625 221.115 375.92 221.316C375.215 221.518 374.51 221.77 373.805 222.072C372.395 222.777 371.086 223.583 369.878 224.49C368.67 225.396 367.512 226.404 366.404 227.512C360.664 233.254 356.334 240.004 353.413 247.761C351.399 253 349.939 258.39 349.033 263.93C348.227 269.471 347.472 275.012 346.767 280.553C345.962 286.295 345.106 291.937 344.199 297.478C343.293 303.019 342.034 308.509 340.423 313.949C342.135 310.423 343.796 306.948 345.408 303.522C347.12 299.996 348.882 296.47 350.694 292.944C353.313 288.008 356.032 283.122 358.851 278.286C361.772 273.451 364.843 268.766 368.065 264.233C374.41 255.468 381.761 247.509 390.119 240.357C398.376 233.305 407.439 227.311 417.308 222.374C419.523 221.266 421.84 220.208 424.256 219.201C426.774 218.093 429.291 217.287 431.809 216.783C432.514 216.581 433.269 216.481 434.075 216.481C434.981 216.481 435.384 216.934 435.283 217.841C435.182 218.647 434.729 219.352 433.924 219.956C433.219 220.561 432.514 220.964 431.809 221.165C432.111 221.165 432.363 220.813 432.564 220.107C432.866 219.302 432.866 218.798 432.564 218.596C431.658 217.891 429.946 217.941 427.428 218.747C425.012 219.553 422.192 220.813 418.97 222.525C415.848 224.238 412.575 226.303 409.151 228.721C405.828 231.139 402.807 233.557 400.088 235.974C391.629 243.329 384.58 251.841 378.941 261.513C373.403 271.083 369.324 281.309 366.706 292.189C365.498 297.024 364.591 302.263 363.987 307.905C363.383 313.445 363.383 318.986 363.987 324.527C364.591 330.068 365.951 335.357 368.065 340.394C370.18 345.532 373.352 349.965 377.582 353.692Z" fill="black"/>
<path d="M416.688 312.136C416.185 312.942 415.228 314.302 413.818 316.216C412.509 318.13 410.999 320.094 409.287 322.109C407.575 324.124 405.762 325.938 403.849 327.549C402.036 329.061 400.425 329.816 399.015 329.816C397.807 329.816 397.001 329.161 396.599 327.852C396.297 326.542 396.548 324.175 397.354 320.749L398.713 316.216C397.807 318.331 396.498 320.346 394.786 322.26C393.074 324.074 391.312 325.635 389.499 326.945C387.687 328.154 385.924 329.01 384.212 329.514C382.501 329.917 381.141 329.766 380.134 329.061C379.127 328.355 378.624 326.945 378.624 324.829C378.624 322.714 379.429 319.692 381.04 315.763C381.745 314.151 382.652 312.539 383.759 310.927C384.968 309.214 386.226 307.653 387.536 306.242C388.945 304.832 390.355 303.623 391.765 302.616C393.276 301.507 394.736 300.702 396.146 300.198C397.555 299.694 399.066 299.543 400.677 299.744C402.389 299.946 403.648 300.802 404.453 302.313C405.46 300.702 406.367 299.845 407.172 299.744C407.978 299.543 408.582 299.744 408.985 300.349C409.488 300.953 409.79 301.759 409.891 302.767C409.992 303.673 409.891 304.429 409.589 305.033C409.589 304.53 409.539 304.127 409.438 303.825C409.237 303.119 408.733 303.119 407.927 303.825C406.82 304.731 405.863 306.091 405.058 307.905C404.252 309.718 403.547 311.531 402.943 313.345C402.339 315.158 401.835 316.82 401.432 318.331C401.13 319.742 400.929 320.598 400.828 320.9C400.224 323.117 400.123 324.678 400.526 325.585C400.929 326.391 401.634 326.643 402.641 326.341C403.748 326.038 404.957 325.283 406.266 324.074C407.575 322.865 408.884 321.505 410.193 319.994C411.502 318.382 412.711 316.82 413.818 315.309C414.926 313.697 415.782 312.337 416.386 311.229L416.688 312.136ZM400.526 310.927C402.439 306.897 402.943 304.026 402.036 302.313C401.13 300.601 399.569 299.996 397.354 300.5C395.139 301.004 392.671 302.666 389.952 305.487C387.234 308.308 384.968 312.287 383.155 317.425C381.947 320.951 381.796 323.469 382.702 324.98C383.709 326.492 385.169 326.995 387.082 326.492C389.096 325.988 391.362 324.477 393.88 321.958C396.397 319.339 398.613 315.662 400.526 310.927Z" fill="black"/>
<path d="M438.557 313.345C437.751 314.554 436.643 316.115 435.234 318.029C433.824 319.843 432.313 321.656 430.702 323.469C429.091 325.283 427.429 326.844 425.717 328.154C424.106 329.363 422.646 329.967 421.337 329.967C420.531 329.967 419.877 329.615 419.373 328.909C418.87 328.204 418.819 326.995 419.222 325.283C419.726 323.066 420.43 320.951 421.337 318.936C422.243 316.82 423.3 314.604 424.509 312.287C424.912 311.38 425.214 310.373 425.415 309.265C425.717 308.056 425.365 307.048 424.358 306.242C424.156 306.041 423.603 305.638 422.696 305.033C421.891 304.429 421.438 304.177 421.337 304.278C421.035 304.983 420.531 305.94 419.826 307.149C419.121 308.257 418.416 309.365 417.712 310.474C416.805 311.783 415.899 313.194 414.993 314.705C414.791 314.906 414.59 314.957 414.388 314.856C414.288 314.654 414.288 314.453 414.388 314.251C414.388 314.251 414.691 313.798 415.295 312.891C415.899 311.985 416.554 310.977 417.258 309.869C417.963 308.66 418.618 307.502 419.222 306.393C419.927 305.285 420.38 304.479 420.582 303.976C418.165 302.767 416.956 301.407 416.956 299.896C416.956 298.284 417.409 297.024 418.316 296.118C419.222 295.211 420.229 294.959 421.337 295.362C422.445 295.664 422.898 297.075 422.696 299.593C422.596 300.399 422.445 301.205 422.243 302.011C422.042 302.716 421.84 303.22 421.639 303.522C422.344 303.925 423.2 304.328 424.207 304.731C425.214 305.033 426.12 305.386 426.926 305.789C427.832 306.192 428.436 306.696 428.738 307.3C429.04 307.804 429.141 308.358 429.04 308.962C429.04 309.567 428.889 310.171 428.587 310.776C428.386 311.28 428.184 311.733 427.983 312.136C427.077 313.848 426.271 315.662 425.566 317.576C424.861 319.389 424.207 321.303 423.603 323.318C422.998 326.038 423.149 327.398 424.056 327.398C424.962 327.398 426.221 326.693 427.832 325.283C429.443 323.772 431.205 321.807 433.119 319.389C435.133 316.971 436.845 314.654 438.255 312.438L438.557 313.345ZM420.884 303.22C421.286 302.515 421.589 301.709 421.79 300.802C422.092 299.896 422.092 299.039 421.79 298.233C421.286 297.528 420.783 297.327 420.279 297.629C419.776 297.931 419.424 298.435 419.222 299.14C419.021 299.845 419.021 300.651 419.222 301.558C419.424 302.364 419.977 302.918 420.884 303.22Z" fill="black"/>
<path d="M514.907 280.704C519.539 280.402 523.97 279.344 528.2 277.531C532.429 275.617 536.306 273.148 539.83 270.126C537.414 273.249 534.695 275.717 531.674 277.531C528.653 279.344 525.38 280.755 521.855 281.762C518.432 282.669 514.806 283.273 510.98 283.575C507.153 283.777 503.276 283.777 499.349 283.575C494.817 283.374 490.235 283.072 485.603 282.669C481.072 282.266 476.288 282.064 471.253 282.064C468.434 282.064 465.564 282.064 462.643 282.064C459.824 282.064 456.954 282.115 454.033 282.215C453.832 282.719 453.58 283.172 453.278 283.575C452.976 283.978 452.724 284.432 452.523 284.935C450.811 288.26 449.2 291.635 447.689 295.06C446.179 298.384 444.719 301.81 443.309 305.336C443.007 305.94 442.554 307.149 441.949 308.962C441.345 310.675 440.691 312.589 439.986 314.705C439.382 316.82 438.878 318.886 438.475 320.9C438.072 322.815 437.972 324.275 438.173 325.283C438.475 326.29 439.13 326.693 440.137 326.492C441.244 326.189 442.956 324.779 445.272 322.26C446.984 320.548 448.545 318.684 449.955 316.669C451.466 314.654 452.724 312.841 453.731 311.229V312.589C452.926 313.899 451.768 315.561 450.257 317.576C448.847 319.49 447.287 321.354 445.575 323.167C444.064 324.88 442.503 326.391 440.892 327.701C439.382 329.01 438.072 329.715 436.965 329.816C435.958 330.018 435.253 329.514 434.85 328.305C434.548 326.995 434.8 324.578 435.605 321.052C437.015 314.403 439.029 307.905 441.647 301.558C444.366 295.211 447.286 288.814 450.408 282.366C450.106 282.366 449.804 282.417 449.502 282.518C449.2 282.518 448.898 282.518 448.596 282.518C441.446 283.021 434.397 283.928 427.448 285.238C420.5 286.547 413.199 288.26 405.546 290.375C406.251 290.174 406.906 289.972 407.51 289.771C408.114 289.469 408.718 289.217 409.322 289.015C423.118 284.784 437.116 281.913 451.315 280.402C453.026 276.775 454.94 272.947 457.054 268.917C459.169 264.787 461.435 260.707 463.852 256.677C466.369 252.647 469.038 248.819 471.857 245.192C474.677 241.465 477.648 238.14 480.77 235.219C482.079 233.909 483.186 233.254 484.093 233.254C485.1 233.154 485.855 233.405 486.358 234.01C486.963 234.514 487.315 235.219 487.416 236.126C487.516 237.032 487.416 237.788 487.114 238.392C487.114 237.989 487.063 237.637 486.963 237.334C486.761 236.73 486.258 236.629 485.452 237.032C482.532 238.846 479.611 241.465 476.691 244.89C473.771 248.315 471.002 252.093 468.383 256.224C465.765 260.253 463.298 264.384 460.982 268.615C458.766 272.846 456.803 276.674 455.091 280.1C456.199 280.1 457.357 280.1 458.565 280.1C459.773 279.999 461.536 279.898 463.852 279.797C468.081 279.697 472.26 279.747 476.389 279.949C480.618 280.15 484.848 280.402 489.077 280.704C493.407 280.906 497.687 281.057 501.917 281.157C506.247 281.258 510.577 281.107 514.907 280.704Z" fill="black"/>
<path d="M478.603 310.474C478.804 310.171 479.006 310.121 479.207 310.322C479.408 310.524 479.408 310.725 479.207 310.927C478.502 312.035 477.797 313.093 477.092 314.1C476.488 315.108 475.783 316.014 474.978 316.82C474.172 317.526 473.165 318.18 471.957 318.785C470.849 319.389 469.489 319.893 467.878 320.296C466.166 322.512 464.203 324.578 461.987 326.492C459.772 328.406 457.053 329.464 453.83 329.665C451.615 329.867 450.054 329.413 449.148 328.305C448.242 327.096 447.788 325.635 447.788 323.923C447.788 322.21 448.04 320.397 448.544 318.483C449.148 316.569 449.752 314.957 450.356 313.647C452.37 309.819 455.14 306.444 458.664 303.522C459.47 302.817 460.527 302.112 461.836 301.407C463.145 300.702 464.454 300.198 465.764 299.896C467.173 299.493 468.482 299.442 469.691 299.744C471 300.047 472.007 300.853 472.712 302.162C473.316 303.27 473.568 304.58 473.467 306.091C473.467 307.602 473.215 309.164 472.712 310.776C472.208 312.388 471.554 313.949 470.748 315.46C470.043 316.871 469.338 318.13 468.633 319.238C469.741 318.936 470.698 318.583 471.503 318.18C472.309 317.777 473.064 317.274 473.769 316.669C474.575 316.065 475.33 315.259 476.035 314.251C476.841 313.244 477.697 311.985 478.603 310.474ZM470.295 307.451C470.799 304.328 470.446 302.313 469.238 301.407C468.13 300.5 466.619 300.45 464.706 301.256C463.296 301.86 461.987 303.17 460.779 305.185C459.671 307.199 458.916 309.315 458.513 311.531C458.211 313.647 458.513 315.561 459.419 317.274C460.326 318.986 462.189 319.843 465.008 319.843H465.612C466.922 317.425 467.979 315.007 468.785 312.589C469.59 310.171 470.094 308.459 470.295 307.451ZM455.492 328.607C457.707 328.406 459.57 327.499 461.081 325.887C462.692 324.275 464.052 322.563 465.159 320.749C463.145 320.749 461.534 320.397 460.326 319.691C459.218 318.886 458.362 317.828 457.758 316.518C457.254 315.208 457.003 313.748 457.003 312.136C457.103 310.524 457.405 308.862 457.909 307.149C457.103 308.257 456.147 310.02 455.039 312.438C454.032 314.755 453.226 317.123 452.622 319.54C452.018 321.958 451.816 324.124 452.018 326.038C452.32 327.852 453.478 328.708 455.492 328.607Z" fill="black"/>
<path d="M496.594 312.438C496.695 312.438 496.846 312.539 497.048 312.74L497.199 312.891C495.89 315.007 494.53 316.669 493.12 317.878C491.811 319.087 490.301 319.994 488.589 320.598C488.186 323.318 487.28 325.434 485.87 326.945C484.561 328.355 483.151 329.262 481.64 329.665C480.231 330.068 478.921 330.068 477.713 329.665C476.605 329.161 476.152 328.355 476.354 327.247C476.555 325.736 477.361 324.326 478.77 323.016C480.18 321.706 482.345 320.749 485.266 320.145C485.266 319.238 485.115 318.231 484.812 317.123C484.51 315.914 484.158 314.705 483.755 313.496C483.352 312.287 482.899 311.128 482.396 310.02C481.993 308.912 481.691 308.005 481.489 307.3C480.784 308.408 480.13 309.416 479.526 310.322C479.022 311.229 478.519 312.085 478.015 312.891C477.512 313.798 476.958 314.604 476.354 315.309L475.749 314.856C476.354 314.151 476.958 313.294 477.562 312.287C478.066 311.481 478.619 310.574 479.224 309.567C479.828 308.459 480.482 307.351 481.187 306.242V305.94C480.684 303.321 480.835 301.004 481.64 298.989C482.547 296.873 483.554 295.413 484.661 294.607C485.467 294.002 485.971 294.254 486.172 295.362C486.373 296.773 486.122 298.183 485.417 299.593C484.712 301.004 483.957 302.565 483.151 304.278C483.252 305.688 483.554 306.998 484.057 308.207C484.661 309.416 485.266 310.625 485.87 311.834C486.575 313.043 487.179 314.302 487.682 315.611C488.287 316.82 488.639 318.13 488.74 319.54C491.66 318.634 494.278 316.266 496.594 312.438ZM485.266 296.571C485.366 295.564 485.266 295.11 484.964 295.211C484.762 295.211 484.51 295.564 484.208 296.269C483.906 296.974 483.654 297.881 483.453 298.989C483.252 300.097 483.151 301.256 483.151 302.465C483.654 301.558 484.108 300.651 484.51 299.744C484.913 298.737 485.165 297.679 485.266 296.571ZM481.036 326.643C482.647 326.441 483.654 325.786 484.057 324.678C484.561 323.57 484.913 322.361 485.115 321.052C483.805 321.354 482.698 321.807 481.791 322.412C480.986 323.016 480.382 323.671 479.979 324.376C479.576 324.98 479.425 325.535 479.526 326.038C479.727 326.441 480.231 326.643 481.036 326.643Z" fill="black"/>
</g>
<defs>
<filter id="filter0_d_1487_1237" x="0" y="0" width="759" height="425" filterUnits="userSpaceOnUse" color-interpolation-filters="sRGB">
<feFlood flood-opacity="0" result="BackgroundImageFix"/>
<feColorMatrix in="SourceAlpha" type="matrix" values="0 0 0 0 0 0 0 0 0 0 0 0 0 0 0 0 0 0 127 0" result="hardAlpha"/>
<feOffset dy="3"/>
<feGaussianBlur stdDeviation="1"/>
<feComposite in2="hardAlpha" operator="out"/>
<feColorMatrix type="matrix" values="0 0 0 0 0 0 0 0 0 0 0 0 0 0 0 0 0 0 0.25 0"/>
<feBlend mode="normal" in2="BackgroundImageFix" result="effect1_dropShadow_1487_1237"/>
<feBlend mode="normal" in="SourceGraphic" in2="effect1_dropShadow_1487_1237" result="shape"/>
</filter>
</defs>
</svg>
