<svg width="324" height="183" viewBox="0 0 324 183" fill="none" xmlns="http://www.w3.org/2000/svg">
<g filter="url(#filter0_d_1520_1235)">
<path d="M2 0H322V163C322 171.284 315.284 178 307 178H17C8.71573 178 2 171.284 2 163V0Z" fill="black" fill-opacity="0.2"/>
<path d="M2 0H322V163C322 171.284 315.284 178 307 178H17C8.71573 178 2 171.284 2 163V0Z" fill="#CAA4B5"/>
<path d="M118.673 78.688C120.806 78.56 122.897 78.1547 124.945 77.472C126.993 76.832 128.977 76.0213 130.897 75.04C132.817 74.0587 134.673 72.9707 136.465 71.776C138.299 70.624 140.027 69.4293 141.649 68.192C140.07 69.5573 138.427 70.8373 136.721 72.032C135.014 73.2693 133.222 74.3787 131.345 75.36C129.51 76.3413 127.611 77.1733 125.649 77.856C123.686 78.5387 121.659 79.0293 119.569 79.328C116.838 79.6693 114.171 79.5627 111.569 79.008C109.009 78.496 106.769 77.28 104.849 75.36C103.654 75.7867 102.267 76.192 100.689 76.576C99.1528 76.96 97.5741 77.152 95.9528 77.152C94.3741 77.1947 92.8594 76.96 91.4088 76.448C89.9581 75.9787 88.7634 75.0827 87.8248 73.76C87.0994 72.8213 86.6088 71.7973 86.3528 70.688C86.0968 69.5787 85.9688 68.4693 85.9688 67.36C85.9688 65.312 86.2887 63.2853 86.9287 61.28C87.5687 59.232 88.4008 57.2693 89.4248 55.392C90.5341 53.3867 91.8568 51.5307 93.3928 49.824C94.9288 48.1173 96.5928 46.56 98.3848 45.152C100.177 43.744 102.075 42.5067 104.081 41.44C106.086 40.3307 108.155 39.3493 110.289 38.496C109.947 38.2827 109.606 38.0053 109.265 37.664C108.966 37.3227 108.753 36.9173 108.625 36.448H108.241C107.217 36.5333 106.001 36.4907 104.593 36.32C103.185 36.1493 101.862 35.808 100.625 35.296C99.4301 34.7413 98.4274 33.9947 97.6168 33.056C96.8488 32.0747 96.5288 30.816 96.6568 29.28C96.8274 27.744 97.3608 26.3787 98.2568 25.184C99.1528 23.9467 100.241 22.88 101.521 21.984C102.801 21.0453 104.209 20.2773 105.745 19.68C107.281 19.0827 108.753 18.6347 110.161 18.336C111.526 18.0373 112.593 17.9093 113.361 17.952C114.129 17.9947 114.641 18.1013 114.897 18.272C115.238 18.4853 115.366 18.7413 115.281 19.04C115.238 19.296 115.067 19.552 114.769 19.808C114.47 20.0213 114.129 20.2133 113.745 20.384C113.361 20.512 113.041 20.576 112.785 20.576C112.998 20.576 113.211 20.4053 113.425 20.064C113.681 19.7227 113.787 19.4453 113.745 19.232C113.659 18.7627 113.211 18.5067 112.401 18.464C111.633 18.4213 110.737 18.528 109.713 18.784C108.731 18.9973 107.729 19.2747 106.705 19.616C105.723 19.9573 104.955 20.2773 104.401 20.576C103.419 21.0453 102.502 21.6427 101.649 22.368C100.795 23.0507 100.07 23.84 99.4727 24.736C98.8327 25.7173 98.3634 26.6987 98.0648 27.68C97.8088 28.6187 97.7661 29.536 97.9368 30.432C98.1074 31.2853 98.4914 32.0747 99.0888 32.8C99.7288 33.5253 100.667 34.144 101.905 34.656C102.929 35.0827 103.974 35.3813 105.041 35.552C106.15 35.7227 107.259 35.808 108.369 35.808C108.155 34.9547 108.134 34.1013 108.305 33.248C108.518 32.352 108.795 31.52 109.137 30.752C109.563 29.8987 110.054 29.1307 110.609 28.448C111.206 27.7653 111.867 27.1253 112.593 26.528C113.702 25.5893 115.003 24.6293 116.497 23.648C118.033 22.6667 119.633 21.8133 121.297 21.088C123.003 20.32 124.731 19.744 126.481 19.36C128.23 18.976 129.873 18.8907 131.409 19.104C132.646 19.2747 133.499 19.808 133.969 20.704C134.438 21.5573 134.459 22.6027 134.033 23.84C133.691 24.864 133.137 25.8027 132.369 26.656C131.601 27.5093 130.79 28.2773 129.937 28.96C127.206 31.136 124.241 32.864 121.041 34.144C117.883 35.3813 114.257 36.1067 110.161 36.32C110.203 36.4053 110.289 36.5547 110.417 36.768C110.587 36.9387 110.758 37.1093 110.929 37.28C111.099 37.4507 111.27 37.6 111.441 37.728C111.654 37.856 111.825 37.8987 111.953 37.856C112.678 37.5573 113.403 37.3013 114.129 37.088C114.897 36.8747 115.665 36.64 116.433 36.384C117.67 36.0427 118.929 35.7653 120.209 35.552C121.531 35.296 122.833 35.1467 124.113 35.104C124.241 35.104 124.454 35.104 124.753 35.104C125.051 35.104 125.35 35.1253 125.649 35.168C125.947 35.2107 126.203 35.296 126.417 35.424C126.673 35.5093 126.801 35.68 126.801 35.936C126.801 36.576 126.417 37.1307 125.649 37.6C124.923 38.0693 124.07 38.4747 123.089 38.816C122.107 39.1147 121.126 39.3493 120.145 39.52C119.163 39.6907 118.438 39.7973 117.969 39.84C116.859 39.9253 115.707 39.9253 114.513 39.84C113.318 39.7547 112.209 39.4773 111.185 39.008C111.099 38.9653 111.035 38.944 110.993 38.944C110.95 38.9013 110.886 38.9013 110.801 38.944C109.819 39.2853 108.859 39.7333 107.921 40.288C107.025 40.8 106.107 41.3547 105.169 41.952C103.249 43.104 101.435 44.4267 99.7288 45.92C98.0221 47.3707 96.4647 48.9707 95.0567 50.72C93.6487 52.4267 92.4114 54.2827 91.3447 56.288C90.2781 58.2507 89.4674 60.3413 88.9128 62.56C88.6568 63.5413 88.4434 64.5867 88.2728 65.696C88.1021 66.8053 88.0594 67.8933 88.1448 68.96C88.2301 70.0693 88.4647 71.0933 88.8487 72.032C89.2754 73.0133 89.9581 73.8453 90.8968 74.528C91.8354 75.2533 92.8594 75.744 93.9688 76C95.0781 76.256 96.2301 76.3627 97.4248 76.32C98.6194 76.32 99.8141 76.1707 101.009 75.872C102.246 75.616 103.419 75.3173 104.529 74.976C103.334 73.696 102.459 72.224 101.905 70.56C101.393 68.9387 101.137 67.2533 101.137 65.504C101.137 63.328 101.457 61.1947 102.097 59.104C102.737 57.0133 103.633 55.0507 104.785 53.216C105.937 51.3813 107.323 49.7387 108.945 48.288C110.566 46.7947 112.379 45.6213 114.385 44.768C115.323 44.3413 116.369 43.9787 117.521 43.68C118.673 43.3813 119.803 43.232 120.913 43.232C122.065 43.1893 123.153 43.36 124.177 43.744C125.201 44.128 126.075 44.7893 126.801 45.728C127.441 46.5387 127.825 47.4347 127.953 48.416C128.123 49.3547 128.123 50.336 127.953 51.36C127.825 52.3413 127.569 53.344 127.185 54.368C126.843 55.3493 126.481 56.288 126.097 57.184C125.115 59.232 123.921 61.1093 122.513 62.816C121.105 64.5227 119.569 66.1013 117.905 67.552C116.155 69.0453 114.299 70.3893 112.337 71.584C110.417 72.8213 108.411 73.888 106.321 74.784C107.942 76.4053 109.841 77.4933 112.017 78.048C114.235 78.6453 116.454 78.8587 118.673 78.688ZM117.777 23.776C117.009 24.288 116.113 24.992 115.089 25.888C114.065 26.784 113.126 27.7867 112.273 28.896C111.462 29.9627 110.801 31.0933 110.289 32.288C109.819 33.4827 109.713 34.656 109.969 35.808C113.126 35.808 116.219 35.1467 119.249 33.824C122.321 32.5013 125.179 30.816 127.825 28.768C128.678 28.0853 129.51 27.3813 130.321 26.656C131.174 25.888 131.899 25.0347 132.497 24.096C133.094 23.1147 133.329 22.1547 133.201 21.216C133.073 20.2773 132.283 19.7013 130.833 19.488C129.723 19.3173 128.593 19.3387 127.441 19.552C126.331 19.7227 125.201 20.0213 124.049 20.448C122.939 20.8747 121.851 21.3867 120.785 21.984C119.718 22.5387 118.715 23.136 117.777 23.776ZM124.753 35.36C122.747 35.36 120.742 35.6373 118.737 36.192C116.774 36.7467 114.705 37.408 112.529 38.176C113.254 38.6027 114.065 38.9013 114.961 39.072C115.899 39.2 116.838 39.264 117.777 39.264C118.758 39.2213 119.718 39.1147 120.657 38.944C121.595 38.7307 122.47 38.496 123.281 38.24C123.537 38.1547 123.942 37.984 124.497 37.728C125.094 37.4293 125.563 37.1307 125.905 36.832C126.289 36.4907 126.438 36.192 126.353 35.936C126.267 35.6373 125.734 35.4453 124.753 35.36ZM106.001 74.464C108.262 73.6533 110.459 72.48 112.593 70.944C114.769 69.4507 116.753 67.7013 118.545 65.696C120.379 63.648 121.937 61.4507 123.217 59.104C124.539 56.7147 125.457 54.2613 125.969 51.744C126.182 50.8053 126.225 49.8667 126.097 48.928C126.011 47.9467 125.67 47.072 125.073 46.304C124.347 45.4507 123.43 44.8533 122.321 44.512C121.254 44.1707 120.187 44.0213 119.121 44.064C116.945 44.1493 114.875 44.768 112.913 45.92C110.95 47.072 109.265 48.4587 107.857 50.08C106.449 51.744 105.339 53.5787 104.529 55.584C103.718 57.5467 103.163 59.616 102.865 61.792C102.566 63.968 102.63 66.1867 103.057 68.448C103.483 70.752 104.465 72.7573 106.001 74.464Z" fill="black"/>
<path d="M148.974 60.896C148.633 61.408 148.206 62.0267 147.694 62.752C147.182 63.4347 146.606 64.1387 145.966 64.864C145.369 65.5467 144.708 66.1867 143.982 66.784C143.3 67.3387 142.617 67.744 141.934 68C141.252 68.1707 140.825 68.0427 140.654 67.616C140.526 67.1893 140.526 66.656 140.654 66.016C140.782 65.3333 141.038 64.48 141.422 63.456C141.806 62.432 142.148 61.4293 142.446 60.448C142.788 59.4667 143.001 58.592 143.086 57.824C143.214 57.056 143.108 56.5653 142.766 56.352C142.553 56.3093 142.19 56.3947 141.678 56.608C141.209 56.8213 140.697 57.12 140.142 57.504C139.588 57.888 139.076 58.3147 138.606 58.784C138.137 59.2107 137.796 59.5947 137.582 59.936C137.369 60.2773 137.07 60.8747 136.686 61.728C136.345 62.5387 135.982 63.392 135.598 64.288C135.214 65.184 134.852 65.9947 134.51 66.72C134.212 67.4453 134.02 67.872 133.934 68C133.806 68.2133 133.764 68.1493 133.806 67.808C133.849 67.424 133.956 66.8907 134.126 66.208C134.297 65.5253 134.51 64.7147 134.766 63.776C135.065 62.8373 135.385 61.8773 135.726 60.896C136.238 59.36 136.473 58.2507 136.43 57.568C136.43 56.8853 136.324 56.48 136.11 56.352C135.854 56.2667 135.449 56.352 134.894 56.608C134.382 56.8213 133.828 57.1413 133.23 57.568C132.633 57.9947 132.057 58.464 131.502 58.976C130.99 59.4453 130.606 59.8933 130.35 60.32C130.094 60.7467 129.796 61.3653 129.454 62.176C129.113 62.944 128.772 63.7547 128.43 64.608C128.089 65.4187 127.79 66.1653 127.534 66.848C127.278 67.488 127.086 67.872 126.958 68C126.788 68.2133 126.766 68.064 126.894 67.552C126.98 66.9973 127.15 66.272 127.406 65.376C127.662 64.48 127.961 63.4987 128.302 62.432C128.644 61.3653 128.964 60.4053 129.262 59.552C129.476 58.9973 129.625 58.5707 129.71 58.272C129.838 57.9733 130.03 57.504 130.286 56.864C130.372 56.6507 130.35 56.5227 130.222 56.48C130.137 56.3947 130.03 56.3733 129.902 56.416C129.732 56.4587 129.54 56.5227 129.326 56.608C130.265 55.7973 130.905 55.392 131.246 55.392C131.63 55.392 131.822 55.6053 131.822 56.032C131.822 56.416 131.694 56.928 131.438 57.568C131.225 58.1653 131.033 58.656 130.862 59.04C131.246 58.656 131.78 58.2293 132.462 57.76C133.145 57.248 133.828 56.7787 134.51 56.352C135.236 55.9253 135.897 55.6267 136.494 55.456C137.134 55.2853 137.582 55.328 137.838 55.584C138.094 55.84 138.201 56.288 138.158 56.928C138.158 57.5253 138.052 58.208 137.838 58.976C138.222 58.592 138.734 58.1653 139.374 57.696C140.014 57.184 140.676 56.736 141.358 56.352C142.041 55.9253 142.66 55.6267 143.214 55.456C143.812 55.2853 144.238 55.328 144.494 55.584C144.793 55.8827 144.878 56.3733 144.75 57.056C144.622 57.7387 144.409 58.528 144.11 59.424C143.854 60.2773 143.534 61.1947 143.15 62.176C142.809 63.1573 142.553 64.0747 142.382 64.928C142.169 65.8667 142.148 66.464 142.318 66.72C142.532 66.976 142.83 67.0187 143.214 66.848C143.598 66.6347 144.068 66.272 144.622 65.76C145.177 65.2053 145.732 64.608 146.286 63.968C146.841 63.328 147.353 62.688 147.822 62.048C148.292 61.3653 148.654 60.8107 148.91 60.384L148.974 60.896Z" fill="black"/>
<path d="M168.349 60.896C168.008 61.408 167.581 62.0267 167.069 62.752C166.557 63.4347 165.981 64.1387 165.341 64.864C164.744 65.5467 164.083 66.1867 163.357 66.784C162.675 67.3387 161.992 67.744 161.309 68C160.627 68.1707 160.2 68.0427 160.029 67.616C159.901 67.1893 159.901 66.656 160.029 66.016C160.157 65.3333 160.413 64.48 160.797 63.456C161.181 62.432 161.523 61.4293 161.821 60.448C162.163 59.4667 162.376 58.592 162.461 57.824C162.589 57.056 162.483 56.5653 162.141 56.352C161.928 56.3093 161.565 56.3947 161.053 56.608C160.584 56.8213 160.072 57.12 159.517 57.504C158.963 57.888 158.451 58.3147 157.981 58.784C157.512 59.2107 157.171 59.5947 156.957 59.936C156.744 60.2773 156.445 60.8747 156.061 61.728C155.72 62.5387 155.357 63.392 154.973 64.288C154.589 65.184 154.227 65.9947 153.885 66.72C153.587 67.4453 153.395 67.872 153.309 68C153.181 68.2133 153.139 68.1493 153.181 67.808C153.224 67.424 153.331 66.8907 153.501 66.208C153.672 65.5253 153.885 64.7147 154.141 63.776C154.44 62.8373 154.76 61.8773 155.101 60.896C155.613 59.36 155.848 58.2507 155.805 57.568C155.805 56.8853 155.699 56.48 155.485 56.352C155.229 56.2667 154.824 56.352 154.269 56.608C153.757 56.8213 153.203 57.1413 152.605 57.568C152.008 57.9947 151.432 58.464 150.877 58.976C150.365 59.4453 149.981 59.8933 149.725 60.32C149.469 60.7467 149.171 61.3653 148.829 62.176C148.488 62.944 148.147 63.7547 147.805 64.608C147.464 65.4187 147.165 66.1653 146.909 66.848C146.653 67.488 146.461 67.872 146.333 68C146.163 68.2133 146.141 68.064 146.269 67.552C146.355 66.9973 146.525 66.272 146.781 65.376C147.037 64.48 147.336 63.4987 147.677 62.432C148.019 61.3653 148.339 60.4053 148.637 59.552C148.851 58.9973 149 58.5707 149.085 58.272C149.213 57.9733 149.405 57.504 149.661 56.864C149.747 56.6507 149.725 56.5227 149.597 56.48C149.512 56.3947 149.405 56.3733 149.277 56.416C149.107 56.4587 148.915 56.5227 148.701 56.608C149.64 55.7973 150.28 55.392 150.621 55.392C151.005 55.392 151.197 55.6053 151.197 56.032C151.197 56.416 151.069 56.928 150.813 57.568C150.6 58.1653 150.408 58.656 150.237 59.04C150.621 58.656 151.155 58.2293 151.837 57.76C152.52 57.248 153.203 56.7787 153.885 56.352C154.611 55.9253 155.272 55.6267 155.869 55.456C156.509 55.2853 156.957 55.328 157.213 55.584C157.469 55.84 157.576 56.288 157.533 56.928C157.533 57.5253 157.427 58.208 157.213 58.976C157.597 58.592 158.109 58.1653 158.749 57.696C159.389 57.184 160.051 56.736 160.733 56.352C161.416 55.9253 162.035 55.6267 162.589 55.456C163.187 55.2853 163.613 55.328 163.869 55.584C164.168 55.8827 164.253 56.3733 164.125 57.056C163.997 57.7387 163.784 58.528 163.485 59.424C163.229 60.2773 162.909 61.1947 162.525 62.176C162.184 63.1573 161.928 64.0747 161.757 64.928C161.544 65.8667 161.523 66.464 161.693 66.72C161.907 66.976 162.205 67.0187 162.589 66.848C162.973 66.6347 163.443 66.272 163.997 65.76C164.552 65.2053 165.107 64.608 165.661 63.968C166.216 63.328 166.728 62.688 167.197 62.048C167.667 61.3653 168.029 60.8107 168.285 60.384L168.349 60.896Z" fill="black"/>
<path d="M182.412 60.576C182.199 60.9173 181.794 61.4933 181.196 62.304C180.642 63.1147 180.002 63.9467 179.276 64.8C178.551 65.6533 177.783 66.4213 176.972 67.104C176.204 67.744 175.522 68.064 174.924 68.064C174.412 68.064 174.071 67.7867 173.9 67.232C173.772 66.6773 173.879 65.6747 174.22 64.224L174.796 62.304C174.412 63.2 173.858 64.0533 173.132 64.864C172.407 65.632 171.66 66.2933 170.892 66.848C170.124 67.36 169.378 67.7227 168.652 67.936C167.927 68.1067 167.351 68.0427 166.924 67.744C166.498 67.4453 166.284 66.848 166.284 65.952C166.284 65.056 166.626 63.776 167.308 62.112C167.607 61.4293 167.991 60.7467 168.46 60.064C168.972 59.3387 169.506 58.6773 170.06 58.08C170.658 57.4827 171.255 56.9707 171.852 56.544C172.492 56.0747 173.111 55.7333 173.708 55.52C174.306 55.3067 174.946 55.2427 175.628 55.328C176.354 55.4133 176.887 55.776 177.228 56.416C177.655 55.7333 178.039 55.3707 178.38 55.328C178.722 55.2427 178.978 55.328 179.148 55.584C179.362 55.84 179.49 56.1813 179.532 56.608C179.575 56.992 179.532 57.312 179.404 57.568C179.404 57.3547 179.383 57.184 179.34 57.056C179.255 56.7573 179.042 56.7573 178.7 57.056C178.231 57.44 177.826 58.016 177.484 58.784C177.143 59.552 176.844 60.32 176.588 61.088C176.332 61.856 176.119 62.56 175.948 63.2C175.82 63.7973 175.735 64.16 175.692 64.288C175.436 65.2267 175.394 65.888 175.564 66.272C175.735 66.6133 176.034 66.72 176.46 66.592C176.93 66.464 177.442 66.144 177.996 65.632C178.551 65.12 179.106 64.544 179.66 63.904C180.215 63.2213 180.727 62.56 181.196 61.92C181.666 61.2373 182.028 60.6613 182.284 60.192L182.412 60.576ZM175.564 60.064C176.375 58.3573 176.588 57.1413 176.204 56.416C175.82 55.6907 175.159 55.4347 174.22 55.648C173.282 55.8613 172.236 56.5653 171.084 57.76C169.932 58.9547 168.972 60.64 168.204 62.816C167.692 64.3093 167.628 65.376 168.012 66.016C168.439 66.656 169.058 66.8693 169.868 66.656C170.722 66.4427 171.682 65.8027 172.748 64.736C173.815 63.6267 174.754 62.0693 175.564 60.064Z" fill="black"/>
<path d="M195.013 60.896C194.715 61.3653 194.309 61.984 193.797 62.752C193.285 63.4773 192.709 64.224 192.069 64.992C191.429 65.7173 190.768 66.3787 190.085 66.976C189.403 67.5307 188.763 67.872 188.165 68C187.525 68.128 187.099 68 186.885 67.616C186.672 67.1893 186.608 66.656 186.693 66.016C186.821 65.3333 187.056 64.48 187.397 63.456C187.781 62.3893 188.144 61.3653 188.485 60.384C188.827 59.4027 189.061 58.528 189.189 57.76C189.317 56.992 189.189 56.5227 188.805 56.352C188.549 56.3093 188.123 56.4587 187.525 56.8C186.971 57.0987 186.373 57.4827 185.733 57.952C185.136 58.4213 184.581 58.8907 184.069 59.36C183.557 59.8293 183.237 60.1493 183.109 60.32C182.853 60.7467 182.555 61.3653 182.213 62.176C181.872 62.944 181.531 63.7547 181.189 64.608C180.891 65.4187 180.592 66.1653 180.293 66.848C180.037 67.488 179.845 67.872 179.717 68C179.547 68.2133 179.525 68.064 179.653 67.552C179.739 66.9973 179.888 66.272 180.101 65.376C180.357 64.48 180.656 63.4987 180.997 62.432C181.339 61.3653 181.68 60.4053 182.021 59.552C182.107 59.296 182.213 59.0187 182.341 58.72C182.512 58.3787 182.64 58.08 182.725 57.824C182.853 57.5253 182.96 57.2053 183.045 56.864C183.131 56.6507 183.109 56.5013 182.981 56.416C182.896 56.3307 182.789 56.3093 182.661 56.352C182.491 56.3947 182.299 56.48 182.085 56.608C183.067 55.7973 183.728 55.4133 184.069 55.456C184.411 55.4987 184.56 55.7333 184.517 56.16C184.517 56.5867 184.389 57.12 184.133 57.76C183.92 58.3573 183.728 58.848 183.557 59.232C183.728 58.976 184.133 58.592 184.773 58.08C185.413 57.568 186.117 57.0773 186.885 56.608C187.653 56.1387 188.379 55.776 189.061 55.52C189.787 55.264 190.277 55.264 190.533 55.52C190.832 55.8187 190.939 56.288 190.853 56.928C190.811 57.568 190.683 58.2933 190.469 59.104C190.256 59.9147 189.979 60.7893 189.637 61.728C189.339 62.624 189.061 63.52 188.805 64.416C188.549 65.44 188.507 66.1013 188.677 66.4C188.848 66.6987 189.125 66.7627 189.509 66.592C189.893 66.4213 190.363 66.0587 190.917 65.504C191.472 64.9493 192.005 64.352 192.517 63.712C193.072 63.072 193.584 62.432 194.053 61.792C194.523 61.1093 194.864 60.576 195.077 60.192L195.013 60.896Z" fill="black"/>
<path d="M208.33 60.896C207.989 61.4933 207.52 62.176 206.922 62.944C206.325 63.712 205.664 64.48 204.938 65.248C204.213 66.0587 203.488 66.7627 202.762 67.36C202.08 67.9147 201.504 68.1493 201.034 68.064C200.565 68.1067 200.245 67.8507 200.074 67.296C199.904 66.6987 199.989 65.6747 200.33 64.224L200.522 63.456C200.65 62.944 200.906 62.176 201.29 61.152C200.821 61.7493 200.245 62.4747 199.562 63.328C198.88 64.1813 198.176 64.992 197.45 65.76C196.725 66.4853 196 67.0827 195.274 67.552C194.549 68.0213 193.909 68.192 193.354 68.064C192.757 67.8933 192.48 67.4453 192.522 66.72C192.522 65.9947 192.672 65.184 192.97 64.288C193.269 63.392 193.632 62.5173 194.058 61.664C194.485 60.768 194.805 60.0853 195.018 59.616C195.232 59.1467 195.488 58.6133 195.786 58.016C196.128 57.4187 196.32 57.0133 196.362 56.8C196.405 56.5867 196.362 56.4587 196.234 56.416C196.149 56.3307 196.042 56.3093 195.914 56.352C195.744 56.3947 195.552 56.4587 195.338 56.544C196.277 55.776 196.938 55.392 197.322 55.392C197.706 55.392 197.898 55.6053 197.898 56.032C197.941 56.416 197.834 56.928 197.578 57.568C197.365 58.1653 197.152 58.6773 196.938 59.104C195.914 61.152 195.168 62.8587 194.698 64.224C194.272 65.5467 194.293 66.4 194.762 66.784C194.976 66.9973 195.402 66.848 196.042 66.336C196.682 65.824 197.365 65.184 198.09 64.416C198.816 63.6053 199.52 62.7947 200.202 61.984C200.885 61.1307 201.376 60.4907 201.674 60.064C201.888 59.5947 202.08 59.104 202.25 58.592C202.464 58.0373 202.72 57.4613 203.018 56.864C203.488 55.9253 203.893 55.392 204.234 55.264C204.618 55.0933 204.917 55.136 205.13 55.392C205.386 55.648 205.536 56.0107 205.578 56.48C205.664 56.9493 205.642 57.312 205.514 57.568C205.472 57.3973 205.429 57.248 205.386 57.12C205.301 57.0347 205.216 56.9707 205.13 56.928C205.088 56.8853 204.981 56.928 204.81 57.056C204.341 57.44 203.936 58.016 203.594 58.784C203.253 59.552 202.954 60.3413 202.698 61.152C202.442 61.92 202.229 62.624 202.058 63.264C201.93 63.8613 201.845 64.2027 201.802 64.288C201.376 66.1227 201.632 66.8907 202.57 66.592C203.04 66.464 203.466 66.208 203.85 65.824C204.234 65.3973 204.597 65.0133 204.938 64.672C205.578 63.9893 206.218 63.2213 206.858 62.368C207.541 61.5147 208.053 60.7893 208.394 60.192L208.33 60.896Z" fill="black"/>
<path d="M217.868 60.896C217.74 61.024 217.442 61.472 216.972 62.24C216.503 63.008 215.884 63.8187 215.116 64.672C214.348 65.5253 213.474 66.2933 212.492 66.976C211.511 67.6587 210.466 68 209.356 68H209.036C208.652 67.9573 208.268 67.808 207.884 67.552C207.5 67.2533 207.18 66.8053 206.924 66.208C206.711 65.6107 206.626 64.864 206.668 63.968C206.754 63.0293 207.095 61.8987 207.692 60.576C208.162 59.5093 208.887 58.4853 209.868 57.504C210.85 56.5227 211.938 55.8613 213.132 55.52C214.028 55.264 214.86 55.264 215.628 55.52C216.439 55.776 216.823 56.288 216.78 57.056C216.738 57.7813 216.098 58.72 214.86 59.872C213.623 61.024 211.426 62.368 208.268 63.904C208.226 64.8427 208.354 65.5253 208.652 65.952C208.994 66.336 209.335 66.592 209.676 66.72C210.103 66.8907 210.572 66.9333 211.084 66.848C211.724 66.72 212.364 66.4213 213.004 65.952C213.687 65.44 214.327 64.864 214.924 64.224C215.522 63.584 216.076 62.9227 216.588 62.24C217.1 61.5147 217.548 60.832 217.932 60.192L217.868 60.896ZM213.196 55.776C212.087 56.2453 211.191 56.9067 210.508 57.76C209.868 58.5707 209.378 59.4027 209.036 60.256C208.738 61.1093 208.524 61.856 208.396 62.496C208.311 63.0933 208.268 63.392 208.268 63.392C210.444 62.4533 212.066 61.472 213.132 60.448C214.199 59.424 214.86 58.528 215.116 57.76C215.372 56.9493 215.308 56.352 214.924 55.968C214.54 55.5413 213.964 55.4773 213.196 55.776Z" fill="black"/>
<path d="M219.178 59.552C218.922 60.2773 218.73 60.9173 218.602 61.472C218.516 62.0267 218.431 62.496 218.346 62.88C218.26 63.3493 218.239 63.7547 218.282 64.096C218.282 64.9067 218.495 65.6533 218.922 66.336C219.348 66.976 220.052 67.168 221.034 66.912C221.759 66.7413 222.442 66.4 223.082 65.888C223.764 65.376 224.383 64.8 224.938 64.16C225.535 63.4773 226.09 62.7733 226.602 62.048C227.114 61.3227 227.562 60.64 227.946 60V60.576C227.818 60.7467 227.498 61.216 226.986 61.984C226.516 62.752 225.898 63.584 225.13 64.48C224.362 65.3333 223.466 66.1227 222.442 66.848C221.46 67.5307 220.415 67.872 219.306 67.872C218.324 67.872 217.599 67.4667 217.13 66.656C216.66 65.8027 216.511 64.8853 216.682 63.904C216.767 63.1787 216.959 62.24 217.258 61.088C217.599 59.936 218.26 58.2933 219.242 56.16C220.01 54.4533 220.948 52.448 222.058 50.144C223.167 47.7973 224.34 45.4507 225.578 43.104C226.858 40.7573 228.159 38.5173 229.482 36.384C230.847 34.2507 232.127 32.48 233.322 31.072C234.346 29.92 235.22 29.0453 235.946 28.448C236.671 27.8507 237.268 27.5093 237.738 27.424C238.25 27.3387 238.612 27.4667 238.826 27.808C239.039 28.1067 239.124 28.576 239.082 29.216C238.954 31.1787 238.548 33.12 237.866 35.04C237.183 36.96 236.33 38.8373 235.306 40.672C234.282 42.464 233.151 44.1707 231.914 45.792C230.719 47.4133 229.546 48.8853 228.394 50.208C227.284 51.5307 226.26 52.6613 225.322 53.6C224.383 54.5387 223.679 55.2427 223.21 55.712C222.527 56.352 221.866 56.992 221.226 57.632C220.586 58.272 219.903 58.912 219.178 59.552ZM230.314 35.936C230.058 36.32 229.695 36.96 229.226 37.856C228.756 38.7093 228.244 39.712 227.69 40.864C227.135 42.016 226.538 43.2533 225.898 44.576C225.258 45.8987 224.639 47.2213 224.042 48.544C222.634 51.6587 221.098 55.0507 219.434 58.72C221.61 56.672 223.636 54.6453 225.514 52.64C227.434 50.592 229.14 48.5013 230.634 46.368C232.127 44.192 233.407 41.952 234.474 39.648C235.54 37.3013 236.351 34.8267 236.906 32.224C237.162 31.1573 237.247 30.304 237.162 29.664C237.119 28.9813 236.863 28.704 236.394 28.832C235.924 28.96 235.199 29.5787 234.218 30.688C233.236 31.7547 231.935 33.504 230.314 35.936Z" fill="black"/>
<path d="M229.178 59.552C228.922 60.2773 228.73 60.9173 228.602 61.472C228.516 62.0267 228.431 62.496 228.346 62.88C228.26 63.3493 228.239 63.7547 228.282 64.096C228.282 64.9067 228.495 65.6533 228.922 66.336C229.348 66.976 230.052 67.168 231.034 66.912C231.759 66.7413 232.442 66.4 233.082 65.888C233.764 65.376 234.383 64.8 234.938 64.16C235.535 63.4773 236.09 62.7733 236.602 62.048C237.114 61.3227 237.562 60.64 237.946 60V60.576C237.818 60.7467 237.498 61.216 236.986 61.984C236.516 62.752 235.898 63.584 235.13 64.48C234.362 65.3333 233.466 66.1227 232.442 66.848C231.46 67.5307 230.415 67.872 229.306 67.872C228.324 67.872 227.599 67.4667 227.13 66.656C226.66 65.8027 226.511 64.8853 226.682 63.904C226.767 63.1787 226.959 62.24 227.258 61.088C227.599 59.936 228.26 58.2933 229.242 56.16C230.01 54.4533 230.948 52.448 232.058 50.144C233.167 47.7973 234.34 45.4507 235.578 43.104C236.858 40.7573 238.159 38.5173 239.482 36.384C240.847 34.2507 242.127 32.48 243.322 31.072C244.346 29.92 245.22 29.0453 245.946 28.448C246.671 27.8507 247.268 27.5093 247.738 27.424C248.25 27.3387 248.612 27.4667 248.826 27.808C249.039 28.1067 249.124 28.576 249.082 29.216C248.954 31.1787 248.548 33.12 247.866 35.04C247.183 36.96 246.33 38.8373 245.306 40.672C244.282 42.464 243.151 44.1707 241.914 45.792C240.719 47.4133 239.546 48.8853 238.394 50.208C237.284 51.5307 236.26 52.6613 235.322 53.6C234.383 54.5387 233.679 55.2427 233.21 55.712C232.527 56.352 231.866 56.992 231.226 57.632C230.586 58.272 229.903 58.912 229.178 59.552ZM240.314 35.936C240.058 36.32 239.695 36.96 239.226 37.856C238.756 38.7093 238.244 39.712 237.69 40.864C237.135 42.016 236.538 43.2533 235.898 44.576C235.258 45.8987 234.639 47.2213 234.042 48.544C232.634 51.6587 231.098 55.0507 229.434 58.72C231.61 56.672 233.636 54.6453 235.514 52.64C237.434 50.592 239.14 48.5013 240.634 46.368C242.127 44.192 243.407 41.952 244.474 39.648C245.54 37.3013 246.351 34.8267 246.906 32.224C247.162 31.1573 247.247 30.304 247.162 29.664C247.119 28.9813 246.863 28.704 246.394 28.832C245.924 28.96 245.199 29.5787 244.218 30.688C243.236 31.7547 241.935 33.504 240.314 35.936Z" fill="black"/>
<path d="M247.306 60.896C247.178 61.024 246.879 61.472 246.41 62.24C245.94 63.008 245.322 63.8187 244.554 64.672C243.786 65.5253 242.911 66.2933 241.93 66.976C240.948 67.6587 239.903 68 238.794 68H238.474C238.09 67.9573 237.706 67.808 237.322 67.552C236.938 67.2533 236.618 66.8053 236.362 66.208C236.148 65.6107 236.063 64.864 236.106 63.968C236.191 63.0293 236.532 61.8987 237.13 60.576C237.599 59.5093 238.324 58.4853 239.306 57.504C240.287 56.5227 241.375 55.8613 242.57 55.52C243.466 55.264 244.298 55.264 245.066 55.52C245.876 55.776 246.26 56.288 246.218 57.056C246.175 57.7813 245.535 58.72 244.298 59.872C243.06 61.024 240.863 62.368 237.706 63.904C237.663 64.8427 237.791 65.5253 238.09 65.952C238.431 66.336 238.772 66.592 239.114 66.72C239.54 66.8907 240.01 66.9333 240.522 66.848C241.162 66.72 241.802 66.4213 242.442 65.952C243.124 65.44 243.764 64.864 244.362 64.224C244.959 63.584 245.514 62.9227 246.026 62.24C246.538 61.5147 246.986 60.832 247.37 60.192L247.306 60.896ZM242.634 55.776C241.524 56.2453 240.628 56.9067 239.946 57.76C239.306 58.5707 238.815 59.4027 238.474 60.256C238.175 61.1093 237.962 61.856 237.834 62.496C237.748 63.0933 237.706 63.392 237.706 63.392C239.882 62.4533 241.503 61.472 242.57 60.448C243.636 59.424 244.298 58.528 244.554 57.76C244.81 56.9493 244.746 56.352 244.362 55.968C243.978 55.5413 243.402 55.4773 242.634 55.776Z" fill="black"/>
<path d="M166.718 143.176C168.808 144.84 171.091 145.715 173.566 145.8C176.083 145.885 178.643 145.437 181.246 144.456C183.891 143.475 186.515 142.045 189.118 140.168C191.763 138.333 194.28 136.328 196.67 134.152C195.176 135.603 193.598 136.989 191.934 138.312C190.312 139.677 188.606 140.915 186.814 142.024C185.064 143.133 183.208 144.093 181.246 144.904C179.283 145.715 177.256 146.163 175.166 146.248C172.904 146.376 170.771 145.971 168.766 145.032C166.76 144.136 165.054 142.685 163.646 140.68C162.323 138.803 161.342 136.755 160.702 134.536C160.062 132.36 159.635 130.163 159.422 127.944C159.08 123.208 159.635 118.557 161.086 113.992C162.579 109.384 164.691 105.16 167.422 101.32C166.995 101.789 166.568 102.259 166.142 102.728C165.758 103.155 165.374 103.603 164.99 104.072C163.027 106.419 161.214 108.872 159.55 111.432C157.886 113.992 156.328 116.616 154.878 119.304C153.427 121.992 152.062 124.744 150.782 127.56C149.502 130.376 148.243 133.213 147.006 136.072C147.006 136.029 146.92 135.987 146.75 135.944C146.622 135.901 146.558 135.859 146.558 135.816C146.728 135.219 146.878 134.643 147.006 134.088C147.176 133.576 147.347 133.021 147.518 132.424C148.115 130.291 148.648 128.179 149.118 126.088C149.587 123.997 150.014 121.864 150.398 119.688C150.696 118.152 150.974 116.616 151.23 115.08C151.528 113.544 151.848 112.029 152.19 110.536C152.702 108.232 153.278 105.949 153.918 103.688C154.6 101.384 155.454 99.1653 156.478 97.032C154.344 100.445 152.382 103.987 150.59 107.656C148.84 111.283 146.899 115.123 144.766 119.176C143.656 121.267 142.526 123.336 141.374 125.384C140.222 127.389 138.963 129.373 137.598 131.336C136.744 132.573 135.742 133.875 134.59 135.24C133.48 136.605 132.243 137.821 130.878 138.888C129.512 139.997 128.04 140.829 126.462 141.384C124.883 141.981 123.198 142.088 121.406 141.704C120.296 141.448 119.358 140.936 118.59 140.168C117.822 139.443 117.246 138.568 116.862 137.544C116.051 135.453 115.816 133.256 116.158 130.952C116.542 128.648 117.203 126.429 118.142 124.296C119.08 122.291 120.211 120.413 121.534 118.664C122.899 116.872 124.456 115.293 126.206 113.928C126.846 113.416 127.528 112.947 128.254 112.52C129.022 112.051 129.832 111.645 130.686 111.304C132.435 110.621 134.12 110.195 135.742 110.024C137.363 109.811 138.792 109.747 140.03 109.832C141.139 109.917 141.95 110.131 142.462 110.472C142.974 110.771 143.208 111.112 143.166 111.496C143.166 111.837 142.888 112.179 142.334 112.52C141.779 112.819 140.99 113.011 139.966 113.096C140.136 113.096 140.328 113.032 140.542 112.904C140.755 112.733 140.926 112.541 141.054 112.328C141.182 112.115 141.224 111.901 141.182 111.688C141.182 111.432 141.032 111.219 140.734 111.048C140.136 110.707 139.475 110.515 138.75 110.472C138.024 110.429 137.278 110.429 136.51 110.472C134.291 110.557 132.179 111.069 130.174 112.008C128.168 112.904 126.376 114.12 124.798 115.656C123.134 117.277 121.768 119.112 120.702 121.16C119.635 123.208 118.824 125.363 118.27 127.624C118.014 128.563 117.8 129.629 117.63 130.824C117.459 132.019 117.416 133.213 117.502 134.408C117.587 135.645 117.843 136.776 118.27 137.8C118.739 138.867 119.507 139.699 120.574 140.296C121.384 140.808 122.259 141.085 123.198 141.128C124.179 141.171 125.139 141.043 126.078 140.744C127.059 140.445 127.998 140.04 128.894 139.528C129.79 139.016 130.6 138.461 131.326 137.864C133.118 136.371 134.675 134.685 135.998 132.808C137.363 130.888 138.622 128.925 139.774 126.92C141.523 123.891 143.123 120.797 144.574 117.64C146.067 114.483 147.71 111.176 149.502 107.72C150.568 105.587 151.656 103.496 152.766 101.448C153.918 99.3573 155.176 97.352 156.542 95.432C156.968 94.8347 157.587 94.0453 158.398 93.064C159.251 92.04 160.168 91.0373 161.15 90.056C162.131 89.032 163.134 88.1573 164.158 87.432C165.224 86.664 166.184 86.2373 167.038 86.152C167.422 86.1093 167.635 86.1733 167.678 86.344C167.763 86.5147 167.763 86.728 167.678 86.984C167.592 87.24 167.443 87.496 167.23 87.752C167.059 88.008 166.91 88.1787 166.782 88.264C167.038 87.88 167.144 87.6027 167.102 87.432C167.102 87.2187 166.995 87.0907 166.782 87.048C166.568 87.0053 166.312 87.0267 166.014 87.112C165.715 87.1973 165.416 87.304 165.118 87.432C164.52 87.7307 163.966 88.072 163.454 88.456C162.942 88.84 162.451 89.2667 161.982 89.736C159.55 92.168 157.715 95.0267 156.478 98.312C155.624 100.531 155.006 102.813 154.622 105.16C154.28 107.507 153.96 109.853 153.662 112.2C153.32 114.632 152.958 117.021 152.574 119.368C152.19 121.715 151.656 124.04 150.974 126.344C151.699 124.851 152.403 123.379 153.086 121.928C153.811 120.435 154.558 118.941 155.326 117.448C156.435 115.357 157.587 113.288 158.782 111.24C160.019 109.192 161.32 107.208 162.686 105.288C165.374 101.576 168.488 98.2053 172.03 95.176C175.528 92.1893 179.368 89.6507 183.55 87.56C184.488 87.0907 185.47 86.6427 186.494 86.216C187.56 85.7467 188.627 85.4053 189.694 85.192C189.992 85.1067 190.312 85.064 190.654 85.064C191.038 85.064 191.208 85.256 191.166 85.64C191.123 85.9813 190.931 86.28 190.59 86.536C190.291 86.792 189.992 86.9627 189.694 87.048C189.822 87.048 189.928 86.8987 190.014 86.6C190.142 86.2587 190.142 86.0453 190.014 85.96C189.63 85.6613 188.904 85.6827 187.838 86.024C186.814 86.3653 185.619 86.8987 184.254 87.624C182.931 88.3493 181.544 89.224 180.094 90.248C178.686 91.272 177.406 92.296 176.254 93.32C172.67 96.4347 169.683 100.04 167.294 104.136C164.947 108.189 163.219 112.52 162.11 117.128C161.598 119.176 161.214 121.395 160.958 123.784C160.702 126.131 160.702 128.477 160.958 130.824C161.214 133.171 161.79 135.411 162.686 137.544C163.582 139.72 164.926 141.597 166.718 143.176Z" fill="black"/>
<path d="M183.287 125.576C183.074 125.917 182.669 126.493 182.071 127.304C181.517 128.115 180.877 128.947 180.151 129.8C179.426 130.653 178.658 131.421 177.847 132.104C177.079 132.744 176.397 133.064 175.799 133.064C175.287 133.064 174.946 132.787 174.775 132.232C174.647 131.677 174.754 130.675 175.095 129.224L175.671 127.304C175.287 128.2 174.733 129.053 174.007 129.864C173.282 130.632 172.535 131.293 171.767 131.848C170.999 132.36 170.253 132.723 169.527 132.936C168.802 133.107 168.226 133.043 167.799 132.744C167.373 132.445 167.159 131.848 167.159 130.952C167.159 130.056 167.501 128.776 168.183 127.112C168.482 126.429 168.866 125.747 169.335 125.064C169.847 124.339 170.381 123.677 170.935 123.08C171.533 122.483 172.13 121.971 172.727 121.544C173.367 121.075 173.986 120.733 174.583 120.52C175.181 120.307 175.821 120.243 176.503 120.328C177.229 120.413 177.762 120.776 178.103 121.416C178.53 120.733 178.914 120.371 179.255 120.328C179.597 120.243 179.853 120.328 180.023 120.584C180.237 120.84 180.365 121.181 180.407 121.608C180.45 121.992 180.407 122.312 180.279 122.568C180.279 122.355 180.258 122.184 180.215 122.056C180.13 121.757 179.917 121.757 179.575 122.056C179.106 122.44 178.701 123.016 178.359 123.784C178.018 124.552 177.719 125.32 177.463 126.088C177.207 126.856 176.994 127.56 176.823 128.2C176.695 128.797 176.61 129.16 176.567 129.288C176.311 130.227 176.269 130.888 176.439 131.272C176.61 131.613 176.909 131.72 177.335 131.592C177.805 131.464 178.317 131.144 178.871 130.632C179.426 130.12 179.981 129.544 180.535 128.904C181.09 128.221 181.602 127.56 182.071 126.92C182.541 126.237 182.903 125.661 183.159 125.192L183.287 125.576ZM176.439 125.064C177.25 123.357 177.463 122.141 177.079 121.416C176.695 120.691 176.034 120.435 175.095 120.648C174.157 120.861 173.111 121.565 171.959 122.76C170.807 123.955 169.847 125.64 169.079 127.816C168.567 129.309 168.503 130.376 168.887 131.016C169.314 131.656 169.933 131.869 170.743 131.656C171.597 131.443 172.557 130.803 173.623 129.736C174.69 128.627 175.629 127.069 176.439 125.064Z" fill="black"/>
<path d="M192.553 126.088C192.211 126.6 191.742 127.261 191.145 128.072C190.547 128.84 189.907 129.608 189.225 130.376C188.542 131.144 187.838 131.805 187.113 132.36C186.43 132.872 185.811 133.128 185.257 133.128C184.915 133.128 184.638 132.979 184.425 132.68C184.211 132.381 184.19 131.869 184.361 131.144C184.574 130.205 184.873 129.309 185.257 128.456C185.641 127.56 186.089 126.621 186.601 125.64C186.771 125.256 186.899 124.829 186.985 124.36C187.113 123.848 186.963 123.421 186.537 123.08C186.451 122.995 186.217 122.824 185.833 122.568C185.491 122.312 185.299 122.205 185.257 122.248C185.129 122.547 184.915 122.952 184.617 123.464C184.318 123.933 184.019 124.403 183.721 124.872C183.337 125.427 182.953 126.024 182.569 126.664C182.483 126.749 182.398 126.771 182.313 126.728C182.27 126.643 182.27 126.557 182.313 126.472C182.313 126.472 182.441 126.28 182.697 125.896C182.953 125.512 183.23 125.085 183.529 124.616C183.827 124.104 184.105 123.613 184.361 123.144C184.659 122.675 184.851 122.333 184.937 122.12C183.913 121.608 183.401 121.032 183.401 120.392C183.401 119.709 183.593 119.176 183.977 118.792C184.361 118.408 184.787 118.301 185.257 118.472C185.726 118.6 185.918 119.197 185.833 120.264C185.79 120.605 185.726 120.947 185.641 121.288C185.555 121.587 185.47 121.8 185.385 121.928C185.683 122.099 186.046 122.269 186.473 122.44C186.899 122.568 187.283 122.717 187.625 122.888C188.009 123.059 188.265 123.272 188.393 123.528C188.521 123.741 188.563 123.976 188.521 124.232C188.521 124.488 188.457 124.744 188.329 125C188.243 125.213 188.158 125.405 188.073 125.576C187.689 126.301 187.347 127.069 187.049 127.88C186.75 128.648 186.473 129.459 186.217 130.312C185.961 131.464 186.025 132.04 186.409 132.04C186.793 132.04 187.326 131.741 188.009 131.144C188.691 130.504 189.438 129.672 190.249 128.648C191.102 127.624 191.827 126.643 192.425 125.704L192.553 126.088ZM185.065 121.8C185.235 121.501 185.363 121.16 185.449 120.776C185.577 120.392 185.577 120.029 185.449 119.688C185.235 119.389 185.022 119.304 184.809 119.432C184.595 119.56 184.446 119.773 184.361 120.072C184.275 120.371 184.275 120.712 184.361 121.096C184.446 121.437 184.681 121.672 185.065 121.8Z" fill="black"/>
<path d="M224.902 112.264C226.865 112.136 228.742 111.688 230.534 110.92C232.326 110.109 233.969 109.064 235.462 107.784C234.438 109.107 233.286 110.152 232.006 110.92C230.726 111.688 229.34 112.285 227.846 112.712C226.396 113.096 224.86 113.352 223.238 113.48C221.617 113.565 219.974 113.565 218.31 113.48C216.39 113.395 214.449 113.267 212.486 113.096C210.566 112.925 208.54 112.84 206.406 112.84C205.212 112.84 203.996 112.84 202.758 112.84C201.564 112.84 200.348 112.861 199.11 112.904C199.025 113.117 198.918 113.309 198.79 113.48C198.662 113.651 198.556 113.843 198.47 114.056C197.745 115.464 197.062 116.893 196.422 118.344C195.782 119.752 195.164 121.203 194.566 122.696C194.438 122.952 194.246 123.464 193.99 124.232C193.734 124.957 193.457 125.768 193.158 126.664C192.902 127.56 192.689 128.435 192.518 129.288C192.348 130.099 192.305 130.717 192.39 131.144C192.518 131.571 192.796 131.741 193.222 131.656C193.692 131.528 194.417 130.931 195.398 129.864C196.124 129.139 196.785 128.349 197.382 127.496C198.022 126.643 198.556 125.875 198.982 125.192V125.768C198.641 126.323 198.15 127.027 197.51 127.88C196.913 128.691 196.252 129.48 195.526 130.248C194.886 130.973 194.225 131.613 193.542 132.168C192.902 132.723 192.348 133.021 191.878 133.064C191.452 133.149 191.153 132.936 190.982 132.424C190.854 131.869 190.961 130.845 191.302 129.352C191.9 126.536 192.753 123.784 193.862 121.096C195.014 118.408 196.252 115.699 197.574 112.968C197.446 112.968 197.318 112.989 197.19 113.032C197.062 113.032 196.934 113.032 196.806 113.032C193.777 113.245 190.79 113.629 187.846 114.184C184.902 114.739 181.809 115.464 178.566 116.36C178.865 116.275 179.142 116.189 179.398 116.104C179.654 115.976 179.91 115.869 180.166 115.784C186.012 113.992 191.942 112.776 197.958 112.136C198.684 110.6 199.494 108.979 200.39 107.272C201.286 105.523 202.246 103.795 203.27 102.088C204.337 100.381 205.468 98.76 206.662 97.224C207.857 95.6453 209.116 94.2373 210.438 93C210.993 92.4453 211.462 92.168 211.846 92.168C212.273 92.1253 212.593 92.232 212.806 92.488C213.062 92.7013 213.212 93 213.254 93.384C213.297 93.768 213.254 94.088 213.126 94.344C213.126 94.1733 213.105 94.024 213.062 93.896C212.977 93.64 212.764 93.5973 212.422 93.768C211.185 94.536 209.948 95.6453 208.71 97.096C207.473 98.5467 206.3 100.147 205.19 101.896C204.081 103.603 203.036 105.352 202.054 107.144C201.116 108.936 200.284 110.557 199.558 112.008C200.028 112.008 200.518 112.008 201.03 112.008C201.542 111.965 202.289 111.923 203.27 111.88C205.062 111.837 206.833 111.859 208.582 111.944C210.374 112.029 212.166 112.136 213.958 112.264C215.793 112.349 217.606 112.413 219.398 112.456C221.233 112.499 223.068 112.435 224.902 112.264Z" fill="black"/>
<path d="M209.52 124.872C209.606 124.744 209.691 124.723 209.776 124.808C209.862 124.893 209.862 124.979 209.776 125.064C209.478 125.533 209.179 125.981 208.88 126.408C208.624 126.835 208.326 127.219 207.984 127.56C207.643 127.859 207.216 128.136 206.704 128.392C206.235 128.648 205.659 128.861 204.976 129.032C204.251 129.971 203.419 130.845 202.48 131.656C201.542 132.467 200.39 132.915 199.024 133C198.086 133.085 197.424 132.893 197.04 132.424C196.656 131.912 196.464 131.293 196.464 130.568C196.464 129.843 196.571 129.075 196.784 128.264C197.04 127.453 197.296 126.771 197.552 126.216C198.406 124.595 199.579 123.165 201.072 121.928C201.414 121.629 201.862 121.331 202.416 121.032C202.971 120.733 203.526 120.52 204.08 120.392C204.678 120.221 205.232 120.2 205.744 120.328C206.299 120.456 206.726 120.797 207.024 121.352C207.28 121.821 207.387 122.376 207.344 123.016C207.344 123.656 207.238 124.317 207.024 125C206.811 125.683 206.534 126.344 206.192 126.984C205.894 127.581 205.595 128.115 205.296 128.584C205.766 128.456 206.171 128.307 206.512 128.136C206.854 127.965 207.174 127.752 207.472 127.496C207.814 127.24 208.134 126.899 208.432 126.472C208.774 126.045 209.136 125.512 209.52 124.872ZM206 123.592C206.214 122.269 206.064 121.416 205.552 121.032C205.083 120.648 204.443 120.627 203.632 120.968C203.035 121.224 202.48 121.779 201.968 122.632C201.499 123.485 201.179 124.381 201.008 125.32C200.88 126.216 201.008 127.027 201.392 127.752C201.776 128.477 202.566 128.84 203.76 128.84H204.016C204.571 127.816 205.019 126.792 205.36 125.768C205.702 124.744 205.915 124.019 206 123.592ZM199.728 132.552C200.667 132.467 201.456 132.083 202.096 131.4C202.779 130.717 203.355 129.992 203.824 129.224C202.971 129.224 202.288 129.075 201.776 128.776C201.307 128.435 200.944 127.987 200.688 127.432C200.475 126.877 200.368 126.259 200.368 125.576C200.411 124.893 200.539 124.189 200.752 123.464C200.411 123.933 200.006 124.68 199.536 125.704C199.11 126.685 198.768 127.688 198.512 128.712C198.256 129.736 198.171 130.653 198.256 131.464C198.384 132.232 198.875 132.595 199.728 132.552Z" fill="black"/>
<path d="M217.143 125.704C217.186 125.704 217.25 125.747 217.335 125.832L217.399 125.896C216.845 126.792 216.269 127.496 215.671 128.008C215.117 128.52 214.477 128.904 213.751 129.16C213.581 130.312 213.197 131.208 212.599 131.848C212.045 132.445 211.447 132.829 210.807 133C210.21 133.171 209.655 133.171 209.143 133C208.674 132.787 208.482 132.445 208.567 131.976C208.653 131.336 208.994 130.739 209.591 130.184C210.189 129.629 211.106 129.224 212.343 128.968C212.343 128.584 212.279 128.157 212.151 127.688C212.023 127.176 211.874 126.664 211.703 126.152C211.533 125.64 211.341 125.149 211.127 124.68C210.957 124.211 210.829 123.827 210.743 123.528C210.445 123.997 210.167 124.424 209.911 124.808C209.698 125.192 209.485 125.555 209.271 125.896C209.058 126.28 208.823 126.621 208.567 126.92L208.311 126.728C208.567 126.429 208.823 126.067 209.079 125.64C209.293 125.299 209.527 124.915 209.783 124.488C210.039 124.019 210.317 123.549 210.615 123.08V122.952C210.402 121.843 210.466 120.861 210.807 120.008C211.191 119.112 211.618 118.493 212.087 118.152C212.429 117.896 212.642 118.003 212.727 118.472C212.813 119.069 212.706 119.667 212.407 120.264C212.109 120.861 211.789 121.523 211.447 122.248C211.49 122.845 211.618 123.4 211.831 123.912C212.087 124.424 212.343 124.936 212.599 125.448C212.898 125.96 213.154 126.493 213.367 127.048C213.623 127.56 213.773 128.115 213.815 128.712C215.053 128.328 216.162 127.325 217.143 125.704ZM212.343 118.984C212.386 118.557 212.343 118.365 212.215 118.408C212.13 118.408 212.023 118.557 211.895 118.856C211.767 119.155 211.661 119.539 211.575 120.008C211.49 120.477 211.447 120.968 211.447 121.48C211.661 121.096 211.853 120.712 212.023 120.328C212.194 119.901 212.301 119.453 212.343 118.984ZM210.551 131.72C211.234 131.635 211.661 131.357 211.831 130.888C212.045 130.419 212.194 129.907 212.279 129.352C211.725 129.48 211.255 129.672 210.871 129.928C210.53 130.184 210.274 130.461 210.103 130.76C209.933 131.016 209.869 131.251 209.911 131.464C209.997 131.635 210.21 131.72 210.551 131.72Z" fill="black"/>
</g>
<defs>
<filter id="filter0_d_1520_1235" x="0" y="0" width="324" height="183" filterUnits="userSpaceOnUse" color-interpolation-filters="sRGB">
<feFlood flood-opacity="0" result="BackgroundImageFix"/>
<feColorMatrix in="SourceAlpha" type="matrix" values="0 0 0 0 0 0 0 0 0 0 0 0 0 0 0 0 0 0 127 0" result="hardAlpha"/>
<feOffset dy="3"/>
<feGaussianBlur stdDeviation="1"/>
<feComposite in2="hardAlpha" operator="out"/>
<feColorMatrix type="matrix" values="0 0 0 0 0 0 0 0 0 0 0 0 0 0 0 0 0 0 0.25 0"/>
<feBlend mode="normal" in2="BackgroundImageFix" result="effect1_dropShadow_1520_1235"/>
<feBlend mode="normal" in="SourceGraphic" in2="effect1_dropShadow_1520_1235" result="shape"/>
</filter>
</defs>
</svg>
