<svg width="206" height="19" viewBox="0 0 206 19" fill="none" xmlns="http://www.w3.org/2000/svg">
<g filter="url(#filter0_d_1429_1236)">
<path d="M2.85645 0.268555H3.27539C3.36133 0.268555 3.4043 0.315104 3.4043 0.408203L3.68359 0.268555H8.80762C10.1468 0.268555 10.9775 1.14583 11.2998 2.90039C11.3929 3.55924 11.4395 3.92806 11.4395 4.00684C10.9525 5.66829 9.52018 6.49902 7.14258 6.49902L6.87402 6.35938C6.70931 6.45247 6.52311 6.49902 6.31543 6.49902H5.76758C5.76758 6.59928 5.72103 6.73535 5.62793 6.90723C5.72103 7.5446 5.76758 8.05306 5.76758 8.43262V9.13086C6.34049 9.68229 7.12467 9.95801 8.12012 9.95801V10.5166C8.12012 10.7386 7.5651 10.9212 6.45508 11.0645L5.76758 10.9248C5.43099 10.9248 5.01562 10.9714 4.52148 11.0645C3.03906 11 2.29785 10.8174 2.29785 10.5166V10.0977C2.29785 9.97591 3.03906 9.78971 4.52148 9.53906L4.65039 9.27051C4.65039 9.08431 4.60742 8.99121 4.52148 8.99121L4.65039 7.60547V6.49902C4.65039 6.1696 4.60742 5.75423 4.52148 5.25293L4.65039 4.97363C4.56445 4.69434 4.47493 4.55469 4.38184 4.55469C4.56087 3.61654 4.65039 2.60319 4.65039 1.51465C3.17513 1.38574 2.4375 1.10645 2.4375 0.676758C2.4375 0.547852 2.57715 0.411784 2.85645 0.268555ZM5.76758 1.375C5.76758 1.53255 5.67448 1.80827 5.48828 2.20215C5.67448 3.3623 5.76758 4.01042 5.76758 4.14648L5.62793 4.41504C5.72103 4.57259 5.76758 4.80534 5.76758 5.11328H6.73438C7.17122 5.11328 7.63314 5.15983 8.12012 5.25293C9.40918 5.25293 10.1934 4.60482 10.4727 3.30859C10.4727 1.92643 9.59538 1.23535 7.84082 1.23535C6.68066 1.32845 5.98958 1.375 5.76758 1.375Z" fill="black"/>
<path d="M19.3779 2.88965H20.7637C21.4082 3.37663 21.8701 3.92806 22.1494 4.54395C22.1494 5.74707 21.6875 6.34863 20.7637 6.34863C20.334 6.34863 20.0117 5.79362 19.7969 4.68359C19.8828 4.68359 19.9258 4.63704 19.9258 4.54395L19.3779 4.27539C17.6234 4.92708 16.7461 6.08008 16.7461 7.73438C16.8392 8.88021 16.8857 9.47819 16.8857 9.52832C18.4541 9.52832 19.2383 9.71452 19.2383 10.0869V10.5059C19.2383 10.6491 19.0521 10.8317 18.6797 11.0537H17.3047C16.9896 11.0537 16.7568 11.1003 16.6064 11.1934L15.7793 11.0537H13.6953C13.5521 11.0537 13.3695 10.8711 13.1475 10.5059V10.0869C13.1475 9.9222 13.4232 9.69303 13.9746 9.39941L14.6729 9.52832H14.9414L15.2207 9.39941C15.2207 9.21322 15.1742 9.12012 15.0811 9.12012C15.1742 8.19629 15.2207 7.50163 15.2207 7.03613V5.52148C15.2207 4.78385 14.8984 4.41504 14.2539 4.41504C13.5163 4.41504 13.1475 4.13574 13.1475 3.57715L13.835 3.0293H15.2207C15.9225 3.0293 16.4775 3.35156 16.8857 3.99609C18.2106 3.25846 19.0413 2.88965 19.3779 2.88965Z" fill="black"/>
<path d="M28.4551 2.88965H29.0137C29.9232 2.88965 30.89 3.72038 31.9141 5.38184C31.9141 5.8903 32.0537 6.44173 32.333 7.03613C32.333 8.91243 31.5488 10.2516 29.9805 11.0537C29.4434 11.111 29.028 11.2507 28.7344 11.4727H28.0361C25.7301 10.778 24.5771 9.57845 24.5771 7.87402V6.48828C25.2933 4.08919 26.5859 2.88965 28.4551 2.88965ZM26.1025 6.62793C26.1025 8.38249 26.5179 9.25977 27.3486 9.25977C27.3701 9.40299 27.7389 9.58561 28.4551 9.80762C29.5221 9.4209 30.2598 8.86947 30.668 8.15332C30.5749 7.64486 30.5283 7.27246 30.5283 7.03613L30.668 6.48828C30.4388 5.74349 29.9303 5.05241 29.1426 4.41504H27.8965C26.7005 5.06673 26.1025 5.80436 26.1025 6.62793Z" fill="black"/>
<path d="M40.6367 0.429688C41.0951 0.429688 41.5104 0.751953 41.8828 1.39648V1.67578C41.8255 1.88346 41.4567 2.15918 40.7764 2.50293C39.9456 2.29525 39.5303 2.0625 39.5303 1.80469V1.39648C39.8525 0.909505 40.2214 0.58724 40.6367 0.429688ZM40.2178 3.19043C41.1416 3.31217 41.6035 3.59147 41.6035 4.02832C41.6035 4.20736 41.557 4.29688 41.4639 4.29688L41.6035 5.27441V5.96191C41.6035 6.1696 41.557 6.35579 41.4639 6.52051L41.7432 7.34766L41.6035 8.1748C41.7897 8.77637 41.8828 9.19173 41.8828 9.4209V9.7002C41.8828 10.0081 41.7897 10.6562 41.6035 11.6445L41.7432 12.332C41.6357 12.332 41.4495 12.7008 41.1846 13.4385C40.9912 13.639 40.4398 13.9613 39.5303 14.4053H38.5527C36.9844 13.9255 36.2002 13.2809 36.2002 12.4717V10.9463C36.6156 10.3018 37.0775 9.97949 37.5859 9.97949C38.1732 10.2301 38.6351 10.6455 38.9717 11.2256C38.6208 11.8701 38.3916 12.1924 38.2842 12.1924C38.4632 12.4932 38.5527 12.7259 38.5527 12.8906H39.251C39.7093 12.8906 40.0316 12.6579 40.2178 12.1924L40.0781 11.3652C40.1712 10.5417 40.2643 10.0332 40.3574 9.83984C40.2643 9.56055 40.1712 9.4209 40.0781 9.4209C40.2643 8.69043 40.3574 7.81315 40.3574 6.78906V5.13477C40.3574 5.04167 40.1712 4.90202 39.7988 4.71582L39.5303 4.85547H39.3906C37.9154 4.64062 37.1777 4.45443 37.1777 4.29688V3.74902C37.1777 3.4554 38.1911 3.26921 40.2178 3.19043Z" fill="black"/>
<path d="M49.7461 2.88965H50.9922C51.9303 2.88965 52.8076 3.81348 53.624 5.66113C53.624 6.0765 53.6706 6.35221 53.7637 6.48828C53.7637 7.13281 52.6572 7.45508 50.4443 7.45508C50.2868 7.54818 50.054 7.59473 49.7461 7.59473C49.7461 7.40853 49.653 7.31543 49.4668 7.31543L47.8125 7.73438V8.22852C48.278 9.09505 49.0156 9.59993 50.0254 9.74316H50.165C51.0745 9.19889 51.7656 8.69401 52.2383 8.22852C52.3385 8.22135 52.4352 8.21777 52.5283 8.21777C53.3519 8.21777 53.7637 8.42546 53.7637 8.84082C53.7637 9.76465 52.7038 10.5023 50.584 11.0537H48.7793C46.8385 10.3304 45.8682 8.80859 45.8682 6.48828L46.8457 4.27539C47.6263 3.35156 48.5931 2.88965 49.7461 2.88965ZM47.9844 4.96289C48.0918 5.80794 48.2529 6.23047 48.4678 6.23047H49.2627C51.0602 6.16602 51.959 5.85091 51.959 5.28516C51.959 4.54036 51.2715 4.06413 49.8965 3.85645C49.0443 4.24316 48.4069 4.61198 47.9844 4.96289Z" fill="black"/>
<path d="M59.8223 0.257812H60.1016C60.3809 0.350911 60.5205 0.626628 60.5205 1.08496V2.88965L60.6602 3.16895C61.5768 3.07585 62.2679 3.0293 62.7334 3.0293H63.4209C63.5713 3.0293 63.7575 3.21191 63.9795 3.57715V3.85645C63.693 3.86361 63.2311 4.0498 62.5938 4.41504L61.9062 4.27539H61.4873C61.0075 4.27539 60.6852 4.50456 60.5205 4.96289C60.6995 5.26367 60.7891 5.53939 60.7891 5.79004L60.6602 6.06934C60.7461 6.23405 60.7891 6.42025 60.7891 6.62793C60.61 6.65658 60.5205 6.74967 60.5205 6.90723V7.17578C60.6995 8.83724 60.9287 9.66797 61.208 9.66797H61.4873C62.4111 9.10221 62.873 8.22493 62.873 7.03613L63.5605 6.90723C63.8398 7.2653 63.9795 7.54102 63.9795 7.73438C63.9795 9.94727 63.2419 11.0537 61.7666 11.0537H60.9287C59.6396 10.6742 58.9951 9.79688 58.9951 8.42188L59.2744 7.87402C59.2744 7.78092 59.2279 7.73438 59.1348 7.73438L59.2744 6.76758V4.54395C59.1813 4.27181 58.902 4.13574 58.4365 4.13574C58.2861 4.13574 57.7347 4.18229 56.7822 4.27539L56.3633 3.57715C56.4993 3.21191 56.639 3.0293 56.7822 3.0293H58.168C58.3971 3.0293 58.8125 2.9362 59.4141 2.75V1.08496C59.4714 0.533529 59.6074 0.257812 59.8223 0.257812Z" fill="black"/>
<path d="M71.3379 2.88965C71.9681 2.88965 72.7523 3.11882 73.6904 3.57715C73.7191 3.39095 73.8122 3.29785 73.9697 3.29785H74.1094C74.4746 3.29785 74.6572 4.03906 74.6572 5.52148L74.1094 5.92969H73.8301C72.9277 4.64062 72.1436 3.99609 71.4775 3.99609C69.9092 3.99609 69.125 4.45801 69.125 5.38184V5.52148C69.125 5.82227 69.6764 6.00488 70.7793 6.06934L72.0254 5.92969C72.3333 6.11589 72.6126 6.20898 72.8633 6.20898H73.8301C74.5677 6.875 74.9365 7.56608 74.9365 8.28223L74.7969 8.56152C74.7969 8.65462 74.8434 8.70117 74.9365 8.70117C74.9365 9.67513 74.3815 10.3662 73.2715 10.7744C72.7917 10.8675 72.3333 10.9141 71.8965 10.9141H71.1982C70.7686 10.9141 70.0775 10.6849 69.125 10.2266C68.9746 10.5918 68.6523 10.7744 68.1582 10.7744H67.8789C67.7214 10.7744 67.5352 10.4987 67.3203 9.94727L67.7393 8.98047L67.5996 8.14258V7.87402C67.6283 7.68783 67.7214 7.59473 67.8789 7.59473H68.7061C69.415 8.97689 70.3389 9.66797 71.4775 9.66797H72.584C73.4147 9.08073 73.8301 8.66536 73.8301 8.42188C73.7083 7.92773 73.4792 7.55892 73.1426 7.31543C73.0495 7.31543 73.0029 7.36198 73.0029 7.45508L71.3379 7.31543H70.2314C68.57 6.87858 67.7393 6.2806 67.7393 5.52148C67.7393 3.98177 68.7526 3.10449 70.7793 2.88965H71.3379Z" fill="black"/>
<path d="M92.2852 0.0107422C92.6719 0.0107422 93.1338 0.103841 93.6709 0.290039C93.8285 0.19694 94.0111 0.150391 94.2188 0.150391C94.9564 0.150391 95.3252 0.519206 95.3252 1.25684V3.88867C95.3252 3.98177 95.2786 4.02832 95.1855 4.02832L95.3252 4.29688V8.03516L95.4648 9.4209H96.1631C96.6572 9.4209 96.9795 9.6071 97.1299 9.97949V10.2588C96.9795 10.624 96.6572 10.8066 96.1631 10.8066H95.4648C95.3574 10.8066 94.849 10.7135 93.9395 10.5273C93.7031 10.5273 93.1051 10.7135 92.1455 11.0859C90.0186 10.6849 88.9551 9.85417 88.9551 8.59375C88.776 8.29297 88.6865 8.01725 88.6865 7.7666V6.38086C89.0518 4.25391 89.6963 3.19043 90.6201 3.19043C90.6488 3.01139 90.7419 2.92188 90.8994 2.92188H92.5645C93.0514 3.28711 93.4668 3.46973 93.8105 3.46973C93.9395 3.46973 94.0755 3.33008 94.2188 3.05078V1.53613C94.0684 1.53613 93.6995 1.44303 93.1123 1.25684C92.7471 1.34993 92.4248 1.39648 92.1455 1.39648L91.7266 0.837891V0.558594C91.7266 0.415365 91.9128 0.232747 92.2852 0.0107422ZM89.9326 6.66016C90.083 8.50065 90.681 9.4209 91.7266 9.4209C92.987 8.99837 93.6351 8.58301 93.6709 8.1748C93.8499 7.75228 93.9395 7.29036 93.9395 6.78906C93.8535 5.04167 93.209 4.16797 92.0059 4.16797C92.0059 4.07487 91.8662 4.02832 91.5869 4.02832C90.484 4.53678 89.9326 5.41406 89.9326 6.66016Z" fill="black"/>
<path d="M102.855 0.397461H103.414C104.152 0.397461 104.521 0.859375 104.521 1.7832L103.554 2.4707H103.135L102.168 1.7832C102.168 1.16016 102.397 0.698242 102.855 0.397461ZM100.782 3.16895C100.882 3.16895 101.022 3.21191 101.201 3.29785C101.294 3.29785 101.341 3.25488 101.341 3.16895C101.434 3.16895 101.57 3.21191 101.749 3.29785L102.995 3.16895C103.826 3.25488 104.241 3.4375 104.241 3.7168V6.20898L104.381 7.03613C104.288 7.19368 104.241 7.42643 104.241 7.73438V7.87402C104.241 8.08171 104.288 8.26432 104.381 8.42188C104.288 8.58659 104.241 8.77279 104.241 8.98047C104.241 9.50326 105.212 9.82552 107.152 9.94727L107.292 10.2266V10.6455C107.292 10.7744 107.152 10.9105 106.873 11.0537H105.079C104.499 11.0537 103.804 11.1003 102.995 11.1934C102.63 11.1003 102.308 11.0537 102.028 11.0537L101.47 11.1934C100.367 11.1003 99.8154 10.9606 99.8154 10.7744V10.2266C99.8154 10.0762 100.646 9.88997 102.308 9.66797L102.716 9.12012V8.56152C102.716 8.2321 102.762 7.81673 102.855 7.31543C102.762 7.15788 102.716 6.97526 102.716 6.76758C102.716 6.30208 102.809 6.06934 102.995 6.06934L102.855 5.79004V5.66113L102.995 4.96289L102.447 4.54395C102.197 4.54395 101.917 4.63704 101.609 4.82324C100.413 4.55827 99.8154 4.3291 99.8154 4.13574C99.8154 3.49121 100.138 3.16895 100.782 3.16895Z" fill="black"/>
<path d="M114.307 2.88965C114.937 2.88965 115.721 3.11882 116.659 3.57715C116.688 3.39095 116.781 3.29785 116.938 3.29785H117.078C117.443 3.29785 117.626 4.03906 117.626 5.52148L117.078 5.92969H116.799C115.896 4.64062 115.112 3.99609 114.446 3.99609C112.878 3.99609 112.094 4.45801 112.094 5.38184V5.52148C112.094 5.82227 112.645 6.00488 113.748 6.06934L114.994 5.92969C115.302 6.11589 115.581 6.20898 115.832 6.20898H116.799C117.536 6.875 117.905 7.56608 117.905 8.28223L117.766 8.56152C117.766 8.65462 117.812 8.70117 117.905 8.70117C117.905 9.67513 117.35 10.3662 116.24 10.7744C115.76 10.8675 115.302 10.9141 114.865 10.9141H114.167C113.737 10.9141 113.046 10.6849 112.094 10.2266C111.943 10.5918 111.621 10.7744 111.127 10.7744H110.848C110.69 10.7744 110.504 10.4987 110.289 9.94727L110.708 8.98047L110.568 8.14258V7.87402C110.597 7.68783 110.69 7.59473 110.848 7.59473H111.675C112.384 8.97689 113.308 9.66797 114.446 9.66797H115.553C116.383 9.08073 116.799 8.66536 116.799 8.42188C116.677 7.92773 116.448 7.55892 116.111 7.31543C116.018 7.31543 115.972 7.36198 115.972 7.45508L114.307 7.31543H113.2C111.539 6.87858 110.708 6.2806 110.708 5.52148C110.708 3.98177 111.721 3.10449 113.748 2.88965H114.307Z" fill="black"/>
<path d="M125.801 2.88965C127.885 2.88965 129.084 4.41146 129.399 7.45508C128.934 9.66797 128.239 10.7744 127.315 10.7744C127.315 10.9248 126.9 11.111 126.069 11.333C126.069 11.2327 125.471 11.0036 124.275 10.6455L124.136 10.9141V11.333C124.3 12.3499 124.623 12.8584 125.103 12.8584L125.94 12.7188L126.069 13.4062V13.5459C126.069 13.682 125.933 13.8216 125.661 13.9648H121.085C120.906 13.9648 120.816 13.8717 120.816 13.6855V13.1377C120.816 12.9587 121.368 12.7259 122.471 12.4395C122.471 12.3464 122.517 12.2998 122.61 12.2998C122.517 11.6553 122.381 11.333 122.202 11.333L122.61 8.70117C122.61 8.17122 122.564 7.43359 122.471 6.48828C122.564 5.98698 122.61 5.57161 122.61 5.24219C122.546 4.81966 121.901 4.45085 120.677 4.13574V3.57715L120.956 3.16895C122.89 3.29785 123.856 3.48047 123.856 3.7168C124.136 3.5306 124.784 3.25488 125.801 2.88965ZM123.717 7.03613C124.44 8.79069 125.271 9.66797 126.209 9.66797C127.204 9.66797 127.853 8.88379 128.153 7.31543V6.20898C127.638 5.01302 127.083 4.41504 126.488 4.41504H125.94C124.888 4.41504 124.146 5.28874 123.717 7.03613Z" fill="black"/>
<path d="M135.877 2.88965H136.436C137.345 2.88965 138.312 3.72038 139.336 5.38184C139.336 5.8903 139.476 6.44173 139.755 7.03613C139.755 8.91243 138.971 10.2516 137.402 11.0537C136.865 11.111 136.45 11.2507 136.156 11.4727H135.458C133.152 10.778 131.999 9.57845 131.999 7.87402V6.48828C132.715 4.08919 134.008 2.88965 135.877 2.88965ZM133.524 6.62793C133.524 8.38249 133.94 9.25977 134.771 9.25977C134.792 9.40299 135.161 9.58561 135.877 9.80762C136.944 9.4209 137.682 8.86947 138.09 8.15332C137.997 7.64486 137.95 7.27246 137.95 7.03613L138.09 6.48828C137.861 5.74349 137.352 5.05241 136.564 4.41504H135.318C134.122 5.06673 133.524 5.80436 133.524 6.62793Z" fill="black"/>
<path d="M151.41 10.9893C151.038 10.9176 150.522 10.8568 149.863 10.8066C149.706 10.8066 149.43 10.8997 149.036 11.0859L148.059 10.8066L147.79 10.9463C147.325 10.8245 147.092 10.6849 147.092 10.5273V10.1084C147.285 9.74316 147.518 9.56055 147.79 9.56055L148.059 9.7002C148.481 9.52116 148.714 9.33496 148.757 9.1416C148.757 8.83366 148.617 8.51139 148.338 8.1748C148.474 8.1748 148.614 8.03516 148.757 7.75586C148.757 7.47656 148.71 7.1543 148.617 6.78906C148.71 6.18034 148.757 5.58236 148.757 4.99512V4.85547C148.757 4.69076 148.341 4.50456 147.511 4.29688C145.849 5.2207 145.019 5.86882 145.019 6.24121C144.832 6.82845 144.739 7.19727 144.739 7.34766C144.925 7.95638 145.065 8.74056 145.158 9.7002H145.566C146.125 9.75749 146.404 9.89355 146.404 10.1084V10.3877C146.404 10.5238 146.265 10.6634 145.985 10.8066H145.438C144.779 10.8066 144.27 10.8997 143.912 11.0859C143.74 11.0859 143.371 10.9928 142.806 10.8066L142.526 10.9463C141.882 10.7816 141.56 10.5954 141.56 10.3877V10.1084C141.617 9.83626 141.986 9.7002 142.666 9.7002H143.354C143.54 9.00553 143.633 8.35742 143.633 7.75586V4.43652C143.518 4.31478 143.103 4.08561 142.387 3.74902L142.247 3.46973V3.33008C142.304 3.05078 142.673 2.91113 143.354 2.91113C144.464 3.00423 145.019 3.3265 145.019 3.87793C146.458 3.2334 147.335 2.91113 147.65 2.91113C149.219 2.98275 150.003 3.63086 150.003 4.85547C149.91 5.95833 149.863 6.78906 149.863 7.34766C149.863 7.80599 149.956 8.03516 150.143 8.03516L150.003 8.7334V9.28125C150.698 9.37435 151.206 9.56055 151.528 9.83984H151.55L151.41 10.9893Z" fill="black"/>
<path d="M156.566 0.397461H157.125C157.863 0.397461 158.231 0.859375 158.231 1.7832L157.265 2.4707H156.846L155.879 1.7832C155.879 1.16016 156.108 0.698242 156.566 0.397461ZM154.493 3.16895C154.593 3.16895 154.733 3.21191 154.912 3.29785C155.005 3.29785 155.052 3.25488 155.052 3.16895C155.145 3.16895 155.281 3.21191 155.46 3.29785L156.706 3.16895C157.537 3.25488 157.952 3.4375 157.952 3.7168V6.20898L158.092 7.03613C157.999 7.19368 157.952 7.42643 157.952 7.73438V7.87402C157.952 8.08171 157.999 8.26432 158.092 8.42188C157.999 8.58659 157.952 8.77279 157.952 8.98047C157.952 9.50326 158.923 9.82552 160.863 9.94727L161.003 10.2266V10.6455C161.003 10.7744 160.863 10.9105 160.584 11.0537H158.79C158.21 11.0537 157.515 11.1003 156.706 11.1934C156.341 11.1003 156.019 11.0537 155.739 11.0537L155.181 11.1934C154.078 11.1003 153.526 10.9606 153.526 10.7744V10.2266C153.526 10.0762 154.357 9.88997 156.019 9.66797L156.427 9.12012V8.56152C156.427 8.2321 156.473 7.81673 156.566 7.31543C156.473 7.15788 156.427 6.97526 156.427 6.76758C156.427 6.30208 156.52 6.06934 156.706 6.06934L156.566 5.79004V5.66113L156.706 4.96289L156.158 4.54395C155.908 4.54395 155.628 4.63704 155.32 4.82324C154.124 4.55827 153.526 4.3291 153.526 4.13574C153.526 3.49121 153.849 3.16895 154.493 3.16895Z" fill="black"/>
<path d="M165.354 0.139648C166.37 0.139648 166.879 0.83431 166.879 2.22363C166.786 2.58171 166.739 2.95052 166.739 3.33008C167.019 3.42318 167.158 3.51628 167.158 3.60938C167.652 3.29427 168.25 3.01497 168.952 2.77148C171.165 2.77148 172.271 4.38639 172.271 7.61621V7.75586C171.999 9.97591 170.939 11.0859 169.092 11.0859H168.394C167.685 10.8066 167.18 10.667 166.879 10.667C166.879 10.8031 166.693 10.9427 166.32 11.0859C165.769 10.8926 165.493 10.7064 165.493 10.5273V8.31445C165.493 7.98503 165.447 7.56966 165.354 7.06836C165.447 6.88932 165.493 6.74967 165.493 6.64941L165.354 5.96191C165.447 5.46061 165.493 5.04525 165.493 4.71582L165.354 3.87793C165.447 3.51986 165.493 3.15104 165.493 2.77148V2.22363C165.493 2.13053 165.54 2.08398 165.633 2.08398C165.633 1.64714 165.031 1.37142 163.828 1.25684L163.688 0.977539V0.558594C163.688 0.372396 164.243 0.232747 165.354 0.139648ZM166.879 6.78906L167.019 7.4873L166.879 8.03516C167.352 9.05208 168.089 9.56055 169.092 9.56055H169.231C169.998 9.56055 170.506 9.14518 170.757 8.31445V6.24121C170.757 5.13835 170.202 4.44368 169.092 4.15723C167.617 4.9235 166.879 5.80078 166.879 6.78906Z" fill="black"/>
<path d="M176.622 0.150391C178.656 0.222005 179.673 0.544271 179.673 1.11719C179.673 1.51823 179.58 1.88704 179.394 2.22363C179.394 2.31673 179.44 2.36328 179.533 2.36328L179.394 3.74902V8.4541C179.701 9.19173 179.934 9.56055 180.092 9.56055H181.338C181.546 9.56055 181.728 9.514 181.886 9.4209C182.237 9.4209 182.605 9.7002 182.992 10.2588V10.3984C182.627 10.8568 182.212 11.0859 181.746 11.0859H180.779C180.185 11.0859 179.583 11.0394 178.975 10.9463L178.147 11.0859C177.961 11.0859 177.868 11.0394 177.868 10.9463L176.901 11.0859H175.516C175.021 11.0859 174.699 10.8997 174.549 10.5273V10.2588C174.785 9.79329 175.154 9.56055 175.655 9.56055H176.901L177.868 9.4209V7.62695C178.054 6.27344 178.147 5.53581 178.147 5.41406V4.71582C178.147 4.20736 178.101 3.56283 178.008 2.78223C178.101 2.62467 178.147 2.39193 178.147 2.08398C176.364 1.62565 175.351 1.39648 175.107 1.39648L174.828 0.977539V0.698242C174.828 0.519206 175.426 0.336589 176.622 0.150391Z" fill="black"/>
<path d="M189.395 2.88965H190.641C191.579 2.88965 192.456 3.81348 193.272 5.66113C193.272 6.0765 193.319 6.35221 193.412 6.48828C193.412 7.13281 192.306 7.45508 190.093 7.45508C189.935 7.54818 189.702 7.59473 189.395 7.59473C189.395 7.40853 189.301 7.31543 189.115 7.31543L187.461 7.73438V8.22852C187.926 9.09505 188.664 9.59993 189.674 9.74316H189.813C190.723 9.19889 191.414 8.69401 191.887 8.22852C191.987 8.22135 192.084 8.21777 192.177 8.21777C193 8.21777 193.412 8.42546 193.412 8.84082C193.412 9.76465 192.352 10.5023 190.232 11.0537H188.428C186.487 10.3304 185.517 8.80859 185.517 6.48828L186.494 4.27539C187.275 3.35156 188.242 2.88965 189.395 2.88965ZM187.633 4.96289C187.74 5.80794 187.901 6.23047 188.116 6.23047H188.911C190.709 6.16602 191.607 5.85091 191.607 5.28516C191.607 4.54036 190.92 4.06413 189.545 3.85645C188.693 4.24316 188.055 4.61198 187.633 4.96289Z" fill="black"/>
<path d="M200.244 2.88965C200.874 2.88965 201.659 3.11882 202.597 3.57715C202.625 3.39095 202.718 3.29785 202.876 3.29785H203.016C203.381 3.29785 203.563 4.03906 203.563 5.52148L203.016 5.92969H202.736C201.834 4.64062 201.05 3.99609 200.384 3.99609C198.815 3.99609 198.031 4.45801 198.031 5.38184V5.52148C198.031 5.82227 198.583 6.00488 199.686 6.06934L200.932 5.92969C201.24 6.11589 201.519 6.20898 201.77 6.20898H202.736C203.474 6.875 203.843 7.56608 203.843 8.28223L203.703 8.56152C203.703 8.65462 203.75 8.70117 203.843 8.70117C203.843 9.67513 203.288 10.3662 202.178 10.7744C201.698 10.8675 201.24 10.9141 200.803 10.9141H200.104C199.675 10.9141 198.984 10.6849 198.031 10.2266C197.881 10.5918 197.559 10.7744 197.064 10.7744H196.785C196.628 10.7744 196.441 10.4987 196.227 9.94727L196.646 8.98047L196.506 8.14258V7.87402C196.535 7.68783 196.628 7.59473 196.785 7.59473H197.612C198.321 8.97689 199.245 9.66797 200.384 9.66797H201.49C202.321 9.08073 202.736 8.66536 202.736 8.42188C202.615 7.92773 202.385 7.55892 202.049 7.31543C201.956 7.31543 201.909 7.36198 201.909 7.45508L200.244 7.31543H199.138C197.476 6.87858 196.646 6.2806 196.646 5.52148C196.646 3.98177 197.659 3.10449 199.686 2.88965H200.244Z" fill="black"/>
</g>
<defs>
<filter id="filter0_d_1429_1236" x="0.297852" y="0.0107422" width="205.545" height="18.3945" filterUnits="userSpaceOnUse" color-interpolation-filters="sRGB">
<feFlood flood-opacity="0" result="BackgroundImageFix"/>
<feColorMatrix in="SourceAlpha" type="matrix" values="0 0 0 0 0 0 0 0 0 0 0 0 0 0 0 0 0 0 127 0" result="hardAlpha"/>
<feOffset dy="2"/>
<feGaussianBlur stdDeviation="1"/>
<feComposite in2="hardAlpha" operator="out"/>
<feColorMatrix type="matrix" values="0 0 0 0 0 0 0 0 0 0 0 0 0 0 0 0 0 0 0.25 0"/>
<feBlend mode="normal" in2="BackgroundImageFix" result="effect1_dropShadow_1429_1236"/>
<feBlend mode="normal" in="SourceGraphic" in2="effect1_dropShadow_1429_1236" result="shape"/>
</filter>
</defs>
</svg>
