<svg width="204" height="27" viewBox="0 0 204 27" fill="none" xmlns="http://www.w3.org/2000/svg">
<g filter="url(#filter0_d_1159_1247)">
<path d="M10.2247 21.6191H8.87115L8.18561 22.0762H7.95709C4.64069 21.8535 2.98248 21.0215 2.98248 19.5801C3.13483 18.6777 3.50983 18.2266 4.10748 18.2266C5.08014 18.2266 6.211 18.373 7.50006 18.666C10.2071 18.666 12.0235 17.6875 12.9493 15.7305V15.502C12.4922 12.9355 11.8126 11.6523 10.9102 11.6523C8.94147 11.1953 7.95709 10.668 7.95709 10.0703C7.95709 9.4375 8.71295 8.9043 10.2247 8.4707C11.1856 7.61523 11.713 6.63672 11.8067 5.53516C11.8067 4.5625 11.2032 3.73047 9.99615 3.03906V2.81055H7.95709L5.68951 3.03906L5.461 2.58203V1.68555C5.461 1.19336 6.97272 0.736328 9.99615 0.314453C12.2696 1.49805 13.4063 2.48242 13.4063 3.26758L14.0743 5.53516L12.9493 10.0703C13.9805 10.0703 14.8829 11.957 15.6563 15.7305C15.5157 16.5273 15.1407 17.3594 14.5313 18.2266L12.545 20.9512C11.338 21.3965 10.5645 21.6191 10.2247 21.6191Z" fill="black"/>
<path d="M36.3964 1.42188H36.8534C37.3105 1.57422 37.539 2.02539 37.539 2.77539V5.72852L37.7675 6.18555C39.2675 6.0332 40.3983 5.95703 41.1601 5.95703H42.2851C42.5312 5.95703 42.8358 6.25586 43.1991 6.85352V7.31055C42.7304 7.32227 41.9745 7.62695 40.9315 8.22461L39.8065 7.99609H39.121C38.3358 7.99609 37.8085 8.37109 37.539 9.12109C37.8319 9.61328 37.9784 10.0645 37.9784 10.4746L37.7675 10.9316C37.9081 11.2012 37.9784 11.5059 37.9784 11.8457C37.6855 11.8926 37.539 12.0449 37.539 12.3027V12.7422C37.8319 15.4609 38.2069 16.8203 38.664 16.8203H39.121C40.6327 15.8945 41.3886 14.459 41.3886 12.5137L42.5136 12.3027C42.9706 12.8887 43.1991 13.3398 43.1991 13.6562C43.1991 17.2773 41.9921 19.0879 39.578 19.0879H38.2069C36.0976 18.4668 35.0429 17.0312 35.0429 14.7812L35.4999 13.8848C35.4999 13.7324 35.4237 13.6562 35.2714 13.6562L35.4999 12.0742V8.43555C35.3476 7.99023 34.8905 7.76758 34.1288 7.76758C33.8827 7.76758 32.9804 7.84375 31.4218 7.99609L30.7362 6.85352C30.9589 6.25586 31.1874 5.95703 31.4218 5.95703H33.6894C34.0644 5.95703 34.744 5.80469 35.7284 5.5V2.77539C35.8222 1.87305 36.0448 1.42188 36.3964 1.42188Z" fill="black"/>
<path d="M48.1913 9.87695L48.244 9.40234C48.2206 9.26172 48.2089 9.12695 48.2089 8.99805C48.2089 7.48633 49.4921 6.39062 52.0585 5.71094C52.7382 5.75781 53.3124 5.78125 53.7812 5.78125C53.9335 5.78125 54.2089 5.75781 54.6073 5.71094C57.6776 5.91016 59.2128 6.91211 59.2128 8.7168C59.3651 8.98633 59.4413 9.29102 59.4413 9.63086C59.4413 9.7832 59.3651 9.85938 59.2128 9.85938L59.4413 11.4414V15.5195C59.4413 15.7305 59.664 15.9531 60.1093 16.1875C60.5077 15.4492 60.8124 15.0742 61.0233 15.0625H61.7089C62.0136 15.1328 62.3124 15.5078 62.6054 16.1875L62.3769 17.5586V17.7871C61.7909 18.3145 61.0351 18.6895 60.1093 18.9121H58.9843C58.9843 18.6426 58.3046 18.4141 56.9452 18.2266L53.4296 19.1758L52.5155 18.9473L51.373 19.2285C48.8651 18.4785 47.6112 17.3535 47.6112 15.8535C47.6112 15.7715 47.6171 15.6953 47.6288 15.625C47.6171 15.4961 47.6112 15.3672 47.6112 15.2383C47.6112 14.0195 48.1562 12.9062 49.246 11.8984L50.4413 11.459L52.1815 11.2656C53.5409 11.2305 54.373 11.2129 54.6776 11.2129C54.83 11.2363 54.9706 11.248 55.0995 11.248C56.1659 11.248 56.7812 10.6328 56.9452 9.40234C56.9218 8.67578 56.0019 8.0957 54.1855 7.66211C53.6933 7.95508 53.3183 8.10156 53.0605 8.10156L51.7069 7.87305C51.7069 8.17773 51.5663 8.38281 51.2851 8.48828C51.2851 8.96875 51.4784 9.37305 51.8651 9.70117C52.0292 9.7832 52.1112 9.87695 52.1112 9.98242C52.1112 10.3691 51.1327 10.8613 49.1757 11.459L48.1913 9.87695ZM52.4101 13.4277H51.6894C51.5253 13.4277 51.373 13.3926 51.2323 13.3223C50.494 14.0723 50.1249 14.6055 50.1249 14.9219V16.2051C50.4413 16.6387 50.7519 16.8555 51.0565 16.8555C51.244 16.8555 51.4315 16.7734 51.619 16.6094C53.0136 16.7617 53.8925 16.8379 54.2558 16.8379H54.994C55.9315 16.1582 56.5819 15.4082 56.9452 14.5879V14.2715C56.8866 13.6621 56.4003 13.2402 55.4862 13.0059C53.8222 13.2168 52.7968 13.3574 52.4101 13.4277Z" fill="black"/>
<path d="M71.5526 1.42188H72.0097C72.4667 1.57422 72.6952 2.02539 72.6952 2.77539V5.72852L72.9237 6.18555C74.4237 6.0332 75.5546 5.95703 76.3163 5.95703H77.4413C77.6874 5.95703 77.9921 6.25586 78.3554 6.85352V7.31055C77.8866 7.32227 77.1308 7.62695 76.0878 8.22461L74.9628 7.99609H74.2773C73.4921 7.99609 72.9648 8.37109 72.6952 9.12109C72.9882 9.61328 73.1347 10.0645 73.1347 10.4746L72.9237 10.9316C73.0644 11.2012 73.1347 11.5059 73.1347 11.8457C72.8417 11.8926 72.6952 12.0449 72.6952 12.3027V12.7422C72.9882 15.4609 73.3632 16.8203 73.8202 16.8203H74.2773C75.789 15.8945 76.5448 14.459 76.5448 12.5137L77.6698 12.3027C78.1269 12.8887 78.3554 13.3398 78.3554 13.6562C78.3554 17.2773 77.1483 19.0879 74.7343 19.0879H73.3632C71.2538 18.4668 70.1991 17.0312 70.1991 14.7812L70.6562 13.8848C70.6562 13.7324 70.58 13.6562 70.4276 13.6562L70.6562 12.0742V8.43555C70.5038 7.99023 70.0468 7.76758 69.2851 7.76758C69.039 7.76758 68.1366 7.84375 66.578 7.99609L65.8925 6.85352C66.1151 6.25586 66.3437 5.95703 66.578 5.95703H68.8456C69.2206 5.95703 69.9003 5.80469 70.8847 5.5V2.77539C70.9784 1.87305 71.2011 1.42188 71.5526 1.42188Z" fill="black"/>
<path d="M90.537 5.72852H91.4511C92.9394 5.72852 94.5214 7.08789 96.1972 9.80664C96.1972 10.6387 96.4257 11.541 96.8827 12.5137C96.8827 15.584 95.5995 17.7754 93.0331 19.0879C92.1542 19.1816 91.4745 19.4102 90.994 19.7734H89.8515C86.078 18.6367 84.1913 16.6738 84.1913 13.8848V11.6172C85.3632 7.69141 87.4784 5.72852 90.537 5.72852ZM86.6874 11.8457C86.6874 14.7168 87.3671 16.1523 88.7265 16.1523C88.7616 16.3867 89.3651 16.6855 90.537 17.0488C92.2831 16.416 93.4901 15.5137 94.1581 14.3418C94.0058 13.5098 93.9296 12.9004 93.9296 12.5137L94.1581 11.6172C93.7831 10.3984 92.9511 9.26758 91.662 8.22461H89.623C87.6659 9.29102 86.6874 10.498 86.6874 11.8457Z" fill="black"/>
<path d="M100.451 5.92188C100.639 5.94531 100.879 5.95703 101.172 5.95703L102.086 5.72852C103.75 5.72852 104.582 6.56055 104.582 8.22461V14.5527C104.582 15.3145 104.957 15.9941 105.707 16.5918H106.621C109.34 14.998 110.699 13.1113 110.699 10.9316C110.699 9.81836 110.769 8.98633 110.91 8.43555L110.242 7.99609H109.785L108.66 8.22461C108.355 7.7207 108.203 7.26367 108.203 6.85352V6.39648C108.203 5.95117 108.883 5.65234 110.242 5.5C112.047 5.5 112.949 6.25586 112.949 7.76758C113.101 7.91992 113.178 8.52344 113.178 9.57812L112.949 10.0352C112.949 10.1875 113.025 10.2637 113.178 10.2637L112.949 12.9707V15.2383C112.949 16.1406 113.705 16.5918 115.217 16.5918C115.978 16.709 116.359 16.9375 116.359 17.2773V17.9629C116.359 18.209 115.832 18.5078 114.777 18.8594C113.734 18.707 112.902 18.6309 112.281 18.6309H111.596L110.242 17.5059C108.039 18.7129 106.527 19.3164 105.707 19.3164C103.598 18.5078 102.543 17.4531 102.543 16.1523C102.238 16.1523 102.086 15.6953 102.086 14.7812C102.086 13.6094 102.162 11.4941 102.314 8.43555L101.857 8.22461H101.172C100.832 8.22461 100.551 8.21289 100.328 8.18945C100.152 8.16602 100.064 7.91992 100.064 7.45117C100.064 7.32227 100.07 7.17578 100.082 7.01172C100.141 6.28516 100.258 5.92188 100.434 5.92188H100.451Z" fill="black"/>
<path d="M125.377 5.72852H127.416C128.951 5.72852 130.387 7.24023 131.723 10.2637C131.723 10.9434 131.799 11.3945 131.951 11.6172C131.951 12.6719 130.141 13.1992 126.519 13.1992C126.262 13.3516 125.881 13.4277 125.377 13.4277C125.377 13.123 125.225 12.9707 124.92 12.9707L122.213 13.6562V14.4648C122.975 15.8828 124.182 16.709 125.834 16.9434H126.062C127.551 16.0527 128.682 15.2266 129.455 14.4648C129.619 14.4531 129.777 14.4473 129.93 14.4473C131.277 14.4473 131.951 14.7871 131.951 15.4668C131.951 16.9785 130.217 18.1855 126.748 19.0879H123.795C120.619 17.9043 119.031 15.4141 119.031 11.6172L120.631 7.99609C121.908 6.48438 123.49 5.72852 125.377 5.72852ZM122.494 9.12109C122.67 10.5039 122.934 11.1953 123.285 11.1953H124.586C127.527 11.0898 128.998 10.5742 128.998 9.64844C128.998 8.42969 127.873 7.65039 125.623 7.31055C124.228 7.94336 123.185 8.54688 122.494 9.12109Z" fill="black"/>
<path d="M135.607 5.92188C135.795 5.94531 136.035 5.95703 136.328 5.95703L137.242 5.72852C138.906 5.72852 139.738 6.56055 139.738 8.22461V14.5527C139.738 15.3145 140.113 15.9941 140.863 16.5918H141.777C144.496 14.998 145.855 13.1113 145.855 10.9316C145.855 9.81836 145.926 8.98633 146.066 8.43555L145.398 7.99609H144.941L143.816 8.22461C143.512 7.7207 143.359 7.26367 143.359 6.85352V6.39648C143.359 5.95117 144.039 5.65234 145.398 5.5C147.203 5.5 148.105 6.25586 148.105 7.76758C148.258 7.91992 148.334 8.52344 148.334 9.57812L148.105 10.0352C148.105 10.1875 148.182 10.2637 148.334 10.2637L148.105 12.9707V15.2383C148.105 16.1406 148.861 16.5918 150.373 16.5918C151.135 16.709 151.516 16.9375 151.516 17.2773V17.9629C151.516 18.209 150.988 18.5078 149.934 18.8594C148.891 18.707 148.059 18.6309 147.437 18.6309H146.752L145.398 17.5059C143.195 18.7129 141.684 19.3164 140.863 19.3164C138.754 18.5078 137.699 17.4531 137.699 16.1523C137.394 16.1523 137.242 15.6953 137.242 14.7812C137.242 13.6094 137.318 11.4941 137.471 8.43555L137.014 8.22461H136.328C135.988 8.22461 135.707 8.21289 135.484 8.18945C135.309 8.16602 135.221 7.91992 135.221 7.45117C135.221 7.32227 135.226 7.17578 135.238 7.01172C135.297 6.28516 135.414 5.92188 135.59 5.92188H135.607Z" fill="black"/>
<path d="M160.709 5.72852C161.74 5.72852 163.023 6.10352 164.559 6.85352C164.605 6.54883 164.758 6.39648 165.016 6.39648H165.244C165.842 6.39648 166.141 7.60938 166.141 10.0352L165.244 10.7031H164.787C163.31 8.59375 162.027 7.53906 160.937 7.53906C158.371 7.53906 157.088 8.29492 157.088 9.80664V10.0352C157.088 10.5273 157.99 10.8262 159.795 10.9316L161.834 10.7031C162.338 11.0078 162.795 11.1602 163.205 11.1602H164.787C165.994 12.25 166.598 13.3809 166.598 14.5527L166.369 15.0098C166.369 15.1621 166.445 15.2383 166.598 15.2383C166.598 16.832 165.689 17.9629 163.873 18.6309C163.088 18.7832 162.338 18.8594 161.623 18.8594H160.48C159.777 18.8594 158.646 18.4844 157.088 17.7344C156.842 18.332 156.314 18.6309 155.506 18.6309H155.049C154.791 18.6309 154.486 18.1797 154.135 17.2773L154.82 15.6953L154.592 14.3242V13.8848C154.639 13.5801 154.791 13.4277 155.049 13.4277H156.402C157.562 15.6895 159.074 16.8203 160.937 16.8203H162.748C164.107 15.8594 164.787 15.1797 164.787 14.7812C164.588 13.9727 164.213 13.3691 163.662 12.9707C163.51 12.9707 163.434 13.0469 163.434 13.1992L160.709 12.9707H158.898C156.18 12.2559 154.82 11.2773 154.82 10.0352C154.82 7.51562 156.478 6.08008 159.795 5.72852H160.709Z" fill="black"/>
<path d="M178.111 5.72852H180.15C181.685 5.72852 183.121 7.24023 184.457 10.2637C184.457 10.9434 184.533 11.3945 184.685 11.6172C184.685 12.6719 182.875 13.1992 179.254 13.1992C178.996 13.3516 178.615 13.4277 178.111 13.4277C178.111 13.123 177.959 12.9707 177.654 12.9707L174.947 13.6562V14.4648C175.709 15.8828 176.916 16.709 178.568 16.9434H178.797C180.285 16.0527 181.416 15.2266 182.189 14.4648C182.353 14.4531 182.512 14.4473 182.664 14.4473C184.012 14.4473 184.685 14.7871 184.685 15.4668C184.685 16.9785 182.951 18.1855 179.482 19.0879H176.529C173.353 17.9043 171.766 15.4141 171.766 11.6172L173.365 7.99609C174.642 6.48438 176.225 5.72852 178.111 5.72852ZM175.228 9.12109C175.404 10.5039 175.668 11.1953 176.019 11.1953H177.32C180.262 11.0898 181.732 10.5742 181.732 9.64844C181.732 8.42969 180.607 7.65039 178.357 7.31055C176.963 7.94336 175.92 8.54688 175.228 9.12109Z" fill="black"/>
<path d="M195.865 5.72852C196.896 5.72852 198.18 6.10352 199.715 6.85352C199.762 6.54883 199.914 6.39648 200.172 6.39648H200.4C200.998 6.39648 201.297 7.60938 201.297 10.0352L200.4 10.7031H199.943C198.467 8.59375 197.184 7.53906 196.094 7.53906C193.527 7.53906 192.244 8.29492 192.244 9.80664V10.0352C192.244 10.5273 193.146 10.8262 194.951 10.9316L196.99 10.7031C197.494 11.0078 197.951 11.1602 198.361 11.1602H199.943C201.15 12.25 201.754 13.3809 201.754 14.5527L201.525 15.0098C201.525 15.1621 201.601 15.2383 201.754 15.2383C201.754 16.832 200.846 17.9629 199.029 18.6309C198.244 18.7832 197.494 18.8594 196.779 18.8594H195.637C194.934 18.8594 193.803 18.4844 192.244 17.7344C191.998 18.332 191.471 18.6309 190.662 18.6309H190.205C189.947 18.6309 189.642 18.1797 189.291 17.2773L189.976 15.6953L189.748 14.3242V13.8848C189.795 13.5801 189.947 13.4277 190.205 13.4277H191.559C192.719 15.6895 194.23 16.8203 196.094 16.8203H197.904C199.264 15.8594 199.943 15.1797 199.943 14.7812C199.744 13.9727 199.369 13.3691 198.818 12.9707C198.666 12.9707 198.59 13.0469 198.59 13.1992L195.865 12.9707H194.055C191.336 12.2559 189.976 11.2773 189.976 10.0352C189.976 7.51562 191.635 6.08008 194.951 5.72852H195.865Z" fill="black"/>
</g>
<defs>
<filter id="filter0_d_1159_1247" x="0.982483" y="0.314453" width="202.771" height="25.7617" filterUnits="userSpaceOnUse" color-interpolation-filters="sRGB">
<feFlood flood-opacity="0" result="BackgroundImageFix"/>
<feColorMatrix in="SourceAlpha" type="matrix" values="0 0 0 0 0 0 0 0 0 0 0 0 0 0 0 0 0 0 127 0" result="hardAlpha"/>
<feOffset dy="2"/>
<feGaussianBlur stdDeviation="1"/>
<feComposite in2="hardAlpha" operator="out"/>
<feColorMatrix type="matrix" values="0 0 0 0 0 0 0 0 0 0 0 0 0 0 0 0 0 0 0.25 0"/>
<feBlend mode="normal" in2="BackgroundImageFix" result="effect1_dropShadow_1159_1247"/>
<feBlend mode="normal" in="SourceGraphic" in2="effect1_dropShadow_1159_1247" result="shape"/>
</filter>
</defs>
</svg>
