<svg width="22" height="21" viewBox="0 0 22 21" fill="none" xmlns="http://www.w3.org/2000/svg">
<path d="M15.5312 5.6875H15.54M6.34375 1.75H15.0938C17.51 1.75 19.4688 3.70875 19.4688 6.125V14.875C19.4688 17.2912 17.51 19.25 15.0938 19.25H6.34375C3.9275 19.25 1.96875 17.2912 1.96875 14.875V6.125C1.96875 3.70875 3.9275 1.75 6.34375 1.75ZM14.2188 9.94875C14.3267 10.677 14.2024 11.4207 13.8633 12.0741C13.5242 12.7276 12.9878 13.2575 12.3302 13.5885C11.6726 13.9194 10.9274 14.0346 10.2006 13.9177C9.47373 13.8007 8.80229 13.4576 8.28173 12.937C7.76118 12.4165 7.41802 11.745 7.30106 11.0182C7.1841 10.2914 7.29931 9.54616 7.63029 8.88858C7.96126 8.231 8.49116 7.69452 9.14461 7.35546C9.79806 7.0164 10.5418 6.89201 11.27 7C12.0128 7.11015 12.7005 7.45628 13.2315 7.98727C13.7625 8.51826 14.1086 9.20594 14.2188 9.94875Z" stroke="#F3F3F3" stroke-width="1.5" stroke-linecap="round" stroke-linejoin="round"/>
</svg>
