<svg width="102" height="20" viewBox="0 0 102 20" fill="none" xmlns="http://www.w3.org/2000/svg">
<path d="M10.499 0.0878906C10.499 0.380859 11.3779 0.571289 13.1357 0.65918V1.23047C11.3486 1.23047 9.90332 2.67578 8.7998 5.56641C8.64355 5.56641 8.2627 6.00586 7.65723 6.88477C9.43457 9.85352 10.8848 11.8701 12.0078 12.9346C13.6387 13.0615 14.4541 13.3105 14.4541 13.6816V13.8721C14.4541 14.2236 13.9512 14.4775 12.9453 14.6338L11.8174 14.4434C10.9971 14.6973 10.4307 14.8242 10.1182 14.8242C8.73145 14.8242 8.03809 14.6338 8.03809 14.2529V13.8721C8.21387 13.4619 8.7168 13.0859 9.54688 12.7441L6.91016 8.58398H6.71973C5.88965 8.58398 5.25977 9.46777 4.83008 11.2354V12.7441C4.83008 12.998 5.45996 13.1885 6.71973 13.3154L7.10059 13.8721C6.78809 14.4189 6.34863 14.7998 5.78223 15.0146C5.49902 15.0146 5.24512 14.9512 5.02051 14.8242C3.94629 14.9512 3.06738 15.0146 2.38379 15.0146H2.00293C1.29004 15.0146 0.850586 14.6973 0.68457 14.0625C0.68457 13.4668 1.37305 13.0908 2.75 12.9346C3.00391 12.3291 3.13086 11.5723 3.13086 10.6641L2.94043 9.91699L3.13086 9.53613L2.94043 8.58398L3.13086 8.21777L2.94043 7.83691C3.06738 6.97754 3.13086 6.28418 3.13086 5.75684C3.13086 5.49316 3.06738 4.7998 2.94043 3.67676C3.19434 3.2666 3.32129 2.89062 3.32129 2.54883V2.16797C1.80762 2.08008 1.05078 1.83105 1.05078 1.4209V1.04004C1.17773 0.65918 1.55859 0.46875 2.19336 0.46875H3.89258C4.41016 0.46875 5.09863 0.405273 5.95801 0.27832C6.59277 0.444336 6.91016 0.634766 6.91016 0.849609V1.23047C6.91016 1.57227 6.2168 1.88477 4.83008 2.16797C4.83008 2.67578 4.70312 3.11523 4.44922 3.48633L4.63965 6.1377L4.44922 7.0752L5.40137 7.26562C5.82129 6.97266 7.08105 5.27344 9.18066 2.16797C8.97559 2.16797 8.72168 1.91895 8.41895 1.4209V1.04004C8.41895 0.727539 9.1123 0.410156 10.499 0.0878906Z" fill="white"/>
<path d="M16.417 7.39746L16.4609 7.00195C16.4414 6.88477 16.4316 6.77246 16.4316 6.66504C16.4316 5.40527 17.501 4.49219 19.6396 3.92578C20.2061 3.96484 20.6846 3.98438 21.0752 3.98438C21.2021 3.98438 21.4316 3.96484 21.7637 3.92578C24.3223 4.0918 25.6016 4.92676 25.6016 6.43066C25.7285 6.65527 25.792 6.90918 25.792 7.19238C25.792 7.31934 25.7285 7.38281 25.6016 7.38281L25.792 8.70117V12.0996C25.792 12.2754 25.9775 12.4609 26.3486 12.6562C26.6807 12.041 26.9346 11.7285 27.1104 11.7188H27.6816C27.9355 11.7773 28.1846 12.0898 28.4287 12.6562L28.2383 13.7988V13.9893C27.75 14.4287 27.1201 14.7412 26.3486 14.9268H25.4111C25.4111 14.7021 24.8447 14.5117 23.7119 14.3555L20.7822 15.1465L20.0205 14.9561L19.0684 15.1904C16.9785 14.5654 15.9336 13.6279 15.9336 12.3779C15.9336 12.3096 15.9385 12.2461 15.9482 12.1875C15.9385 12.0801 15.9336 11.9727 15.9336 11.8652C15.9336 10.8496 16.3877 9.92188 17.2959 9.08203L18.292 8.71582L19.7422 8.55469C20.875 8.52539 21.5684 8.51074 21.8223 8.51074C21.9492 8.53027 22.0664 8.54004 22.1738 8.54004C23.0625 8.54004 23.5752 8.02734 23.7119 7.00195C23.6924 6.39648 22.9258 5.91309 21.4121 5.55176C21.002 5.7959 20.6895 5.91797 20.4746 5.91797L19.3467 5.72754C19.3467 5.98145 19.2295 6.15234 18.9951 6.24023C18.9951 6.64062 19.1562 6.97754 19.4785 7.25098C19.6152 7.31934 19.6836 7.39746 19.6836 7.48535C19.6836 7.80762 18.8682 8.21777 17.2373 8.71582L16.417 7.39746ZM19.9326 10.3564H19.332C19.1953 10.3564 19.0684 10.3271 18.9512 10.2686C18.3359 10.8936 18.0283 11.3379 18.0283 11.6016V12.6709C18.292 13.0322 18.5508 13.2129 18.8047 13.2129C18.9609 13.2129 19.1172 13.1445 19.2734 13.0078C20.4355 13.1348 21.168 13.1982 21.4707 13.1982H22.0859C22.8672 12.6318 23.4092 12.0068 23.7119 11.3232V11.0596C23.6631 10.5518 23.2578 10.2002 22.4961 10.0049C21.1094 10.1807 20.2549 10.2979 19.9326 10.3564Z" fill="white"/>
<path d="M35.8848 0.351562H36.2656C36.6465 0.478516 36.8369 0.854492 36.8369 1.47949V3.94043L37.0273 4.32129C38.2773 4.19434 39.2197 4.13086 39.8545 4.13086H40.792C40.9971 4.13086 41.251 4.37988 41.5537 4.87793V5.25879C41.1631 5.26855 40.5332 5.52246 39.6641 6.02051L38.7266 5.83008H38.1553C37.501 5.83008 37.0615 6.14258 36.8369 6.76758C37.0811 7.17773 37.2031 7.55371 37.2031 7.89551L37.0273 8.27637C37.1445 8.50098 37.2031 8.75488 37.2031 9.03809C36.959 9.07715 36.8369 9.2041 36.8369 9.41895V9.78516C37.0811 12.0508 37.3936 13.1836 37.7744 13.1836H38.1553C39.415 12.4121 40.0449 11.2158 40.0449 9.59473L40.9824 9.41895C41.3633 9.90723 41.5537 10.2832 41.5537 10.5469C41.5537 13.5645 40.5479 15.0732 38.5361 15.0732H37.3936C35.6357 14.5557 34.7568 13.3594 34.7568 11.4844L35.1377 10.7373C35.1377 10.6104 35.0742 10.5469 34.9473 10.5469L35.1377 9.22852V6.19629C35.0107 5.8252 34.6299 5.63965 33.9951 5.63965C33.79 5.63965 33.0381 5.70312 31.7393 5.83008L31.168 4.87793C31.3535 4.37988 31.5439 4.13086 31.7393 4.13086H33.6289C33.9414 4.13086 34.5078 4.00391 35.3281 3.75V1.47949C35.4062 0.727539 35.5918 0.351562 35.8848 0.351562Z" fill="white"/>
<path d="M45.3184 4.10156C45.4746 4.12109 45.6748 4.13086 45.9189 4.13086L46.6807 3.94043C48.0674 3.94043 48.7607 4.63379 48.7607 6.02051V11.2939C48.7607 11.9287 49.0732 12.4951 49.6982 12.9932H50.46C52.7256 11.665 53.8584 10.0928 53.8584 8.27637C53.8584 7.34863 53.917 6.65527 54.0342 6.19629L53.4775 5.83008H53.0967L52.1592 6.02051C51.9053 5.60059 51.7783 5.21973 51.7783 4.87793V4.49707C51.7783 4.12598 52.3447 3.87695 53.4775 3.75C54.9814 3.75 55.7334 4.37988 55.7334 5.63965C55.8604 5.7666 55.9238 6.26953 55.9238 7.14844L55.7334 7.5293C55.7334 7.65625 55.7969 7.71973 55.9238 7.71973L55.7334 9.97559V11.8652C55.7334 12.6172 56.3633 12.9932 57.623 12.9932C58.2578 13.0908 58.5752 13.2812 58.5752 13.5645V14.1357C58.5752 14.3408 58.1357 14.5898 57.2568 14.8828C56.3877 14.7559 55.6943 14.6924 55.1768 14.6924H54.6055L53.4775 13.7549C51.6416 14.7607 50.3818 15.2637 49.6982 15.2637C47.9404 14.5898 47.0615 13.7109 47.0615 12.627C46.8076 12.627 46.6807 12.2461 46.6807 11.4844C46.6807 10.5078 46.7441 8.74512 46.8711 6.19629L46.4902 6.02051H45.9189C45.6357 6.02051 45.4014 6.01074 45.2158 5.99121C45.0693 5.97168 44.9961 5.7666 44.9961 5.37598C44.9961 5.26855 45.001 5.14648 45.0107 5.00977C45.0596 4.4043 45.1572 4.10156 45.3037 4.10156H45.3184Z" fill="white"/>
<path d="M66.0752 3.22266C68.4092 3.22266 70.1719 4.54102 71.3633 7.17773C70.9336 8.31055 70.3037 8.87695 69.4736 8.87695C68.4678 8.4375 67.9648 7.55859 67.9648 6.24023C67.9648 5.86914 67.7109 5.49316 67.2031 5.1123C64.7031 5.1123 63.2578 6.68457 62.8672 9.8291C63.6484 11.3135 64.7178 12.3193 66.0752 12.8467C67.96 12.4756 68.9023 11.7822 68.9023 10.7666L69.4736 10.3857C70.2158 10.3857 70.8457 10.7666 71.3633 11.5283V11.7188C71.3633 13.2617 69.6641 14.3311 66.2656 14.9268C64.2734 14.5361 62.8232 13.6523 61.915 12.2754C61.915 12.0605 61.5391 11.2451 60.7871 9.8291C61.4512 5.55176 63.0234 3.41309 65.5039 3.41309C65.6406 3.41309 65.8311 3.34961 66.0752 3.22266Z" fill="white"/>
<path d="M86.4658 5.91797C86.2119 5.9082 85.9287 5.87891 85.6162 5.83008C85.1182 5.83008 84.4932 7.14844 83.7412 9.78516C83.5264 9.87305 82.833 11.7627 81.6611 15.4541C81.1729 17.9736 80.167 19.2334 78.6436 19.2334C78.6436 19.4873 78.3262 19.6143 77.6914 19.6143C77.6914 19.3701 76.9346 19.0527 75.4209 18.6621C74.8838 18.2812 74.5078 17.4658 74.293 16.2158V15.4541C74.3125 15.21 74.9424 14.834 76.1826 14.3262C77.3154 14.5215 77.8818 15.0879 77.8818 16.0254L77.501 16.7725L77.8818 16.9629H78.2627C78.9463 15.7031 79.3857 15.0732 79.5811 15.0732L79.9619 14.1357L77.3105 6.57715C77.3105 6.1377 76.6807 5.76172 75.4209 5.44922L75.2451 5.06836V4.6875C75.2451 4.51172 75.4307 4.32617 75.8018 4.13086H75.9922C76.4121 4.13086 76.7295 4.19434 76.9443 4.32129L78.0723 4.13086H78.2627C80.001 4.35547 80.8701 4.6875 80.8701 5.12695V5.1416C80.1768 5.37598 79.8301 5.83496 79.8301 6.51855C79.8301 6.99707 80.001 7.58301 80.3428 8.27637C80.6553 9.60449 80.9678 10.4199 81.2803 10.7227L82.042 7.5293C82.042 7.27539 82.1836 6.77246 82.4668 6.02051C82.4668 5.92285 82.1201 5.77637 81.4268 5.58105L81.4707 4.6875C81.9883 4.32617 82.6816 4.14062 83.5508 4.13086L84.2979 4.32129L85.9971 3.94043C86.2705 3.98926 86.4658 4.02344 86.583 4.04297C86.7002 4.05273 86.7734 4.37012 86.8027 4.99512V5.1709C86.8027 5.67871 86.6953 5.93262 86.4805 5.93262C86.4707 5.93262 86.4658 5.92773 86.4658 5.91797Z" fill="white"/>
<path d="M89.6592 7.39746L89.7031 7.00195C89.6836 6.88477 89.6738 6.77246 89.6738 6.66504C89.6738 5.40527 90.7432 4.49219 92.8818 3.92578C93.4482 3.96484 93.9268 3.98438 94.3174 3.98438C94.4443 3.98438 94.6738 3.96484 95.0059 3.92578C97.5645 4.0918 98.8438 4.92676 98.8438 6.43066C98.9707 6.65527 99.0342 6.90918 99.0342 7.19238C99.0342 7.31934 98.9707 7.38281 98.8438 7.38281L99.0342 8.70117V12.0996C99.0342 12.2754 99.2197 12.4609 99.5908 12.6562C99.9229 12.041 100.177 11.7285 100.353 11.7188H100.924C101.178 11.7773 101.427 12.0898 101.671 12.6562L101.48 13.7988V13.9893C100.992 14.4287 100.362 14.7412 99.5908 14.9268H98.6533C98.6533 14.7021 98.0869 14.5117 96.9541 14.3555L94.0244 15.1465L93.2627 14.9561L92.3105 15.1904C90.2207 14.5654 89.1758 13.6279 89.1758 12.3779C89.1758 12.3096 89.1807 12.2461 89.1904 12.1875C89.1807 12.0801 89.1758 11.9727 89.1758 11.8652C89.1758 10.8496 89.6299 9.92188 90.5381 9.08203L91.5342 8.71582L92.9844 8.55469C94.1172 8.52539 94.8105 8.51074 95.0645 8.51074C95.1914 8.53027 95.3086 8.54004 95.416 8.54004C96.3047 8.54004 96.8174 8.02734 96.9541 7.00195C96.9346 6.39648 96.168 5.91309 94.6543 5.55176C94.2441 5.7959 93.9316 5.91797 93.7168 5.91797L92.5889 5.72754C92.5889 5.98145 92.4717 6.15234 92.2373 6.24023C92.2373 6.64062 92.3984 6.97754 92.7207 7.25098C92.8574 7.31934 92.9258 7.39746 92.9258 7.48535C92.9258 7.80762 92.1104 8.21777 90.4795 8.71582L89.6592 7.39746ZM93.1748 10.3564H92.5742C92.4375 10.3564 92.3105 10.3271 92.1934 10.2686C91.5781 10.8936 91.2705 11.3379 91.2705 11.6016V12.6709C91.5342 13.0322 91.793 13.2129 92.0469 13.2129C92.2031 13.2129 92.3594 13.1445 92.5156 13.0078C93.6777 13.1348 94.4102 13.1982 94.7129 13.1982H95.3281C96.1094 12.6318 96.6514 12.0068 96.9541 11.3232V11.0596C96.9053 10.5518 96.5 10.2002 95.7383 10.0049C94.3516 10.1807 93.4971 10.2979 93.1748 10.3564Z" fill="white"/>
</svg>
