<svg width="72" height="16" viewBox="0 0 72 16" fill="none" xmlns="http://www.w3.org/2000/svg">
<path d="M4.09375 0.541992H6.54004C7.01855 0.541992 7.71191 0.854492 8.62012 1.47949H9.19141L9.74805 1.09863H10.3193C10.5049 1.09863 10.6953 1.28906 10.8906 1.66992L10.3193 2.98828C10.5732 3.44727 10.7002 3.9502 10.7002 4.49707C10.3877 4.75098 10.1973 4.87793 10.1289 4.87793H9.57227C9.57227 3.6084 8.625 2.72949 6.73047 2.24121C6.73047 2.00684 6.10059 1.87988 4.84082 1.86035H4.47461C3.66406 1.86035 2.9707 2.49023 2.39453 3.75C2.39453 4.83398 4.90918 5.9668 9.93848 7.14844C10.4756 7.14844 10.9785 8.59375 11.4473 11.4844C10.9688 13.1152 10.3438 14.1211 9.57227 14.502C8.91797 14.8828 8.28809 15.0732 7.68262 15.0732H5.9834C5.60254 15.0732 4.5918 14.7607 2.95117 14.1357H2.58496C2.58496 14.6338 2.39453 14.8828 2.01367 14.8828H1.63281C1.34961 14.8828 1.16406 14.5703 1.07617 13.9453C1.32031 13.5254 1.44238 13.1445 1.44238 12.8027V11.8652C1.07129 11.3086 0.885742 10.7422 0.885742 10.166C1.07129 9.6582 1.25684 9.4043 1.44238 9.4043H1.82324C2.1748 9.51172 2.61426 10.2686 3.1416 11.6748C3.57129 12.0752 4.51855 12.7051 5.9834 13.5645H6.73047C8.13672 13.5645 9.20605 12.8711 9.93848 11.4844V10.166C9.22559 8.52539 7.78027 7.70508 5.60254 7.70508C4.1377 7.13867 3.19531 6.63574 2.77539 6.19629C2.10156 6.19629 1.59375 5.38086 1.25195 3.75C1.25195 2.57812 2.19922 1.50879 4.09375 0.541992Z" fill="white"/>
<path d="M15.0654 7.39746L15.1094 7.00195C15.0898 6.88477 15.0801 6.77246 15.0801 6.66504C15.0801 5.40527 16.1494 4.49219 18.2881 3.92578C18.8545 3.96484 19.333 3.98438 19.7236 3.98438C19.8506 3.98438 20.0801 3.96484 20.4121 3.92578C22.9707 4.0918 24.25 4.92676 24.25 6.43066C24.377 6.65527 24.4404 6.90918 24.4404 7.19238C24.4404 7.31934 24.377 7.38281 24.25 7.38281L24.4404 8.70117V12.0996C24.4404 12.2754 24.626 12.4609 24.9971 12.6562C25.3291 12.041 25.583 11.7285 25.7588 11.7188H26.3301C26.584 11.7773 26.833 12.0898 27.0771 12.6562L26.8867 13.7988V13.9893C26.3984 14.4287 25.7686 14.7412 24.9971 14.9268H24.0596C24.0596 14.7021 23.4932 14.5117 22.3604 14.3555L19.4307 15.1465L18.6689 14.9561L17.7168 15.1904C15.627 14.5654 14.582 13.6279 14.582 12.3779C14.582 12.3096 14.5869 12.2461 14.5967 12.1875C14.5869 12.0801 14.582 11.9727 14.582 11.8652C14.582 10.8496 15.0361 9.92188 15.9443 9.08203L16.9404 8.71582L18.3906 8.55469C19.5234 8.52539 20.2168 8.51074 20.4707 8.51074C20.5977 8.53027 20.7148 8.54004 20.8223 8.54004C21.7109 8.54004 22.2236 8.02734 22.3604 7.00195C22.3408 6.39648 21.5742 5.91309 20.0605 5.55176C19.6504 5.7959 19.3379 5.91797 19.123 5.91797L17.9951 5.72754C17.9951 5.98145 17.8779 6.15234 17.6436 6.24023C17.6436 6.64062 17.8047 6.97754 18.127 7.25098C18.2637 7.31934 18.332 7.39746 18.332 7.48535C18.332 7.80762 17.5166 8.21777 15.8857 8.71582L15.0654 7.39746ZM18.5811 10.3564H17.9805C17.8438 10.3564 17.7168 10.3271 17.5996 10.2686C16.9844 10.8936 16.6768 11.3379 16.6768 11.6016V12.6709C16.9404 13.0322 17.1992 13.2129 17.4531 13.2129C17.6094 13.2129 17.7656 13.1445 17.9219 13.0078C19.084 13.1348 19.8164 13.1982 20.1191 13.1982H20.7344C21.5156 12.6318 22.0576 12.0068 22.3604 11.3232V11.0596C22.3115 10.5518 21.9062 10.2002 21.1445 10.0049C19.7578 10.1807 18.9033 10.2979 18.5811 10.3564Z" fill="white"/>
<path d="M37.9756 3.94043H39.8652C40.7441 4.60449 41.374 5.35645 41.7549 6.19629C41.7549 7.83691 41.125 8.65723 39.8652 8.65723C39.2793 8.65723 38.8398 7.90039 38.5469 6.38672C38.6641 6.38672 38.7227 6.32324 38.7227 6.19629L37.9756 5.83008C35.583 6.71875 34.3867 8.29102 34.3867 10.5469C34.5137 12.1094 34.5771 12.9248 34.5771 12.9932C36.7158 12.9932 37.7852 13.2471 37.7852 13.7549V14.3262C37.7852 14.5215 37.5312 14.7705 37.0234 15.0732H35.1484C34.7188 15.0732 34.4014 15.1367 34.1963 15.2637L33.0684 15.0732H30.2266C30.0312 15.0732 29.7822 14.8242 29.4795 14.3262V13.7549C29.4795 13.5303 29.8555 13.2178 30.6074 12.8174L31.5596 12.9932H31.9258L32.3066 12.8174C32.3066 12.5635 32.2432 12.4365 32.1162 12.4365C32.2432 11.1768 32.3066 10.2295 32.3066 9.59473V7.5293C32.3066 6.52344 31.8672 6.02051 30.9883 6.02051C29.9824 6.02051 29.4795 5.63965 29.4795 4.87793L30.417 4.13086H32.3066C33.2637 4.13086 34.0205 4.57031 34.5771 5.44922C36.3838 4.44336 37.5166 3.94043 37.9756 3.94043Z" fill="white"/>
<path d="M44.3623 7.39746L44.4062 7.00195C44.3867 6.88477 44.377 6.77246 44.377 6.66504C44.377 5.40527 45.4463 4.49219 47.585 3.92578C48.1514 3.96484 48.6299 3.98438 49.0205 3.98438C49.1475 3.98438 49.377 3.96484 49.709 3.92578C52.2676 4.0918 53.5469 4.92676 53.5469 6.43066C53.6738 6.65527 53.7373 6.90918 53.7373 7.19238C53.7373 7.31934 53.6738 7.38281 53.5469 7.38281L53.7373 8.70117V12.0996C53.7373 12.2754 53.9229 12.4609 54.2939 12.6562C54.626 12.041 54.8799 11.7285 55.0557 11.7188H55.627C55.8809 11.7773 56.1299 12.0898 56.374 12.6562L56.1836 13.7988V13.9893C55.6953 14.4287 55.0654 14.7412 54.2939 14.9268H53.3564C53.3564 14.7021 52.79 14.5117 51.6572 14.3555L48.7275 15.1465L47.9658 14.9561L47.0137 15.1904C44.9238 14.5654 43.8789 13.6279 43.8789 12.3779C43.8789 12.3096 43.8838 12.2461 43.8936 12.1875C43.8838 12.0801 43.8789 11.9727 43.8789 11.8652C43.8789 10.8496 44.333 9.92188 45.2412 9.08203L46.2373 8.71582L47.6875 8.55469C48.8203 8.52539 49.5137 8.51074 49.7676 8.51074C49.8945 8.53027 50.0117 8.54004 50.1191 8.54004C51.0078 8.54004 51.5205 8.02734 51.6572 7.00195C51.6377 6.39648 50.8711 5.91309 49.3574 5.55176C48.9473 5.7959 48.6348 5.91797 48.4199 5.91797L47.292 5.72754C47.292 5.98145 47.1748 6.15234 46.9404 6.24023C46.9404 6.64062 47.1016 6.97754 47.4238 7.25098C47.5605 7.31934 47.6289 7.39746 47.6289 7.48535C47.6289 7.80762 46.8135 8.21777 45.1826 8.71582L44.3623 7.39746ZM47.8779 10.3564H47.2773C47.1406 10.3564 47.0137 10.3271 46.8965 10.2686C46.2812 10.8936 45.9736 11.3379 45.9736 11.6016V12.6709C46.2373 13.0322 46.4961 13.2129 46.75 13.2129C46.9062 13.2129 47.0625 13.1445 47.2188 13.0078C48.3809 13.1348 49.1133 13.1982 49.416 13.1982H50.0312C50.8125 12.6318 51.3545 12.0068 51.6572 11.3232V11.0596C51.6084 10.5518 51.2031 10.2002 50.4414 10.0049C49.0547 10.1807 48.2002 10.2979 47.8779 10.3564Z" fill="white"/>
<path d="M59.4648 0.395508C59.5527 0.395508 59.9287 0.458984 60.5928 0.585938L60.9736 0.395508C61.501 0.522461 61.9404 0.834961 62.292 1.33301L62.1016 3.22266V5.85938C62.1406 6.11328 62.2676 6.24023 62.4824 6.24023C63.332 4.85352 64.6553 4.16016 66.4521 4.16016H66.8184C68.0781 4.54102 68.708 5.1709 68.708 6.0498C69.0889 7.34863 69.2793 9.55078 69.2793 12.6562C69.4062 12.9004 69.4697 13.0908 69.4697 13.2275H70.7881C70.9834 13.2275 71.2373 13.4814 71.5498 13.9893C71.5498 14.1553 71.2324 14.4678 70.5977 14.9268H68.1514C67.6924 14.9268 67.126 14.9902 66.4521 15.1172C65.6904 14.9414 65.3096 14.5654 65.3096 13.9893C65.3096 13.7256 65.876 13.2227 67.0088 12.4805V12.29C66.7646 11.8701 66.6426 11.4893 66.6426 11.1475C66.8867 11.1475 67.0088 11.0254 67.0088 10.7812L66.6426 10.21V10.0195L67.5801 8.70117V8.51074C67.4141 6.74316 66.9746 5.85938 66.2617 5.85938C64.543 6.49414 63.2197 7.75391 62.292 9.63867L62.1016 10.5908C62.3945 12.2314 63.0244 13.3008 63.9912 13.7988V14.5459C63.9912 14.7998 63.8643 14.9268 63.6104 14.9268C61.501 15.0537 59.8652 15.1172 58.7031 15.1172C58.332 14.6289 58.1465 14.2529 58.1465 13.9893C58.6543 13.5889 59.4062 13.208 60.4023 12.8467C60.4023 12.7197 60.3389 12.6562 60.2119 12.6562L60.5928 7.55859C60.4658 6.875 60.4023 6.37207 60.4023 6.0498C60.5293 4.7998 60.5928 3.85742 60.5928 3.22266C60.5928 2.66602 59.8994 2.22656 58.5127 1.9043L58.3223 1.52344V0.952148C58.4492 0.581055 58.8301 0.395508 59.4648 0.395508Z" fill="white"/>
</svg>
